<svg width="48" height="57" viewBox="0 0 48 57" fill="none" xmlns="http://www.w3.org/2000/svg">
<path d="M9.74313 56.1258C8.67086 55.7717 7.85375 55.1596 7.60301 54.004C7.54254 53.7228 7.53664 53.4269 7.53516 53.1384C7.52926 51.6869 7.53221 50.2369 7.53221 48.7141C6.87145 48.7141 6.25198 48.7141 5.63398 48.7141C4.67676 48.7141 3.71953 48.7243 2.76378 48.7111C1.24165 48.6907 0.0853106 47.5599 0.0336882 46.0589C0.0292634 45.9496 0.0322132 45.8403 0.0322132 45.731C0.0322132 31.5705 0.0322132 17.4101 0.0322132 3.24964C0.0322132 1.69472 0.834573 0.619238 2.22248 0.326323C2.47174 0.273861 2.7328 0.266575 2.98944 0.266575C14.4172 0.26366 25.8434 0.26366 37.2712 0.265117C39.1089 0.265117 40.2254 1.3712 40.2299 3.18552C40.2328 4.65592 40.2299 6.12632 40.2299 7.67396C40.4585 7.67396 40.6532 7.67396 40.8479 7.67396C42.2092 7.67396 43.5706 7.66668 44.9334 7.67542C46.5499 7.68708 47.7269 8.82813 47.7269 10.4268C47.7343 21.1699 47.7461 31.913 47.7136 42.6561C47.7077 44.4078 47.0012 45.9744 45.724 47.1956C43.2254 49.5841 40.6797 51.9259 38.1325 54.2649C37.0956 55.2165 35.8169 55.7163 34.4481 56.0136C34.3464 56.0355 34.2505 56.0865 34.1532 56.1244C26.0145 56.1258 17.8788 56.1258 9.74313 56.1258ZM34.1001 54.0506C34.1001 53.7679 34.1001 53.5537 34.1001 53.3395C34.1001 51.3037 34.0883 49.2678 34.103 47.232C34.1207 44.8785 35.6827 43.3556 38.0617 43.3498C40.2328 43.3454 42.4039 43.3483 44.5765 43.3483C45.6679 43.3483 45.6694 43.3483 45.6709 42.2685C45.6723 31.7804 45.6723 21.2908 45.6723 10.8028C45.6723 9.82929 45.516 9.67627 44.513 9.67627C33.252 9.67627 21.9894 9.67627 10.7284 9.67627C9.73723 9.67627 9.57056 9.84095 9.57056 10.813C9.57056 24.8641 9.57056 38.9167 9.57056 52.9679C9.57056 53.9661 9.70626 54.1002 10.7181 54.1002C18.1517 54.1002 25.5868 54.1017 33.0204 54.0987C33.3493 54.0987 33.6782 54.0696 34.1001 54.0506ZM38.1915 7.67542C38.1915 7.43059 38.1915 7.23532 38.1915 7.04004C38.1915 5.8407 38.1915 4.63989 38.1915 3.44054C38.19 2.41461 38.0632 2.29075 37.0057 2.29075C25.7608 2.29075 14.5175 2.29075 3.27263 2.29075C2.18118 2.29075 2.08679 2.38547 2.08679 3.48718C2.08679 17.4859 2.08679 31.4846 2.08679 45.4833C2.08679 45.5736 2.08531 45.6654 2.08679 45.7558C2.09564 46.5092 2.30065 46.7118 3.08384 46.7147C4.40832 46.719 5.73428 46.7176 7.05876 46.7147C7.20036 46.7147 7.34342 46.6913 7.53074 46.6753C7.53074 46.4159 7.53074 46.1828 7.53074 45.9496C7.53074 34.2243 7.55286 22.4975 7.50714 10.7722C7.49976 8.91557 8.78885 7.64336 10.6384 7.65356C19.5824 7.70602 28.5263 7.67688 37.4703 7.67688C37.6886 7.67542 37.9039 7.67542 38.1915 7.67542ZM44.6753 45.4162C44.4614 45.374 44.4113 45.3536 44.3596 45.3536C42.2063 45.3521 40.0529 45.339 37.9009 45.3565C36.8537 45.3652 36.1487 46.0895 36.1443 47.1285C36.1355 49.0376 36.1414 50.9466 36.1428 52.8557C36.1428 52.9519 36.1664 53.0495 36.1974 53.2987C39.0588 50.6391 41.8243 48.0685 44.6753 45.4162Z" fill="white"/>
<path d="M27.6366 19.1212C24.4921 19.1212 21.3475 19.1212 18.203 19.1212C18.0186 19.1212 17.8328 19.1285 17.6529 19.1022C17.1116 19.0221 16.731 18.6053 16.7266 18.1098C16.7222 17.5954 17.1263 17.164 17.6897 17.0956C17.8534 17.0752 18.0201 17.0839 18.1853 17.0839C24.4744 17.0839 30.7635 17.0839 37.0526 17.0839C38.0157 17.0839 38.5201 17.4307 38.526 18.0938C38.5319 18.7612 38.0231 19.1226 37.0688 19.1226C33.9257 19.1212 30.7812 19.1212 27.6366 19.1212Z" fill="white"/>
<path d="M27.6186 32.563C24.3826 32.563 21.1466 32.5645 17.9106 32.5616C17.126 32.5601 16.6083 32.0398 16.7499 31.3914C16.8531 30.9192 17.1452 30.6204 17.6525 30.5738C17.8354 30.5563 18.0198 30.5592 18.2042 30.5592C24.4932 30.5592 30.7809 30.5578 37.0699 30.5592C38.0522 30.5592 38.5345 30.8944 38.5257 31.5691C38.5168 32.2439 38.0434 32.563 37.0522 32.563C33.9062 32.5645 30.7617 32.563 27.6186 32.563Z" fill="white"/>
<path d="M27.6417 25.8316C24.4972 25.8316 21.3526 25.8316 18.2081 25.8301C18.006 25.8301 17.8025 25.836 17.6019 25.8097C17.1019 25.7442 16.7317 25.3303 16.7229 24.845C16.7125 24.3466 17.1063 23.9007 17.6226 23.8366C17.7494 23.8205 17.8792 23.8278 18.009 23.8278C24.4264 23.8278 30.8438 23.8278 37.2612 23.8278C37.9544 23.8278 38.3231 24.0493 38.4706 24.5448C38.6447 25.1306 38.2877 25.7092 37.6786 25.8054C37.481 25.836 37.276 25.8301 37.0739 25.8301C33.9308 25.8316 30.7863 25.8316 27.6417 25.8316Z" fill="white"/>
<path d="M23.1632 39.3102C21.4906 39.3102 19.8166 39.3117 18.144 39.3088C17.9611 39.3088 17.7738 39.3131 17.5953 39.2811C17.085 39.1864 16.7295 38.7739 16.7266 38.296C16.7236 37.8209 17.0776 37.4026 17.585 37.3035C17.7458 37.2729 17.9139 37.2729 18.0791 37.2729C21.498 37.2715 24.9183 37.27 28.3372 37.2744C28.5378 37.2744 28.7443 37.2861 28.936 37.34C29.3947 37.4682 29.641 37.7874 29.6543 38.2581C29.6676 38.7521 29.4257 39.096 28.9463 39.2388C28.7399 39.3 28.5127 39.3073 28.2944 39.3088C26.582 39.3131 24.8726 39.3102 23.1632 39.3102Z" fill="white"/>
</svg>
