<svg width="54" height="54" viewBox="0 0 54 54" fill="none" xmlns="http://www.w3.org/2000/svg">
<path d="M3.21766 53.8861C2.65076 53.5744 2.01234 53.3454 1.53385 52.9328C0.801821 52.3016 0.617188 51.4 0.617188 50.4467C0.623689 38.138 0.622388 25.8306 0.622388 13.5218C0.622388 10.4925 0.621088 7.46187 0.622388 4.43254C0.623689 2.27114 1.90052 0.998357 4.07192 0.997064C16.4424 0.99577 28.8115 0.99577 41.182 0.997064C43.3599 0.997064 44.638 2.26338 44.6393 4.42219C44.6419 7.93399 44.6393 11.4458 44.6393 14.9576C44.6393 15.0947 44.6458 15.2344 44.6302 15.3702C44.5652 15.9432 44.1413 16.3481 43.6121 16.3545C43.0855 16.3597 42.646 15.9561 42.5771 15.3896C42.5563 15.2202 42.5641 15.0455 42.5641 14.8735C42.5641 11.4134 42.5641 7.95339 42.5628 4.49334C42.5628 3.40164 42.2274 3.06275 41.1443 3.06275C28.8089 3.06275 16.4736 3.06275 4.13823 3.06275C3.04083 3.06275 2.69757 3.39776 2.69757 4.47135C2.69757 19.7926 2.69757 35.1126 2.69757 50.4338C2.69757 51.4764 3.04733 51.8191 4.10962 51.8191C16.4619 51.8191 28.8154 51.8191 41.1677 51.8191C42.2183 51.8191 42.5615 51.4725 42.5628 50.4183C42.5641 48.1806 42.5628 45.9429 42.5628 43.7051C42.5628 43.5848 42.5602 43.4645 42.5628 43.3443C42.581 42.6277 42.9841 42.1633 43.59 42.1555C44.1946 42.1478 44.6224 42.616 44.6354 43.3249C44.6471 43.9794 44.638 44.6326 44.638 45.2871C44.638 47.0087 44.6393 48.7303 44.638 50.4519C44.6367 52.2654 43.9008 53.2652 42.1727 53.8098C42.1259 53.824 42.0856 53.8615 42.0427 53.8887C29.1028 53.8861 16.1602 53.8861 3.21766 53.8861Z" fill="white"/>
<path d="M53.7767 18.8679C53.0317 21.147 51.604 23.0678 50.4312 25.118C47.1065 30.9283 43.7285 36.7089 40.3531 42.4907C40.1347 42.8645 39.8187 43.2151 39.4702 43.4751C37.4679 44.9742 35.4486 46.4539 33.415 47.9104C33.1277 48.1161 32.7259 48.2713 32.3814 48.2648C31.8288 48.2545 31.4881 47.7461 31.5453 47.1084C31.6493 45.9443 31.7897 44.7828 31.9185 43.6199C32.0732 42.2191 32.2162 40.8157 32.4009 39.4174C32.4529 39.019 32.566 38.5986 32.7649 38.2546C37.0011 30.9231 41.2503 23.5982 45.5046 16.2771C46.7932 14.0601 49.1414 13.284 51.357 14.3524C52.5987 14.9513 53.3412 15.9705 53.6662 17.2989C53.6935 17.4102 53.739 17.5175 53.7754 17.6262C53.7767 18.0414 53.7767 18.4553 53.7767 18.8679ZM38.8487 40.9748C42.3542 34.9329 45.8349 28.9325 49.3312 22.9075C47.9868 22.1352 46.6957 21.3941 45.3759 20.6361C41.8679 26.6792 38.3923 32.6693 34.8921 38.6995C36.2118 39.4575 37.4939 40.1948 38.8487 40.9748ZM50.3766 21.1199C50.7706 20.4214 51.1607 19.8122 51.4727 19.1641C51.9889 18.0944 51.5793 16.8501 50.5626 16.2603C49.5263 15.6588 48.2247 15.9382 47.5434 16.9458C47.1416 17.5421 46.801 18.1798 46.4096 18.8395C47.7306 19.5987 49.0244 20.3425 50.3766 21.1199ZM33.8493 45.0453C35.0611 44.1554 36.1741 43.3392 37.3314 42.4894C36.3016 41.8983 35.3537 41.355 34.3317 40.7678C34.1692 42.2165 34.0158 43.5734 33.8493 45.0453Z" fill="white"/>
<path d="M22.6245 6.57716C27.867 6.57069 32.1669 10.8366 32.1812 16.0584C32.1955 21.2944 27.8761 25.5939 22.6141 25.5809C17.365 25.568 13.0846 21.2982 13.082 16.0739C13.0794 10.8612 17.3793 6.58362 22.6245 6.57716ZM16.4379 20.1639C16.9359 19.7862 17.4482 19.3761 17.9813 18.9971C18.5118 18.6207 19.0631 18.2741 19.6378 17.8925C18.8616 16.8215 18.7706 15.6069 18.9721 14.3535C19.2556 12.597 20.8054 11.3048 22.6128 11.2893C24.4214 11.2751 26.0181 12.5944 26.295 14.3665C26.4901 15.6186 26.4056 16.8344 25.5864 17.9442C26.8476 18.5211 27.8319 19.358 28.6121 20.4407C30.6898 17.8317 30.7353 13.4442 27.7305 10.6594C24.7842 7.92884 20.3022 7.97411 17.4118 10.7745C14.472 13.6201 14.6449 17.9598 16.4379 20.1639ZM18.1347 21.9799C21.0005 24.131 24.7061 23.8826 27.1181 21.967C26.1026 20.3191 24.6294 19.4188 22.6895 19.3994C20.7079 19.38 19.1957 20.2764 18.1347 21.9799ZM24.3057 15.3392C24.3005 15.3392 24.294 15.3379 24.2888 15.3379C24.2888 15.2008 24.2966 15.0624 24.2875 14.9266C24.2329 14.0806 23.6061 13.4326 22.7805 13.3653C21.934 13.2968 21.1838 13.8012 21.0343 14.6381C20.9511 15.0999 20.9576 15.603 21.0473 16.0648C21.1968 16.8357 21.8989 17.3311 22.6661 17.3169C23.4254 17.3014 24.0911 16.762 24.2524 16.0053C24.2966 15.788 24.2888 15.5604 24.3057 15.3392Z" fill="white"/>
<path d="M20.867 30.9542C18.5487 30.9542 16.2303 30.9542 13.912 30.9529C13.7391 30.9529 13.5635 30.9607 13.3945 30.9348C12.8523 30.8546 12.4661 30.4252 12.4648 29.9207C12.4648 29.4162 12.851 28.9868 13.3932 28.9066C13.5635 28.8807 13.7378 28.8885 13.9107 28.8885C18.5473 28.8872 23.184 28.8872 27.8193 28.8872C27.8544 28.8872 27.8882 28.8872 27.9234 28.8872C28.7659 28.8924 29.2652 29.2765 29.2665 29.9194C29.2665 30.5623 28.7659 30.9516 27.9247 30.9529C25.5725 30.9555 23.2191 30.9542 20.867 30.9542Z" fill="white"/>
<path d="M20.867 36.7387C18.5487 36.7387 16.2303 36.7387 13.912 36.7374C13.7391 36.7374 13.5635 36.7451 13.3945 36.7193C12.8523 36.6391 12.4661 36.2096 12.4648 35.7052C12.4648 35.2007 12.851 34.7713 13.3932 34.6898C13.5635 34.6639 13.7378 34.6717 13.9107 34.6717C18.5473 34.6704 23.184 34.6704 27.8193 34.6704C27.8544 34.6704 27.8882 34.6704 27.9234 34.6704C28.7659 34.6756 29.2652 35.0597 29.2665 35.7026C29.2665 36.3455 28.7659 36.7348 27.9247 36.7361C25.5725 36.74 23.2191 36.7387 20.867 36.7387Z" fill="white"/>
<path d="M20.8722 40.4574C23.2074 40.4574 25.5426 40.4561 27.8792 40.4586C28.069 40.4586 28.2627 40.4599 28.4461 40.5C28.9337 40.6061 29.2717 41.0265 29.2691 41.4947C29.2665 41.9643 28.9285 42.3808 28.4383 42.4829C28.2549 42.5217 28.0599 42.5217 27.8714 42.5217C23.2009 42.523 18.5292 42.5243 13.8587 42.5205C13.6533 42.5205 13.44 42.514 13.2424 42.4648C12.7782 42.3484 12.4662 41.9358 12.4688 41.4857C12.4714 41.0342 12.7847 40.6255 13.2515 40.513C13.4491 40.4651 13.6624 40.4599 13.8678 40.4599C16.2004 40.4561 18.5357 40.4574 20.8722 40.4574Z" fill="white"/>
<path d="M25.3918 48.3075C24.5441 48.3075 23.6963 48.3127 22.8486 48.3062C22.0918 48.3011 21.6081 47.8975 21.6016 47.2831C21.5951 46.6687 22.0814 46.247 22.8317 46.2431C24.561 46.2367 26.2916 46.2367 28.0209 46.2431C28.7776 46.2457 29.2613 46.6519 29.2678 47.265C29.2743 47.8794 28.788 48.2985 28.0391 48.3049C27.1562 48.314 26.2747 48.3075 25.3918 48.3075Z" fill="white"/>
<path d="M9.04304 28.8962C9.59044 28.8846 10.0715 29.3502 10.0806 29.9012C10.0897 30.4561 9.63335 30.9334 9.08075 30.9464C8.54375 30.9593 8.04446 30.4794 8.03146 29.9388C8.01976 29.4045 8.49954 28.9079 9.04304 28.8962Z" fill="white"/>
<path d="M9.06758 36.7307C8.52798 36.7359 8.03519 36.2508 8.03129 35.7114C8.02609 35.1746 8.51368 34.6831 9.05458 34.6792C9.60458 34.6753 10.0766 35.1436 10.0805 35.6972C10.0818 36.2547 9.62018 36.7268 9.06758 36.7307Z" fill="white"/>
<path d="M10.0791 41.4844C10.0817 42.0406 9.61886 42.5114 9.06626 42.5153C8.52666 42.5192 8.03517 42.0342 8.03127 41.4948C8.02737 40.958 8.51496 40.4678 9.05586 40.4639C9.60586 40.4626 10.0765 40.9308 10.0791 41.4844Z" fill="white"/>
</svg>
