<svg width="62" height="51" viewBox="0 0 62 51" fill="none" xmlns="http://www.w3.org/2000/svg">
<path d="M0.953125 37.0841C0.953125 27.134 0.953125 17.1838 0.953125 7.23518C1.45426 5.34021 2.75881 4.1088 4.43403 3.30966C5.83722 2.63972 7.30722 2.05113 8.80744 1.64758C12.8388 0.562913 16.9593 0.398619 21.0845 0.936165C24.8454 1.42586 28.5093 2.2569 31.462 4.97175C32.7904 3.6207 34.4211 2.7769 36.1886 2.20426C42.1959 0.258251 48.2668 0.184877 54.3711 1.705C56.3645 2.20107 58.2624 2.94917 59.8995 4.2396C61.2565 5.30831 61.9549 6.64819 61.947 8.45064C61.904 17.6814 61.9184 26.9122 61.9359 36.143C61.939 37.4622 61.5111 38.5771 60.5661 39.4513C59.9313 40.0398 59.2265 40.5838 58.4756 41.0081C56.1624 42.3129 53.6218 42.9349 51.0174 43.2922C49.6668 43.4773 48.3049 43.5714 46.9368 43.707C46.8397 45.3579 45.9233 46.5175 44.6809 47.4666C43.3397 48.4922 41.814 49.159 40.2056 49.6232C35.2929 51.0428 30.3149 51.1513 25.3052 50.2596C22.949 49.8401 20.6772 49.143 18.6631 47.7936C17.1979 46.811 16.0636 45.5796 15.9379 43.6687C15.7199 43.6527 15.5243 43.6352 15.3302 43.624C12.2056 43.4629 9.12881 43.0322 6.20631 41.8551C3.87881 40.9171 1.72153 39.7591 0.953125 37.0841ZM18.3402 40.4434C18.3402 41.434 18.3799 42.3113 18.329 43.1822C18.2765 44.0898 18.6138 44.814 19.3234 45.2893C20.2063 45.8811 21.1163 46.5 22.1043 46.8541C27.7504 48.8798 33.484 48.8926 39.2479 47.3932C40.7895 46.9929 42.2849 46.417 43.4924 45.3356C43.9284 44.9448 44.4008 44.3833 44.4772 43.8457C44.6299 42.7627 44.5233 41.6445 44.5233 40.5343C44.4359 40.5423 44.3897 40.5343 44.3627 40.5519C42.0081 42.1071 39.3545 42.7978 36.6213 43.2603C35.7686 43.4055 35.1465 43.0354 35.024 42.3256C34.8968 41.5935 35.3884 41.0623 36.2602 40.8916C37.3674 40.6731 38.4795 40.4594 39.5613 40.1403C41.0504 39.7033 42.5013 39.1322 43.6483 38.0348C44.0079 37.6919 44.4199 37.2181 44.4661 36.7699C44.5822 35.6438 44.5043 34.4969 44.5043 33.3213C40.4649 35.8527 36.0168 36.4684 31.4493 36.4716C26.8659 36.4732 22.4034 35.8463 18.3418 33.3038C18.3418 34.1667 18.4022 34.9627 18.3274 35.7443C18.2097 36.9725 18.7856 37.7908 19.7131 38.4559C21.0909 39.4449 22.6547 40.0048 24.2774 40.4115C25.1222 40.6236 25.9877 40.7513 26.8404 40.9299C27.4672 41.0623 27.8506 41.4994 27.8713 42.0704C27.8904 42.6063 27.5563 43.1232 27.0424 43.2396C26.7624 43.3034 26.449 43.2827 26.1627 43.2348C23.4231 42.7898 20.7854 42.0576 18.3402 40.4434ZM16.5584 12.6138C19.3838 12.5867 21.942 12.3283 24.4477 11.6568C26.1404 11.2022 27.7806 10.6168 29.1774 9.50659C30.587 8.38684 30.6156 7.22561 29.1552 6.16488C28.3152 5.55555 27.3829 4.99727 26.4093 4.65751C20.3368 2.54242 14.2022 2.54083 8.05494 4.33052C6.71858 4.71972 5.4554 5.30193 4.35926 6.1904C3.01653 7.27666 3.00063 8.41555 4.37676 9.46512C5.00199 9.94205 5.69085 10.3663 6.40835 10.6854C9.71267 12.1576 13.227 12.5452 16.5584 12.6138ZM46.3147 3.04807C43.599 3.07359 41.1554 3.30966 38.7611 3.91899C36.9299 4.38475 35.1465 4.99089 33.6431 6.20156C32.3179 7.26868 32.2749 8.4315 33.6431 9.42843C34.5293 10.0744 35.5236 10.6184 36.5402 11.0283C39.0284 12.03 41.6597 12.4176 44.3229 12.5532C48.1983 12.7494 52.0197 12.4129 55.6724 11.0156C56.7113 10.6184 57.7168 10.0346 58.6061 9.36463C59.8724 8.40917 59.8549 7.30377 58.6252 6.30524C57.9856 5.78524 57.2634 5.33224 56.5124 4.99408C53.1938 3.49948 49.6572 3.11347 46.3147 3.04807ZM30.6888 24.5244C29.7852 24.6089 28.164 24.7238 26.554 24.9279C25.6345 25.0444 24.7213 25.2661 23.8272 25.5149C22.1599 25.9791 20.5324 26.5597 19.2199 27.756C18.0284 28.8423 18.0013 29.9174 19.274 30.9079C20.122 31.5683 21.0956 32.1106 22.0884 32.527C24.489 33.5351 27.0424 33.9035 29.6261 34.0423C33.1563 34.2321 36.6372 33.9434 40.0163 32.8332C41.4163 32.3722 42.7654 31.79 43.8313 30.7229C44.7795 29.7738 44.8177 28.8152 43.8186 27.9379C43.1154 27.319 42.3008 26.7703 41.4497 26.3843C38.2647 24.9391 34.8602 24.593 30.6888 24.5244ZM30.237 11.7589C26.0338 14.3142 21.4727 14.9794 16.7859 14.9762C12.0879 14.973 7.51403 14.2998 3.33472 11.7557C3.33472 12.692 3.38244 13.5645 3.32199 14.4306C3.25199 15.4164 3.68631 16.1023 4.41335 16.6765C5.56994 17.5889 6.89517 18.1632 8.2904 18.5683C13.6693 20.1363 19.0815 20.1618 24.5018 18.8028C26.1802 18.3817 27.8204 17.8011 29.1599 16.6542C29.6165 16.2634 30.1081 15.6844 30.1893 15.1325C30.3499 14.0526 30.237 12.9297 30.237 11.7589ZM32.6297 11.7525C32.6297 12.7 32.6759 13.5757 32.617 14.4434C32.5502 15.4308 32.9893 16.1103 33.7179 16.6829C34.8761 17.5921 36.2013 18.1648 37.5965 18.5715C42.977 20.1379 48.3893 20.1602 53.8079 18.8012C55.4863 18.3801 57.1265 17.7963 58.4629 16.6478C58.9179 16.257 59.4015 15.6748 59.4843 15.1213C59.6449 14.0414 59.532 12.9217 59.532 11.7605C55.3654 14.303 50.8074 14.9762 46.127 14.9762C41.4259 14.9778 36.8456 14.3142 32.6297 11.7525ZM30.2259 18.9304C26.0481 21.4762 21.4711 22.1445 16.7684 22.1397C12.072 22.1349 7.50131 21.4586 3.33312 18.9208C3.33312 19.7662 3.39994 20.5462 3.31881 21.3103C3.17722 22.6167 3.78653 23.4732 4.80472 24.1352C5.15312 24.3617 5.50631 24.5866 5.88017 24.7684C9.02699 26.3109 12.4109 26.7575 15.8568 26.9282C16.4454 26.9569 16.9004 26.8692 17.279 26.3428C17.5495 25.9663 17.9552 25.6713 18.3418 25.3985C20.7902 23.671 23.6045 22.9596 26.5047 22.5241C27.7313 22.3407 28.9738 22.2546 30.2259 22.1222C30.2259 21.0694 30.2259 20.039 30.2259 18.9304ZM59.532 18.9256C55.3511 21.4746 50.7756 22.1461 46.0745 22.1413C41.3781 22.1365 36.8043 21.4618 32.6583 18.9416C32.6583 20.0358 32.6583 21.0806 32.6583 22.1525C32.9177 22.1764 33.1499 22.2035 33.3838 22.2163C35.8259 22.3598 38.2345 22.7108 40.5652 23.4796C42.6174 24.1559 44.5615 25.0221 45.9854 26.7575C46.0761 26.8676 46.294 26.9266 46.4515 26.9234C49.4393 26.874 52.3968 26.5613 55.2095 25.5022C56.3454 25.0747 57.4384 24.4749 58.4518 23.8018C58.9322 23.4828 59.4015 22.8448 59.4827 22.2929C59.6465 21.2114 59.532 20.0884 59.532 18.9256ZM3.33472 26.0684C3.33472 27.0351 3.38085 27.9251 3.32199 28.8072C3.25994 29.7483 3.66563 30.423 4.36244 30.9558C4.80153 31.2924 5.26767 31.605 5.75608 31.8602C8.35562 33.2113 11.1763 33.7121 14.0527 33.9753C14.6731 34.0311 15.2984 34.0503 15.9268 34.087C15.9268 32.4552 15.9268 30.9111 15.9268 29.3336C11.5215 29.0991 7.23085 28.5041 3.33472 26.0684ZM15.9236 36.4956C11.512 36.2675 7.22608 35.6597 3.33472 33.2352C3.33472 34.0854 3.40949 34.8638 3.31881 35.623C3.15653 36.9677 3.81517 37.8163 4.84131 38.491C5.15631 38.6984 5.47767 38.8962 5.81335 39.0668C7.77812 40.0733 9.88767 40.5997 12.0561 40.9012C13.3256 41.0767 14.6063 41.1708 15.9236 41.3063C15.9236 39.657 15.9236 38.113 15.9236 36.4956ZM46.9495 41.2234C47.0704 41.233 47.1483 41.2473 47.2231 41.2441C49.8068 41.1293 52.357 40.7975 54.8261 39.992C56.2086 39.5406 57.5624 38.9998 58.6411 37.9933C59.0261 37.6344 59.4349 37.1113 59.4906 36.6216C59.6179 35.5321 59.5304 34.4156 59.5304 33.2416C55.6422 35.6693 51.3531 36.269 46.9479 36.4956C46.9495 38.0779 46.9495 39.6219 46.9495 41.2234ZM46.9527 34.0646C47.0784 34.071 47.1754 34.0902 47.2677 34.0774C49.2102 33.8238 51.167 33.6435 53.092 33.2862C54.9899 32.9337 56.8163 32.2861 58.3579 31.0643C58.8065 30.7102 59.3538 30.1965 59.4206 29.6989C59.5765 28.5281 59.4699 27.3206 59.4699 26.1099C55.6168 28.5217 51.3181 29.1007 46.9527 29.3352C46.9527 30.9478 46.9527 32.4919 46.9527 34.0646Z" fill="white"/>
<path d="M32.6261 42.4753C32.6134 43.1341 32.0439 43.6732 31.39 43.6445C30.7568 43.6174 30.2429 43.0687 30.2541 42.4339C30.2652 41.7751 30.8348 41.2375 31.4902 41.2647C32.1234 41.2934 32.6373 41.8421 32.6261 42.4753Z" fill="white"/>
</svg>
