<svg width="81" height="106" viewBox="0 0 81 106" fill="none" xmlns="http://www.w3.org/2000/svg">
<path d="M71.3262 105.369C47.8176 105.369 24.3091 105.369 0.800513 105.369C0.789684 105.029 0.773438 104.691 0.773438 104.35C0.773438 70.1464 0.773438 35.9455 0.773438 1.74187C0.773438 1.40122 0.792391 1.0633 0.800513 0.722656C24.3091 0.722656 47.8176 0.722656 71.3262 0.722656C71.9733 0.897067 72.6285 1.04423 73.2674 1.24861C77.8565 2.72838 80.6749 6.81069 80.6749 12.0158C80.6803 34.463 80.6776 56.9103 80.6776 79.3575C80.6776 84.4999 80.7534 89.6451 80.6451 94.7875C80.5504 99.3358 78.2734 102.565 74.2096 104.475C73.308 104.901 72.29 105.078 71.3262 105.369ZM40.7079 66.6391C54.6485 66.6691 66.025 55.2397 66.0792 41.1451C66.1333 27.0233 54.792 15.4985 40.7946 15.4522C26.8134 15.4086 15.3935 26.887 15.3719 41.0062C15.3502 55.1389 26.6889 66.6092 40.7079 66.6391ZM62.0235 73.572C47.7987 73.572 33.6416 73.572 19.4465 73.572C19.4465 75.6131 19.4465 77.5943 19.4465 79.5728C33.6903 79.5728 47.8501 79.5728 62.0235 79.5728C62.0235 77.5398 62.0235 75.5804 62.0235 73.572ZM56.3677 85.7699C45.8899 85.7699 35.4934 85.7699 25.1186 85.7699C25.1186 87.8137 25.1186 89.765 25.1186 91.738C35.5747 91.738 45.9468 91.738 56.3677 91.738C56.3677 89.7295 56.3677 87.7974 56.3677 85.7699Z" fill="#5E7AAA"/>
<path d="M35.0518 44.1699C38.8476 44.1699 42.5432 44.1699 46.4554 44.1699C46.1657 46.2956 45.9464 48.3749 45.5836 50.4324C45.0828 53.2529 44.3193 56.0026 42.8112 58.4744C41.2166 61.0932 40.1986 61.096 38.6174 58.4417C36.7222 55.2587 35.9804 51.6996 35.466 48.0833C35.2873 46.8106 35.1953 45.5243 35.0518 44.1699Z" fill="#5E7AAA"/>
<path d="M46.4723 37.9128C42.579 37.9128 38.8888 37.9128 34.8818 37.9128C35.3881 34.9968 35.7157 32.1327 36.4197 29.3639C36.9422 27.32 37.7788 25.3034 38.7941 23.4503C40.1153 21.0303 41.2145 21.0903 42.6846 23.4067C44.2333 25.8539 45.0157 28.6009 45.5437 31.4105C45.939 33.5116 46.1556 35.6427 46.4723 37.9128Z" fill="#5E7AAA"/>
<path d="M31.5592 58.0493C26.1389 55.0025 22.8494 50.4215 21.6689 44.1836C24.1219 44.1836 26.4882 44.1836 28.9682 44.1836C29.3066 48.8845 29.9753 53.5337 31.5592 58.0493Z" fill="#5E7AAA"/>
<path d="M49.8916 58.0574C51.4457 53.5636 52.1523 48.9498 52.4691 44.189C54.8895 44.189 57.2612 44.189 59.7656 44.189C58.6312 50.3942 55.3335 54.9807 49.8916 58.0574Z" fill="#5E7AAA"/>
<path d="M59.7225 37.9241C57.3074 37.9241 54.9547 37.9241 52.4801 37.9241C52.1471 33.2123 51.4648 28.5686 49.7754 24.0693C54.0342 25.3256 58.8696 32.0786 59.7225 37.9241Z" fill="#5E7AAA"/>
<path d="M21.6748 37.9133C22.8363 31.6999 26.115 27.1216 31.5515 24.0449C30.0272 28.536 29.2745 33.1579 28.9848 37.9133C26.5319 37.9133 24.1548 37.9133 21.6748 37.9133Z" fill="#5E7AAA"/>
</svg>
