<svg width="85" height="109" viewBox="0 0 85 109" fill="none" xmlns="http://www.w3.org/2000/svg">
<path d="M3.36851 0.192383C29.4742 0.192383 55.5799 0.192383 81.6856 0.192383C83.5819 0.884786 84.2245 2.26396 84.2245 4.21451C84.1961 37.4977 84.2046 70.7837 84.2046 104.067C84.2046 106.941 83.0616 108.064 80.1389 108.064C55.0653 108.064 29.9916 108.064 4.91518 108.064C1.98959 108.064 0.849492 106.943 0.849492 104.067C0.849492 70.7837 0.858021 37.4977 0.82959 4.21451C0.82959 2.26115 1.48067 0.8876 3.36851 0.192383ZM32.0671 25.5439C36.818 25.5439 41.5717 25.5439 46.3226 25.5439C46.7121 25.5439 47.1045 25.5467 47.4912 25.5129C49.1061 25.3609 50.3201 24.1084 50.394 22.535C50.4651 21.0151 49.4103 19.6528 47.8693 19.3376C47.4229 19.2447 46.9538 19.2335 46.4961 19.2306C36.8493 19.225 27.2054 19.225 17.5586 19.2306C17.1009 19.2306 16.6317 19.2475 16.1882 19.3404C14.7581 19.6416 13.7744 20.8209 13.709 22.2508C13.6436 23.6609 14.5364 24.981 15.9153 25.375C16.4469 25.527 17.0355 25.5383 17.5984 25.5411C22.4232 25.5495 27.2452 25.5439 32.0671 25.5439ZM31.9818 57.2875C36.9403 57.2875 41.9015 57.2931 46.86 57.2846C48.9383 57.2818 50.3741 56.004 50.3968 54.166C50.4224 52.2858 48.9667 50.9714 46.8315 50.9686C36.9829 50.9658 27.1371 50.9658 17.2885 50.9686C15.1476 50.9686 13.6976 52.2633 13.7062 54.1407C13.7147 56.0152 15.1618 57.2846 17.3169 57.2875C22.2071 57.2931 27.0945 57.2875 31.9818 57.2875ZM32.0899 82.7122C30.0343 82.7122 27.9759 82.7122 25.9203 82.7122C22.9066 82.715 19.89 82.6756 16.8791 82.7347C14.6103 82.7797 13.1574 84.8766 13.8853 86.9116C14.3629 88.2486 15.5514 89.0254 17.226 89.0254C27.1201 89.0338 37.0142 89.031 46.9083 89.0226C47.295 89.0226 47.6902 88.9775 48.0626 88.879C49.5155 88.5019 50.5049 87.1002 50.394 85.6338C50.2803 84.142 49.1231 82.9289 47.6191 82.7544C47.1983 82.7065 46.769 82.7122 46.3454 82.7122C41.5945 82.7093 36.8408 82.7122 32.0899 82.7122ZM32.0671 35.1137C27.2082 35.1137 22.3493 35.1081 17.4904 35.1193C16.9644 35.1193 16.4128 35.1334 15.9153 35.2798C14.4084 35.7273 13.5242 37.1768 13.746 38.7136C13.9763 40.3067 15.2528 41.4016 17.0269 41.4213C19.8274 41.4523 22.6308 41.4297 25.4313 41.4297C32.5249 41.4297 39.6185 41.4241 46.7093 41.4354C48.1707 41.4382 49.3648 40.9935 50.05 39.6368C51.1304 37.4892 49.6036 35.139 47.0647 35.1221C42.0693 35.0912 37.0682 35.1165 32.0671 35.1137ZM31.9989 73.1424C37 73.1424 42.0011 73.1564 46.9993 73.1367C49.0094 73.1283 50.3997 71.8054 50.3968 69.9928C50.394 68.1998 48.9724 66.877 46.9936 66.8263C46.8173 66.8207 46.6382 66.8263 46.4619 66.8263C36.8521 66.8263 27.2395 66.8235 17.6297 66.8319C17.1378 66.8319 16.6289 66.846 16.1541 66.9558C14.2094 67.4089 13.1688 69.4383 13.9677 71.2256C14.5847 72.6019 15.7191 73.1564 17.2089 73.1508C22.1417 73.1339 27.0689 73.1424 31.9989 73.1424ZM61.5732 51.6835C61.1354 51.2106 60.7942 50.8053 60.4104 50.4422C59.0485 49.1475 57.0924 49.1053 55.8301 50.3325C54.5478 51.5765 54.545 53.4933 55.867 54.8556C56.9702 55.9955 58.1046 57.1073 59.2504 58.2078C60.6719 59.573 62.4915 59.6208 63.9017 58.2641C66.1137 56.1363 68.3342 54.0112 70.4097 51.7567C70.984 51.1346 71.2967 50.0707 71.3195 49.201C71.3536 47.9541 70.5291 47.0421 69.335 46.5974C68.0499 46.1189 66.8785 46.4173 65.9118 47.3574C64.4761 48.7506 63.0715 50.1833 61.5732 51.6835ZM61.4879 18.4341C61.1013 17.9612 60.8056 17.5165 60.4303 17.1562C59.0684 15.8418 57.1209 15.7911 55.8528 17.0043C54.5279 18.2708 54.545 20.1933 55.9211 21.6034C56.9304 22.6392 57.9681 23.6468 59.0002 24.6573C60.7459 26.3658 62.4489 26.3827 64.1861 24.6826C66.2047 22.7095 68.2063 20.7252 70.1993 18.7268C71.7289 17.1928 71.8057 15.2958 70.4267 13.9701C69.0791 12.6725 67.1998 12.7738 65.7015 14.2431C64.3481 15.5744 63.0062 16.9226 61.4879 18.4341ZM61.5476 35.0292C61.0956 34.5367 60.7402 34.0948 60.3308 33.712C59.0115 32.482 57.0583 32.482 55.8301 33.6838C54.5763 34.911 54.5393 36.8109 55.8016 38.1282C56.9474 39.3244 58.1302 40.4897 59.3357 41.6268C60.6748 42.8934 62.5001 42.9412 63.8278 41.6718C66.0938 39.5017 68.3569 37.3176 70.4893 35.018C71.0409 34.4241 71.3167 33.3799 71.328 32.5383C71.3451 31.2886 70.5319 30.3823 69.335 29.9376C68.047 29.4562 66.8814 29.763 65.9118 30.7031C64.4704 32.0964 63.063 33.5234 61.5476 35.0292Z" fill="#5E7AAA"/>
</svg>
