<svg width="67" height="52" viewBox="0 0 67 52" fill="none" xmlns="http://www.w3.org/2000/svg">
<path d="M0.833984 18.5931C1.21381 17.8918 1.79562 17.6713 2.58979 17.6764C7.19771 17.704 11.8056 17.6902 16.4135 17.6902C16.6501 17.6902 16.8849 17.6902 17.1162 17.6902C17.774 16.2342 18.4214 14.8006 19.0982 13.305C18.8392 13.305 18.6096 13.305 18.38 13.305C15.4519 13.305 12.5238 13.305 9.59403 13.305C9.42138 13.305 9.24874 13.3119 9.07782 13.2998C8.34062 13.2464 7.81233 12.7002 7.8175 12.0075C7.82268 11.3131 8.35271 10.7548 9.09508 10.7359C10.1068 10.71 11.1185 10.7273 12.1302 10.7273C14.8425 10.7273 17.5565 10.7187 20.2687 10.7359C20.6952 10.7393 20.9679 10.617 21.2407 10.2758C25.6708 4.71546 31.4044 1.30377 38.4846 0.609367C48.7225 -0.395187 56.8817 3.46967 62.7413 11.9093C65.8765 16.4255 67.1558 21.5447 66.9832 27.031C66.6604 37.2299 59.5732 46.774 49.8878 50.0462C39.2718 53.6319 28.1569 50.358 21.2148 41.5841C20.9558 41.2567 20.69 41.1585 20.2912 41.1585C14.3919 41.1706 8.49082 41.1551 2.59152 41.1792C1.79735 41.1827 1.21381 40.9638 0.833984 40.2625C0.833984 40.0041 0.833984 39.7473 0.833984 39.4889C1.21208 38.7893 1.79562 38.5687 2.58979 38.5722C7.86239 38.598 13.135 38.586 18.4059 38.586C18.6286 38.586 18.853 38.586 19.1793 38.586C17.168 35.002 16.0803 31.2663 15.8507 27.2361C15.5952 27.2361 15.3846 27.2361 15.1722 27.2361C13.9033 27.2361 12.6326 27.2361 11.3636 27.2361C10.2415 27.2361 9.63892 26.7915 9.62683 25.9627C9.61475 25.1167 10.2363 24.6583 11.3947 24.6566C12.1906 24.6566 12.9865 24.6566 13.7841 24.6566C14.4644 24.6566 15.1446 24.6566 15.7937 24.6566C16.0009 23.1524 16.1943 21.736 16.3963 20.2714C16.1649 20.2714 15.9301 20.2714 15.6971 20.2714C11.3291 20.2714 6.95946 20.2559 2.59152 20.2852C1.79735 20.2903 1.21553 20.0681 0.835711 19.3685C0.833984 19.1083 0.833984 18.8499 0.833984 18.5931ZM18.4093 25.899C18.38 38.5498 28.699 48.8814 41.3833 48.902C54.033 48.9227 64.359 38.6635 64.416 26.0196C64.4712 13.3756 54.166 3.03029 41.4731 2.98721C28.8026 2.94241 18.4387 13.2378 18.4093 25.899Z" fill="#5E7AAA"/>
<path d="M0.833984 32.5225C1.21208 31.8247 1.79217 31.5903 2.58634 31.6058C4.66845 31.6472 6.75401 31.6179 8.83784 31.6213C9.80811 31.6231 10.4141 32.1434 10.3934 32.9412C10.3727 33.7149 9.78567 34.1973 8.83957 34.199C6.75573 34.2025 4.6719 34.1732 2.58807 34.2146C1.79389 34.2301 1.21381 33.9957 0.835711 33.2979C0.833984 33.0377 0.833984 32.781 0.833984 32.5225Z" fill="#5E7AAA"/>
<path d="M41.354 45.9298C30.3012 45.8832 21.3237 36.8492 21.391 25.837C21.4566 14.8351 30.4998 5.89752 41.5042 5.96128C52.5363 6.02331 61.4897 15.0333 61.4379 26.0196C61.3844 37.0232 52.355 45.9746 41.354 45.9298ZM23.9738 25.918C23.9582 35.4914 31.7756 43.3228 41.3696 43.3503C50.9583 43.3762 58.8154 35.5775 58.8517 26.0024C58.8862 16.4066 51.0412 8.54589 41.4214 8.54072C31.8274 8.53383 23.9876 16.3428 23.9738 25.918Z" fill="#5E7AAA"/>
<path d="M48.7824 27.2344C47.2528 27.2344 45.7248 27.2172 44.1952 27.2516C43.9241 27.2568 43.584 27.4101 43.3993 27.6083C42.6189 28.4457 41.4985 28.7507 40.4591 28.3406C39.4285 27.934 38.7465 26.9242 38.8484 25.8008C38.8881 25.3528 38.7448 25.084 38.4461 24.8014C37.8522 24.2414 37.279 23.6556 36.7076 23.0732C36.048 22.4012 35.9945 21.6327 36.5574 21.083C37.1167 20.5351 37.8695 20.5988 38.5531 21.2657C39.1695 21.867 39.7565 22.4977 40.3935 23.0749C40.5835 23.2472 40.9046 23.3661 41.1618 23.3609C42.0613 23.3402 42.7864 23.6435 43.4097 24.2914C43.5996 24.4878 43.938 24.6377 44.209 24.6412C47.289 24.6653 50.369 24.6377 53.4473 24.6791C53.8685 24.6842 54.4141 24.8962 54.6679 25.2046C54.8975 25.4837 54.9251 26.0541 54.8302 26.4435C54.6972 26.9897 54.1983 27.2309 53.6286 27.2327C52.0126 27.2361 50.3984 27.2327 48.7824 27.2344Z" fill="#5E7AAA"/>
<path d="M42.7001 13.6944C42.7001 14.4078 42.0976 14.9953 41.3828 14.9798C40.6923 14.9643 40.1277 14.3871 40.126 13.6996C40.1243 12.9931 40.7389 12.3918 41.4433 12.4107C42.1304 12.4297 42.6984 13.0103 42.7001 13.6944Z" fill="#5E7AAA"/>
<path d="M41.414 39.4785C40.7062 39.4803 40.1071 38.8686 40.1244 38.1621C40.1399 37.4729 40.7166 36.9112 41.4089 36.9094C42.1012 36.9077 42.6795 37.4677 42.6985 38.1569C42.7193 38.8634 42.1236 39.4768 41.414 39.4785Z" fill="#5E7AAA"/>
<path d="M29.1667 24.66C29.8815 24.6738 30.4581 25.2872 30.427 26.0006C30.3959 26.6881 29.8055 27.2429 29.1184 27.2291C28.4105 27.2154 27.8201 26.5899 27.8529 25.8886C27.8857 25.2045 28.483 24.6463 29.1667 24.66Z" fill="#5E7AAA"/>
</svg>
