<svg width="32" height="24" viewBox="0 0 32 24" fill="none" xmlns="http://www.w3.org/2000/svg">
<path d="M31.7324 3.45911C31.5796 4.22803 31.1053 4.78269 30.573 5.31911C25.0136 10.9181 19.461 16.5255 13.9091 22.132C13.16 22.8888 12.2881 23.2193 11.2627 22.8561C10.8893 22.7239 10.5196 22.4838 10.2372 22.2012C7.39732 19.3626 4.5717 16.5087 1.75136 13.6496C0.611472 12.4939 0.707843 10.8353 1.94636 9.8597C2.91307 9.09837 4.27506 9.23666 5.23802 10.2062C7.41539 12.3982 9.589 14.594 11.7619 16.7914C11.8454 16.8765 11.9011 16.9897 12.0193 17.1622C12.1473 16.9859 12.2015 16.8864 12.2783 16.8089C17.328 11.7098 22.3799 6.61305 27.4296 1.51401C28.1622 0.77472 29.0115 0.463961 30.0256 0.784598C30.911 1.06497 31.4403 1.69484 31.6722 2.59217C31.6895 2.65903 31.7128 2.72438 31.7332 2.79048C31.7324 3.01462 31.7324 3.23725 31.7324 3.45911Z" fill="#5E7AAA"/>
</svg>
