<svg width="137" height="120" viewBox="0 0 137 120" fill="none" xmlns="http://www.w3.org/2000/svg">
<path fill-rule="evenodd" clip-rule="evenodd" d="M52.6846 7.32932C52.6846 3.40964 56.0283 0.232422 60.1529 0.232422C64.2776 0.232422 67.6213 3.40964 67.6213 7.32932C67.6213 11.249 64.2776 14.4267 60.1529 14.4267C56.0283 14.4267 52.6846 11.249 52.6846 7.32932Z" fill="#F62A81"/>
<path fill-rule="evenodd" clip-rule="evenodd" d="M35.9092 7.32932C35.9092 3.40964 39.2529 0.232422 43.3775 0.232422C47.5022 0.232422 50.8459 3.40964 50.8459 7.32932C50.8459 11.249 47.5022 14.4267 43.3775 14.4267C39.2529 14.4267 35.9092 11.249 35.9092 7.32932Z" fill="#00B0F0"/>
<path fill-rule="evenodd" clip-rule="evenodd" d="M17.9844 7.32932C17.9844 3.40964 21.3281 0.232422 25.4527 0.232422C29.5774 0.232422 32.9211 3.40964 32.9211 7.32932C32.9211 11.249 29.5774 14.4267 25.4527 14.4267C21.3281 14.4267 17.9844 11.249 17.9844 7.32932Z" fill="#92D050"/>
<path fill-rule="evenodd" clip-rule="evenodd" d="M0.980469 6.98102C0.980469 3.12559 4.42687 0 8.67866 0C12.9304 0 16.3768 3.12559 16.3768 6.98102C16.3768 10.8364 12.93 13.9616 8.67866 13.9616C4.42733 13.9616 0.980469 10.8364 0.980469 6.98102Z" fill="#FF9966"/>
<path fill-rule="evenodd" clip-rule="evenodd" d="M121.452 7.32932C121.452 3.40964 124.796 0.232422 128.92 0.232422C133.045 0.232422 136.389 3.40964 136.389 7.32932C136.389 11.249 133.045 14.4267 128.92 14.4267C124.796 14.4267 121.452 11.249 121.452 7.32932Z" fill="#F62A81"/>
<path fill-rule="evenodd" clip-rule="evenodd" d="M104.677 7.32932C104.677 3.40964 108.02 0.232422 112.145 0.232422C116.27 0.232422 119.613 3.40964 119.613 7.32932C119.613 11.249 116.27 14.4267 112.145 14.4267C108.02 14.4267 104.677 11.249 104.677 7.32932Z" fill="#00B0F0"/>
<path fill-rule="evenodd" clip-rule="evenodd" d="M86.752 7.32932C86.752 3.40964 90.0956 0.232422 94.2203 0.232422C98.3449 0.232422 101.689 3.40964 101.689 7.32932C101.689 11.249 98.3449 14.4267 94.2203 14.4267C90.0956 14.4267 86.752 11.249 86.752 7.32932Z" fill="#92D050"/>
<path fill-rule="evenodd" clip-rule="evenodd" d="M69.748 6.98102C69.748 3.12559 73.1945 0 77.4462 0C81.698 0 85.1444 3.12559 85.1444 6.98102C85.1444 10.8364 81.6976 13.9616 77.4462 13.9616C73.1949 13.9616 69.748 10.8364 69.748 6.98102Z" fill="#FF9966"/>
<path fill-rule="evenodd" clip-rule="evenodd" d="M52.6846 33.5598C52.6846 29.6401 56.0283 26.4629 60.1529 26.4629C64.2776 26.4629 67.6213 29.6401 67.6213 33.5598C67.6213 37.4795 64.2776 40.6571 60.1529 40.6571C56.0283 40.6571 52.6846 37.4795 52.6846 33.5598Z" fill="#F62A81"/>
<path fill-rule="evenodd" clip-rule="evenodd" d="M35.9092 33.5598C35.9092 29.6401 39.2529 26.4629 43.3775 26.4629C47.5022 26.4629 50.8459 29.6401 50.8459 33.5598C50.8459 37.4795 47.5022 40.6571 43.3775 40.6571C39.2529 40.6571 35.9092 37.4795 35.9092 33.5598Z" fill="#00B0F0"/>
<path fill-rule="evenodd" clip-rule="evenodd" d="M17.9844 33.5598C17.9844 29.6401 21.3281 26.4629 25.4527 26.4629C29.5774 26.4629 32.9211 29.6401 32.9211 33.5598C32.9211 37.4795 29.5774 40.6571 25.4527 40.6571C21.3281 40.6571 17.9844 37.4795 17.9844 33.5598Z" fill="#92D050"/>
<path fill-rule="evenodd" clip-rule="evenodd" d="M0.980469 33.2115C0.980469 29.3561 4.42687 26.2305 8.67866 26.2305C12.9304 26.2305 16.3768 29.3561 16.3768 33.2115C16.3768 37.0669 12.93 40.1921 8.67866 40.1921C4.42733 40.1921 0.980469 37.0669 0.980469 33.2115Z" fill="#FF9966"/>
<path fill-rule="evenodd" clip-rule="evenodd" d="M121.452 33.5598C121.452 29.6401 124.796 26.4629 128.92 26.4629C133.045 26.4629 136.389 29.6401 136.389 33.5598C136.389 37.4795 133.045 40.6571 128.92 40.6571C124.796 40.6571 121.452 37.4795 121.452 33.5598Z" fill="#F62A81"/>
<path fill-rule="evenodd" clip-rule="evenodd" d="M104.677 33.5598C104.677 29.6401 108.02 26.4629 112.145 26.4629C116.27 26.4629 119.613 29.6401 119.613 33.5598C119.613 37.4795 116.27 40.6571 112.145 40.6571C108.02 40.6571 104.677 37.4795 104.677 33.5598Z" fill="#00B0F0"/>
<path fill-rule="evenodd" clip-rule="evenodd" d="M86.752 33.5598C86.752 29.6401 90.0956 26.4629 94.2203 26.4629C98.3449 26.4629 101.689 29.6401 101.689 33.5598C101.689 37.4795 98.3449 40.6571 94.2203 40.6571C90.0956 40.6571 86.752 37.4795 86.752 33.5598Z" fill="#92D050"/>
<path fill-rule="evenodd" clip-rule="evenodd" d="M69.748 33.2115C69.748 29.3561 73.1945 26.2305 77.4462 26.2305C81.698 26.2305 85.1444 29.3561 85.1444 33.2115C85.1444 37.0669 81.6976 40.1921 77.4462 40.1921C73.1949 40.1921 69.748 37.0669 69.748 33.2115Z" fill="#FF9966"/>
<path fill-rule="evenodd" clip-rule="evenodd" d="M52.6846 59.7912C52.6846 55.8716 56.0283 52.6943 60.1529 52.6943C64.2776 52.6943 67.6213 55.8716 67.6213 59.7912C67.6213 63.7109 64.2776 66.8886 60.1529 66.8886C56.0283 66.8886 52.6846 63.7109 52.6846 59.7912Z" fill="#F62A81"/>
<path fill-rule="evenodd" clip-rule="evenodd" d="M35.9092 59.7912C35.9092 55.8716 39.2529 52.6943 43.3775 52.6943C47.5022 52.6943 50.8459 55.8716 50.8459 59.7912C50.8459 63.7109 47.5022 66.8886 43.3775 66.8886C39.2529 66.8886 35.9092 63.7109 35.9092 59.7912Z" fill="#00B0F0"/>
<path fill-rule="evenodd" clip-rule="evenodd" d="M17.9844 59.7912C17.9844 55.8716 21.3281 52.6943 25.4527 52.6943C29.5774 52.6943 32.9211 55.8716 32.9211 59.7912C32.9211 63.7109 29.5774 66.8886 25.4527 66.8886C21.3281 66.8886 17.9844 63.7109 17.9844 59.7912Z" fill="#92D050"/>
<path fill-rule="evenodd" clip-rule="evenodd" d="M0.980469 59.4429C0.980469 55.5875 4.42687 52.4619 8.67866 52.4619C12.9304 52.4619 16.3768 55.5875 16.3768 59.4429C16.3768 63.2984 12.93 66.4235 8.67866 66.4235C4.42733 66.4235 0.980469 63.2984 0.980469 59.4429Z" fill="#FF9966"/>
<path fill-rule="evenodd" clip-rule="evenodd" d="M121.452 59.7912C121.452 55.8716 124.796 52.6943 128.92 52.6943C133.045 52.6943 136.389 55.8716 136.389 59.7912C136.389 63.7109 133.045 66.8886 128.92 66.8886C124.796 66.8886 121.452 63.7109 121.452 59.7912Z" fill="#F62A81"/>
<path fill-rule="evenodd" clip-rule="evenodd" d="M104.677 59.7912C104.677 55.8716 108.02 52.6943 112.145 52.6943C116.27 52.6943 119.613 55.8716 119.613 59.7912C119.613 63.7109 116.27 66.8886 112.145 66.8886C108.02 66.8886 104.677 63.7109 104.677 59.7912Z" fill="#00B0F0"/>
<path fill-rule="evenodd" clip-rule="evenodd" d="M86.752 59.7912C86.752 55.8716 90.0956 52.6943 94.2203 52.6943C98.3449 52.6943 101.689 55.8716 101.689 59.7912C101.689 63.7109 98.3449 66.8886 94.2203 66.8886C90.0956 66.8886 86.752 63.7109 86.752 59.7912Z" fill="#92D050"/>
<path fill-rule="evenodd" clip-rule="evenodd" d="M69.748 59.4429C69.748 55.5875 73.1945 52.4619 77.4462 52.4619C81.698 52.4619 85.1444 55.5875 85.1444 59.4429C85.1444 63.2984 81.6976 66.4235 77.4462 66.4235C73.1949 66.4235 69.748 63.2984 69.748 59.4429Z" fill="#FF9966"/>
<path fill-rule="evenodd" clip-rule="evenodd" d="M52.6846 86.0217C52.6846 82.102 56.0283 78.9248 60.1529 78.9248C64.2776 78.9248 67.6213 82.102 67.6213 86.0217C67.6213 89.9414 64.2776 93.119 60.1529 93.119C56.0283 93.119 52.6846 89.9414 52.6846 86.0217Z" fill="#F62A81"/>
<path fill-rule="evenodd" clip-rule="evenodd" d="M35.9092 86.0217C35.9092 82.102 39.2529 78.9248 43.3775 78.9248C47.5022 78.9248 50.8459 82.102 50.8459 86.0217C50.8459 89.9414 47.5022 93.119 43.3775 93.119C39.2529 93.119 35.9092 89.9414 35.9092 86.0217Z" fill="#00B0F0"/>
<path fill-rule="evenodd" clip-rule="evenodd" d="M17.9844 86.0217C17.9844 82.102 21.3281 78.9248 25.4527 78.9248C29.5774 78.9248 32.9211 82.102 32.9211 86.0217C32.9211 89.9414 29.5774 93.119 25.4527 93.119C21.3281 93.119 17.9844 89.9414 17.9844 86.0217Z" fill="#92D050"/>
<path fill-rule="evenodd" clip-rule="evenodd" d="M0.980469 85.6734C0.980469 81.818 4.42687 78.6924 8.67866 78.6924C12.9304 78.6924 16.3768 81.818 16.3768 85.6734C16.3768 89.5288 12.93 92.654 8.67866 92.654C4.42733 92.654 0.980469 89.5288 0.980469 85.6734Z" fill="#FF9966"/>
<path fill-rule="evenodd" clip-rule="evenodd" d="M121.452 86.0217C121.452 82.102 124.796 78.9248 128.92 78.9248C133.045 78.9248 136.389 82.102 136.389 86.0217C136.389 89.9414 133.045 93.119 128.92 93.119C124.796 93.119 121.452 89.9414 121.452 86.0217Z" fill="#F62A81"/>
<path fill-rule="evenodd" clip-rule="evenodd" d="M104.677 86.0217C104.677 82.102 108.02 78.9248 112.145 78.9248C116.27 78.9248 119.613 82.102 119.613 86.0217C119.613 89.9414 116.27 93.119 112.145 93.119C108.02 93.119 104.677 89.9414 104.677 86.0217Z" fill="#00B0F0"/>
<path fill-rule="evenodd" clip-rule="evenodd" d="M86.752 86.0217C86.752 82.102 90.0956 78.9248 94.2203 78.9248C98.3449 78.9248 101.689 82.102 101.689 86.0217C101.689 89.9414 98.3449 93.119 94.2203 93.119C90.0956 93.119 86.752 89.9414 86.752 86.0217Z" fill="#92D050"/>
<path fill-rule="evenodd" clip-rule="evenodd" d="M69.748 85.6734C69.748 81.818 73.1945 78.6924 77.4462 78.6924C81.698 78.6924 85.1444 81.818 85.1444 85.6734C85.1444 89.5288 81.6976 92.654 77.4462 92.654C73.1949 92.654 69.748 89.5288 69.748 85.6734Z" fill="#FF9966"/>
<path fill-rule="evenodd" clip-rule="evenodd" d="M52.6846 112.252C52.6846 108.332 56.0283 105.155 60.1529 105.155C64.2776 105.155 67.6213 108.332 67.6213 112.252C67.6213 116.172 64.2776 119.35 60.1529 119.35C56.0283 119.35 52.6846 116.172 52.6846 112.252Z" fill="#F62A81"/>
<path fill-rule="evenodd" clip-rule="evenodd" d="M35.9092 112.252C35.9092 108.332 39.2529 105.155 43.3775 105.155C47.5022 105.155 50.8459 108.332 50.8459 112.252C50.8459 116.172 47.5022 119.35 43.3775 119.35C39.2529 119.35 35.9092 116.172 35.9092 112.252Z" fill="#00B0F0"/>
<path fill-rule="evenodd" clip-rule="evenodd" d="M17.9844 112.252C17.9844 108.332 21.3281 105.155 25.4527 105.155C29.5774 105.155 32.9211 108.332 32.9211 112.252C32.9211 116.172 29.5774 119.35 25.4527 119.35C21.3281 119.35 17.9844 116.172 17.9844 112.252Z" fill="#92D050"/>
<path fill-rule="evenodd" clip-rule="evenodd" d="M0.980469 111.904C0.980469 108.048 4.42687 104.923 8.67866 104.923C12.9304 104.923 16.3768 108.048 16.3768 111.904C16.3768 115.759 12.93 118.884 8.67866 118.884C4.42733 118.884 0.980469 115.759 0.980469 111.904Z" fill="#FF9966"/>
<path fill-rule="evenodd" clip-rule="evenodd" d="M121.452 112.252C121.452 108.332 124.796 105.155 128.92 105.155C133.045 105.155 136.389 108.332 136.389 112.252C136.389 116.172 133.045 119.35 128.92 119.35C124.796 119.35 121.452 116.172 121.452 112.252Z" fill="#F62A81"/>
<path fill-rule="evenodd" clip-rule="evenodd" d="M104.677 112.252C104.677 108.332 108.02 105.155 112.145 105.155C116.27 105.155 119.613 108.332 119.613 112.252C119.613 116.172 116.27 119.35 112.145 119.35C108.02 119.35 104.677 116.172 104.677 112.252Z" fill="#00B0F0"/>
<path fill-rule="evenodd" clip-rule="evenodd" d="M86.752 112.252C86.752 108.332 90.0956 105.155 94.2203 105.155C98.3449 105.155 101.689 108.332 101.689 112.252C101.689 116.172 98.3449 119.35 94.2203 119.35C90.0956 119.35 86.752 116.172 86.752 112.252Z" fill="#92D050"/>
<path fill-rule="evenodd" clip-rule="evenodd" d="M69.748 111.904C69.748 108.048 73.1945 104.923 77.4462 104.923C81.698 104.923 85.1444 108.048 85.1444 111.904C85.1444 115.759 81.6976 118.884 77.4462 118.884C73.1949 118.884 69.748 115.759 69.748 111.904Z" fill="#FF9966"/>
</svg>
