<svg width="112" height="86" viewBox="0 0 112 86" fill="none" xmlns="http://www.w3.org/2000/svg">
<path d="M56.0918 39.7018C56.0918 39.7018 82.7625 -8.68898 102.129 4.20532C119.38 15.6907 106.605 61.3321 80.8155 54.0064C77.0454 52.9347 78.4724 47.2356 82.2985 48.0832C88.3447 49.424 93.5748 54.5875 88.6766 70.4447C79.3764 100.539 56.7648 73.0843 56.0918 60.0889" stroke="#1D1D1B" stroke-width="3" stroke-linecap="round" stroke-linejoin="round"/>
<path d="M56.0867 39.7018C56.0867 39.7018 29.416 -8.68898 10.0495 4.20532C-7.20198 15.6907 5.57335 61.3321 31.363 54.0064C35.1331 52.9347 33.7062 47.2356 29.8801 48.0832C23.8339 49.424 18.6037 54.5875 23.5019 70.4447C32.8021 100.539 55.4137 73.0843 56.0867 60.0889" stroke="#1D1D1B" stroke-width="3" stroke-linecap="round" stroke-linejoin="round"/>
<path d="M96.0309 45.8572C95.2121 46.6983 94.3539 47.5004 93.4595 48.2601C97.7263 38.4485 99.0291 31.4826 98.4779 26.562C97.8869 21.2865 95.1659 18.3857 91.7906 16.9118C88.4576 15.4564 84.5249 15.406 81.4672 15.7015C80.2897 15.8153 79.2325 15.9814 78.3761 16.143C78.4635 16.0554 78.5495 15.9683 78.6329 15.8839C78.7044 15.8115 78.7739 15.741 78.8406 15.6741C79.0739 15.4398 79.2718 15.2483 79.4333 15.1173C80.47 14.2781 81.5243 13.4615 82.6082 12.6919L82.6083 12.6919L82.6137 12.688C84.7163 11.1523 86.9819 9.85386 89.3694 8.81571C91.4527 7.94167 93.9307 7.24145 96.3137 7.1975C98.6879 7.15371 100.926 7.76001 102.617 9.44795C103.967 10.9782 104.876 12.8461 105.249 14.8531L105.251 14.867L105.255 14.8808C106.926 21.7066 106.271 28.8958 103.393 35.3062C101.563 39.2189 99.074 42.7867 96.0341 45.8539L96.0309 45.8572Z" fill="#F62A81" stroke="#1D1D1B"/>
<path d="M41.4012 76.6272L41.4003 76.6278C38.0318 78.1932 35.4742 77.8842 33.496 76.632C31.4736 75.3517 29.9742 73.0342 28.8781 70.4365C27.8117 67.9094 27.1528 65.1796 26.7579 63.0397C29.3727 68.7341 32.1193 71.9033 34.8741 73.3012C38.2171 74.9974 41.4329 74.0255 44.1495 72.0926C46.8562 70.1668 49.1486 67.2388 50.7541 64.8216C51.0151 64.4285 51.2587 64.0479 51.4836 63.6861C50.2141 67.4433 48.1333 70.3871 46.1818 72.5172C44.9175 73.8973 43.711 74.9319 42.8224 75.6203C42.3783 75.9643 42.0142 76.2214 41.7627 76.3915C41.6369 76.4766 41.5394 76.5399 41.4742 76.5813C41.4416 76.6021 41.4171 76.6174 41.4012 76.6272Z" fill="#F62A81" stroke="#1D1D1B"/>
</svg>
