<svg width="117" height="89" viewBox="0 0 117 89" fill="none" xmlns="http://www.w3.org/2000/svg">
<path d="M1.6543 69.8408C1.6543 38.5917 26.9867 13.2593 58.2358 13.2593C89.4849 13.2593 114.817 38.5917 114.817 69.8408V75.075C114.817 81.4263 109.669 86.575 103.317 86.575H13.1543C6.80302 86.575 1.6543 81.4263 1.6543 75.075V69.8408Z" stroke="#1D1D1B" stroke-width="3"/>
<mask id="path-2-inside-1_176_870" fill="white">
<path fill-rule="evenodd" clip-rule="evenodd" d="M57.6491 16.1247C55.6095 18.4697 52.426 19.9781 48.8491 19.9781C42.6928 19.9781 37.7021 15.51 37.7021 9.99831C37.7021 4.48664 42.6928 0.0185547 48.8491 0.0185547C52.426 0.0185547 55.6095 1.52691 57.6491 3.87192C59.6888 1.52691 62.8722 0.0185547 66.4492 0.0185547C72.6055 0.0185547 77.5961 4.48664 77.5961 9.99831C77.5961 15.51 72.6055 19.9781 66.4492 19.9781C62.8722 19.9781 59.6888 18.4697 57.6491 16.1247Z"/>
</mask>
<path fill-rule="evenodd" clip-rule="evenodd" d="M57.6491 16.1247C55.6095 18.4697 52.426 19.9781 48.8491 19.9781C42.6928 19.9781 37.7021 15.51 37.7021 9.99831C37.7021 4.48664 42.6928 0.0185547 48.8491 0.0185547C52.426 0.0185547 55.6095 1.52691 57.6491 3.87192C59.6888 1.52691 62.8722 0.0185547 66.4492 0.0185547C72.6055 0.0185547 77.5961 4.48664 77.5961 9.99831C77.5961 15.51 72.6055 19.9781 66.4492 19.9781C62.8722 19.9781 59.6888 18.4697 57.6491 16.1247Z" fill="white"/>
<path d="M57.6491 16.1247L59.9127 14.1559L57.6491 11.5535L55.3856 14.1559L57.6491 16.1247ZM57.6491 3.87192L55.3856 5.84075L57.6491 8.44315L59.9127 5.84075L57.6491 3.87192ZM55.3856 14.1559C53.935 15.8236 51.5877 16.9781 48.8491 16.9781V22.9781C53.2643 22.9781 57.2839 21.1158 59.9127 18.0935L55.3856 14.1559ZM48.8491 16.9781C44.029 16.9781 40.7021 13.5497 40.7021 9.99831H34.7021C34.7021 17.4703 41.3566 22.9781 48.8491 22.9781V16.9781ZM40.7021 9.99831C40.7021 6.44694 44.029 3.01855 48.8491 3.01855V-2.98145C41.3566 -2.98145 34.7021 2.52635 34.7021 9.99831H40.7021ZM48.8491 3.01855C51.5877 3.01855 53.935 4.17302 55.3856 5.84075L59.9127 1.90308C57.2839 -1.11921 53.2643 -2.98145 48.8491 -2.98145V3.01855ZM59.9127 5.84075C61.3633 4.17302 63.7105 3.01855 66.4492 3.01855V-2.98145C62.034 -2.98145 58.0144 -1.11921 55.3856 1.90308L59.9127 5.84075ZM66.4492 3.01855C71.2693 3.01855 74.5961 6.44694 74.5961 9.99831H80.5961C80.5961 2.52635 73.9417 -2.98145 66.4492 -2.98145V3.01855ZM74.5961 9.99831C74.5961 13.5497 71.2693 16.9781 66.4492 16.9781V22.9781C73.9417 22.9781 80.5961 17.4703 80.5961 9.99831H74.5961ZM66.4492 16.9781C63.7105 16.9781 61.3633 15.8236 59.9127 14.1559L55.3856 18.0935C58.0144 21.1158 62.034 22.9781 66.4492 22.9781V16.9781Z" fill="#1D1D1B" mask="url(#path-2-inside-1_176_870)"/>
<path d="M72.5749 55.2009C72.5749 63.4514 65.8909 70.1382 57.6478 70.1382C49.4047 70.1382 42.7207 63.4514 42.7207 55.2009C42.7207 46.9504 49.4047 40.2637 57.6478 40.2637C65.8909 40.2637 72.5749 46.9504 72.5749 55.2009Z" stroke="#1B1B1D" stroke-width="3"/>
<ellipse cx="47.1544" cy="10.0242" rx="5.00013" ry="5.00322" fill="#FF9966"/>
<ellipse cx="68.1544" cy="10.0242" rx="5.00013" ry="5.00322" fill="#FF9966"/>
<ellipse cx="58.1546" cy="55.0533" rx="10.0003" ry="10.0064" fill="#FF9966"/>
<path d="M56.7821 47.0483V64.0726M49.1553 55.267H64.409" stroke="#1B1B1D" stroke-width="3" stroke-linecap="round"/>
<rect x="9.15332" y="76.0674" width="97.0026" height="7.00451" rx="3.50225" fill="#92D050"/>
</svg>
