<svg width="107" height="89" viewBox="0 0 107 89" fill="none" xmlns="http://www.w3.org/2000/svg">
<path d="M72.1576 44.6558H17.7862C13.7853 44.6558 10.542 47.9011 10.542 51.9044V52.1996C10.542 56.2029 13.7853 59.4483 17.7862 59.4483H72.1576C76.1585 59.4483 79.4018 56.2029 79.4018 52.1996V51.9044C79.4018 47.9011 76.1585 44.6558 72.1576 44.6558Z" stroke="black" stroke-width="3" stroke-miterlimit="10"/>
<path d="M89.9654 6.29702L65.5957 48.5325C63.5953 51.9995 64.7824 56.4327 68.2473 58.4344L68.5028 58.582C71.9676 60.5836 76.3981 59.3958 78.3985 55.9288L102.768 13.6933C104.769 10.2263 103.581 5.79307 100.117 3.79141L99.8611 3.64382C96.3963 1.64215 91.9658 2.83003 89.9654 6.29702Z" stroke="black" stroke-width="3" stroke-miterlimit="10"/>
<path d="M47.1117 79.2349V59.4482H42.5557V79.2041" stroke="black" stroke-width="3" stroke-miterlimit="10"/>
<path d="M14.6004 58.6526L7.81828 73.8513H1.66016" stroke="black" stroke-width="3" stroke-linecap="round" stroke-linejoin="round"/>
<path d="M36.2178 87.4757C36.2178 85.2044 37.1195 83.0261 38.7246 81.4201C40.3296 79.814 42.5066 78.9121 44.7765 78.9121C47.0464 78.9121 49.2233 79.814 50.8284 81.4201C52.4335 83.0261 53.3352 85.2044 53.3352 87.4757" stroke="black" stroke-width="3" stroke-miterlimit="10" stroke-linecap="round"/>
<path d="M53.3352 87.4766H36.2178" stroke="black" stroke-width="3" stroke-miterlimit="10"/>
<path d="M91.1293 26.5649C96.9798 16.4253 100.205 7.32854 98.332 6.24675C96.4595 5.16495 90.1987 12.5078 84.3482 22.6474C78.4977 32.787 75.2729 41.8838 77.1455 42.9656C79.018 44.0474 85.2788 36.7046 91.1293 26.5649Z" fill="#FF9933"/>
<path d="M38.1676 55.2463C51.4454 55.2463 62.2093 53.5502 62.2093 51.4579C62.2093 49.3656 51.4454 47.6694 38.1676 47.6694C24.8898 47.6694 14.126 49.3656 14.126 51.4579C14.126 53.5502 24.8898 55.2463 38.1676 55.2463Z" fill="#FF9933"/>
<path d="M72.5141 55.168C74.065 55.168 75.3222 53.91 75.3222 52.3581C75.3222 50.8063 74.065 49.5483 72.5141 49.5483C70.9633 49.5483 69.7061 50.8063 69.7061 52.3581C69.7061 53.91 70.9633 55.168 72.5141 55.168Z" fill="#FF9933"/>
</svg>
