<svg width="105" height="87" viewBox="0 0 105 87" fill="none" xmlns="http://www.w3.org/2000/svg">
<path d="M56.1256 63.7827C53.2622 45.2058 74.3665 18.5012 88.4229 4.15599C90.7379 1.79343 94.5145 1.85886 96.8534 4.19775C99.5181 6.86244 99.1413 11.2689 96.28 13.7213C86.0658 22.4756 81.0745 31.2118 78.9683 38.3335C76.775 45.7498 84.0607 50.2384 91.5317 52.2375C110.071 57.1983 105.42 79.2777 93.8981 83.902C83.9793 87.8831 60.0879 89.4891 56.1256 63.7827Z" fill="#1D1D1B"/>
<path d="M0.263289 63.7827C-2.60008 45.2058 18.5042 18.5012 32.5606 4.15599C34.8756 1.79343 38.6522 1.85886 40.9911 4.19775C43.6558 6.86244 43.279 11.2689 40.4177 13.7213C30.2035 22.4756 25.2122 31.2118 23.106 38.3335C20.9127 45.7498 28.1984 50.2384 35.6694 52.2375C54.2087 57.1983 49.5574 79.2777 38.0358 83.902C28.117 87.8831 4.22555 89.4891 0.263289 63.7827Z" fill="#1D1D1B"/>
</svg>
