<svg width="128" height="128" viewBox="0 0 128 128" fill="none" xmlns="http://www.w3.org/2000/svg">
<path d="M127.235 63.5892C127.243 66.16 127.084 68.7285 126.762 71.279C126.532 73.2477 126.196 75.2028 125.756 77.1353C124.564 82.6304 122.643 87.9418 120.045 92.929C114.752 103.109 106.802 111.667 97.0365 117.696C87.2714 123.724 76.056 126.999 64.5798 127.171C53.1036 127.344 41.7944 124.409 31.8521 118.677C21.9097 112.945 13.7048 104.631 8.10752 94.6149C7.05502 92.7868 6.10667 90.9008 5.26695 88.9659C3.73849 85.4668 2.53988 81.8327 1.68663 78.1112V78.0817C1.19238 76.0647 0.816922 74.0204 0.56221 71.9594C0.355082 70.451 0.207153 68.913 0.118384 67.3751C0.0296149 66.1329 0 64.861 0 63.5892C0 62.4357 0.029586 61.3119 0.0887652 60.1584C0.316697 55.7477 1.02105 51.3744 2.1896 47.1151C2.98369 44.0821 4.01259 41.1156 5.26695 38.2421C9.75598 27.9114 16.9105 18.9585 25.9983 12.2995C35.086 5.64055 45.7808 1.51464 56.9878 0.344187C68.1948 -0.826268 79.5117 1.00073 89.7803 5.63813C100.049 10.2755 108.901 17.5568 115.429 26.7368C116.593 28.3273 117.661 29.9865 118.625 31.7057C123.24 39.6833 126.086 48.5598 126.969 57.7331C127.147 59.6556 127.235 61.6076 127.235 63.5892Z" fill="#DEC2B5"/>
<path d="M118.625 31.7056C106.08 36.141 92.6374 37.4309 79.4775 35.4619C35.1523 29.3987 11.954 40.2533 2.18945 47.1151C2.98354 44.0821 4.01244 41.1155 5.2668 38.2421C18.2566 31.2916 41.6916 24.3412 80.3061 29.6058C92.0785 31.3671 104.099 30.3851 115.429 26.7368C116.593 28.3273 117.66 29.9865 118.625 31.7056Z" fill="#B79585"/>
<path d="M126.969 57.7333C52.1369 40.3127 14.2622 57.7037 0.118384 67.3752C0.0296149 66.133 0 64.8611 0 63.5893C0 62.4359 0.029586 61.312 0.0887652 60.1585C17.162 49.5997 55.3918 35.4326 126.052 51.4631C126.465 53.536 126.771 55.6288 126.969 57.7333Z" fill="#B79585"/>
<path d="M126.761 71.2789C126.532 73.2476 126.196 75.2026 125.755 77.1351C119.097 76.2478 111.878 75.1731 104.096 73.9112C40.182 63.4707 12.1607 72.4621 1.68594 78.0816C1.1917 76.0645 0.816235 74.0202 0.561523 71.9592C13.4626 65.6595 43.0818 57.9695 105.042 68.0551C112.884 69.3269 120.104 70.3916 126.761 71.2789Z" fill="#B79585"/>
<path d="M122.678 87.1912C121.909 89.1518 121.03 91.0675 120.045 92.929C82.7462 90.5373 45.3167 91.101 8.10718 94.6149C7.05468 92.7868 6.10633 90.9009 5.2666 88.9659C44.2875 85.1327 83.5591 84.539 122.678 87.1912Z" fill="#B79585"/>
</svg>
