<svg width="128" height="128" viewBox="0 0 128 128" fill="none" xmlns="http://www.w3.org/2000/svg">
<path d="M63.6626 127.562C98.7976 127.562 127.28 99.0917 127.28 63.9722C127.28 28.8528 98.7976 0.382812 63.6626 0.382812C28.5275 0.382812 0.0449219 28.8528 0.0449219 63.9722C0.0449219 99.0917 28.5275 127.562 63.6626 127.562Z" fill="#DEC2B5"/>
<path d="M71.0595 32.917C77.5962 32.917 82.8953 27.6203 82.8953 21.0865C82.8953 14.5526 77.5962 9.25586 71.0595 9.25586C64.5227 9.25586 59.2236 14.5526 59.2236 21.0865C59.2236 27.6203 64.5227 32.917 71.0595 32.917Z" fill="#B79585"/>
<path d="M47.3886 53.6204C55.5595 53.6204 62.1834 46.9995 62.1834 38.8322C62.1834 30.6649 55.5595 24.0439 47.3886 24.0439C39.2176 24.0439 32.5938 30.6649 32.5938 38.8322C32.5938 46.9995 39.2176 53.6204 47.3886 53.6204Z" fill="#B79585"/>
<path d="M88.8134 95.0277C96.9843 95.0277 103.608 88.4067 103.608 80.2394C103.608 72.0721 96.9843 65.4512 88.8134 65.4512C80.6424 65.4512 74.0186 72.0721 74.0186 80.2394C74.0186 88.4067 80.6424 95.0277 88.8134 95.0277Z" fill="#B79585"/>
<path d="M62.1825 80.2391C68.7193 80.2391 74.0184 74.9423 74.0184 68.4085C74.0184 61.8746 68.7193 56.5779 62.1825 56.5779C55.6458 56.5779 50.3467 61.8746 50.3467 68.4085C50.3467 74.9423 55.6458 80.2391 62.1825 80.2391Z" fill="#B79585"/>
<path d="M38.5116 74.3238C43.4142 74.3238 47.3885 70.3512 47.3885 65.4508C47.3885 60.5504 43.4142 56.5779 38.5116 56.5779C33.6091 56.5779 29.6348 60.5504 29.6348 65.4508C29.6348 70.3512 33.6091 74.3238 38.5116 74.3238Z" fill="#B79585"/>
<path d="M63.663 106.858C69.3827 106.858 74.0194 102.224 74.0194 96.5066C74.0194 90.7894 69.3827 86.1548 63.663 86.1548C57.9433 86.1548 53.3066 90.7894 53.3066 96.5066C53.3066 102.224 57.9433 106.858 63.663 106.858Z" fill="#B79585"/>
<path d="M39.9912 95.028C44.0766 95.028 47.3886 91.7175 47.3886 87.6339C47.3886 83.5502 44.0766 80.2397 39.9912 80.2397C35.9057 80.2397 32.5938 83.5502 32.5938 87.6339C32.5938 91.7175 35.9057 95.028 39.9912 95.028Z" fill="#B79585"/>
<path d="M96.2109 65.4508C100.296 65.4508 103.608 62.1404 103.608 58.0567C103.608 53.9731 100.296 50.6626 96.2109 50.6626C92.1254 50.6626 88.8135 53.9731 88.8135 58.0567C88.8135 62.1404 92.1254 65.4508 96.2109 65.4508Z" fill="#B79585"/>
<path d="M42.9501 115.731C47.0356 115.731 50.3475 112.421 50.3475 108.337C50.3475 104.253 47.0356 100.943 42.9501 100.943C38.8647 100.943 35.5527 104.253 35.5527 108.337C35.5527 112.421 38.8647 115.731 42.9501 115.731Z" fill="#927770"/>
<path d="M22.2372 86.1548C27.1398 86.1548 31.1141 82.1823 31.1141 77.2819C31.1141 72.3815 27.1398 68.4089 22.2372 68.4089C17.3347 68.4089 13.3604 72.3815 13.3604 77.2819C13.3604 82.1823 17.3347 86.1548 22.2372 86.1548Z" fill="#927770"/>
<path d="M23.7158 59.5356C27.8012 59.5356 31.1132 56.2251 31.1132 52.1414C31.1132 48.0578 27.8012 44.7473 23.7158 44.7473C19.6303 44.7473 16.3184 48.0578 16.3184 52.1414C16.3184 56.2251 19.6303 59.5356 23.7158 59.5356Z" fill="#927770"/>
<path d="M75.4989 56.5781C81.2186 56.5781 85.8553 51.9434 85.8553 46.2263C85.8553 40.5092 81.2186 35.8745 75.4989 35.8745C69.7793 35.8745 65.1426 40.5092 65.1426 46.2263C65.1426 51.9434 69.7793 56.5781 75.4989 56.5781Z" fill="#927770"/>
</svg>
