<?xml version="1.0" encoding="UTF-8" standalone="no"?>
<svg
   width="68"
   height="57"
   viewBox="0 0 68 57"
   fill="none"
   version="1.1"
   id="svg4"
   sodipodi:docname="vk-black.svg"
   inkscape:version="1.2.1 (9c6d41e410, 2022-07-14)"
   xmlns:inkscape="http://www.inkscape.org/namespaces/inkscape"
   xmlns:sodipodi="http://sodipodi.sourceforge.net/DTD/sodipodi-0.dtd"
   xmlns="http://www.w3.org/2000/svg"
   xmlns:svg="http://www.w3.org/2000/svg">
  <defs
     id="defs8" />
  <sodipodi:namedview
     id="namedview6"
     pagecolor="#ffffff"
     bordercolor="#000000"
     borderopacity="0.25"
     inkscape:showpageshadow="2"
     inkscape:pageopacity="0.0"
     inkscape:pagecheckerboard="0"
     inkscape:deskcolor="#d1d1d1"
     showgrid="false"
     inkscape:zoom="14.596491"
     inkscape:cx="33.740986"
     inkscape:cy="28.5"
     inkscape:window-width="1920"
     inkscape:window-height="1014"
     inkscape:window-x="1912"
     inkscape:window-y="-8"
     inkscape:window-maximized="1"
     inkscape:current-layer="svg4" />
  <path
     d="M66.1947 0.00390631H54.891C54.6151 0.00403479 54.3431 0.07105 54.0971 0.198242C53.8512 0.325435 53.6382 0.509636 53.4756 0.736328L42.4234 16.1621C42.2059 16.4662 41.8993 16.6927 41.5477 16.8086C41.196 16.9245 40.8173 16.9241 40.4659 16.8076C40.1144 16.6912 39.8081 16.4645 39.591 16.1602C39.3739 15.8558 39.2571 15.4893 39.2574 15.1133V1.78418C39.2575 1.55026 39.2123 1.31868 39.1243 1.10254C39.0364 0.886399 38.9075 0.689821 38.7449 0.524414C38.5823 0.359007 38.3893 0.228129 38.1768 0.138672C37.9644 0.0492149 37.7367 0.0027983 37.5067 0.00292975H29.2127C28.9828 0.0027983 28.7551 0.0492149 28.5427 0.138672C28.3302 0.228129 28.1372 0.359007 27.9746 0.524414C27.812 0.689821 27.6831 0.886399 27.5951 1.10254C27.5072 1.31868 27.462 1.55026 27.4621 1.78418V25.5176C27.4621 25.9167 27.3303 26.3034 27.0879 26.6172C26.8454 26.931 26.5065 27.1537 26.1253 27.248C25.7441 27.3424 25.3428 27.3032 24.9858 27.1377C24.6287 26.9722 24.3367 26.6895 24.1565 26.335L11.2437 0.961914C11.0961 0.671945 10.8729 0.429428 10.5987 0.259766C10.3244 0.0901032 10.0097 -8.82558e-05 9.68869 6.48051e-08H1.74655C1.45053 0.000866728 1.15957 0.078332 0.900815 0.224609C0.642062 0.370887 0.423927 0.581646 0.266862 0.836914C0.109797 1.09218 0.0189209 1.38387 0.00264982 1.68457C-0.0136212 1.98527 0.0452373 2.2844 0.173812 2.55566L25.0245 54.9932C25.1676 55.2951 25.3915 55.5502 25.6706 55.7285C25.9496 55.9068 26.2725 56.001 26.602 56.001H37.5126C37.7426 56.001 37.9703 55.9548 38.1828 55.8652C38.3953 55.7757 38.5883 55.645 38.7509 55.4795C38.9135 55.314 39.0424 55.1176 39.1303 54.9014C39.2182 54.6852 39.2634 54.4527 39.2632 54.2188V40.8242C39.2631 40.4479 39.3802 40.0808 39.5976 39.7764C39.815 39.4719 40.1216 39.2451 40.4735 39.1289C40.8253 39.0127 41.2043 39.0133 41.556 39.1299C41.9077 39.2464 42.2141 39.4736 42.4313 39.7783L53.4844 55.2686C53.6466 55.4953 53.8592 55.6793 54.1048 55.8066C54.3504 55.934 54.6221 56.0007 54.8978 56.001L66.2016 56.0244C66.5278 56.0249 66.8477 55.9323 67.1251 55.7578C67.4026 55.5833 67.6266 55.3332 67.772 55.0361C67.9174 54.739 67.9784 54.4066 67.9481 54.0762C67.9177 53.7457 67.7973 53.4306 67.6003 53.166L49.6185 29.0371C49.3874 28.7271 49.2623 28.349 49.2623 27.96C49.2623 27.5709 49.3874 27.1918 49.6185 26.8818L67.5934 2.86133C67.7901 2.59678 67.9103 2.28145 67.9405 1.95117C67.9707 1.62089 67.9097 1.28813 67.7644 0.991211C67.619 0.694296 67.3951 0.444973 67.1177 0.270508C66.8404 0.0960424 66.5208 0.003577 66.1947 0.00390631Z"
     fill="white"
     id="path2"
     style="fill:#1d1d1b;fill-opacity:1" />
</svg>
