<svg width="71" height="71" viewBox="0 0 71 71" fill="none" xmlns="http://www.w3.org/2000/svg">
<g clip-path="url(#clip0_938_666)">
<path d="M35.5 71C55.1061 71 71 55.1061 71 35.5C71 15.8939 55.1061 0 35.5 0C15.8939 0 0 15.8939 0 35.5C0 55.1061 15.8939 71 35.5 71Z" fill="white"/>
<path d="M25.082 49.7385L50.8627 23.9578C51.5826 23.2379 52.5589 22.8335 53.577 22.8335C54.595 22.8335 55.5714 23.2379 56.2913 23.9578C57.0112 24.6777 57.4156 25.654 57.4156 26.6721C57.4156 27.6902 57.0112 28.6665 56.2913 29.3864L30.5106 55.1671L25.0801 49.7385H25.082Z" fill="#52D800"/>
<path d="M29.1525 53.8103L14.2271 38.8831C13.5075 38.1632 13.1033 37.1869 13.1035 36.169C13.1037 35.1512 13.5082 34.175 14.2281 33.4554C14.948 32.7358 15.9242 32.3316 16.9421 32.3318C17.96 32.332 18.9361 32.7365 19.6558 33.4564L34.5811 48.3817L29.1525 53.8103Z" fill="#52D800"/>
</g>
<defs>
<clipPath id="clip0_938_666">
<rect width="71" height="71" fill="white"/>
</clipPath>
</defs>
</svg>
