<svg width="64" height="52" viewBox="0 0 64 52" fill="none" xmlns="http://www.w3.org/2000/svg">
<path d="M0.136719 37.6281C0.136719 27.4819 0.136719 17.3358 0.136719 7.19127C0.653998 5.25898 2.00057 4.00332 3.72976 3.18844C5.17814 2.5053 6.69549 1.90512 8.24405 1.49362C12.4053 0.387593 16.6585 0.220063 20.9166 0.768196C24.7986 1.26753 28.5805 2.11494 31.6284 4.88326C32.9996 3.5056 34.6828 2.64518 36.5072 2.06127C42.708 0.0769307 48.9745 0.00211135 55.2754 1.55217C57.333 2.05801 59.2921 2.82085 60.9819 4.13669C62.3827 5.22645 63.1036 6.59271 63.0954 8.43067C63.051 17.8433 63.0658 27.2558 63.0839 36.6684C63.0872 38.0136 62.6454 39.1505 61.67 40.0418C61.0148 40.642 60.2873 41.1966 59.5122 41.6293C57.1245 42.9598 54.502 43.5941 51.8138 43.9584C50.4196 44.1471 49.0139 44.2431 47.6016 44.3813C47.5014 46.0648 46.5556 47.2472 45.273 48.215C43.8887 49.2608 42.3139 49.9407 40.6537 50.414C35.5827 51.8616 30.4444 51.9722 25.2732 51.063C22.8412 50.6352 20.4962 49.9245 18.4172 48.5484C16.9048 47.5465 15.7339 46.2908 15.6042 44.3423C15.3792 44.326 15.1772 44.3081 14.9769 44.2967C11.7517 44.1325 8.57576 43.6933 5.55912 42.493C3.15665 41.5366 0.92988 40.3557 0.136719 37.6281ZM18.0839 41.0535C18.0839 42.0636 18.1249 42.9581 18.0724 43.8462C18.0182 44.7717 18.3663 45.5101 19.0987 45.9948C20.0101 46.5983 20.9494 47.2293 21.9692 47.5904C27.7972 49.6561 33.7155 49.6691 39.6651 48.1402C41.2563 47.7319 42.8 47.1448 44.0464 46.042C44.4963 45.6435 44.984 45.071 45.0628 44.5228C45.2205 43.4184 45.1105 42.2783 45.1105 41.1462C45.0201 41.1543 44.9725 41.1462 44.9446 41.1641C42.5142 42.7499 39.7751 43.4542 36.9539 43.9259C36.0737 44.0739 35.4316 43.6966 35.3051 42.9728C35.1738 42.2262 35.6812 41.6846 36.5811 41.5105C37.724 41.2877 38.8719 41.0698 39.9886 40.7445C41.5256 40.2988 43.0233 39.7165 44.2073 38.5975C44.5784 38.2478 45.0037 37.7647 45.0514 37.3077C45.1712 36.1593 45.0908 34.9899 45.0908 33.7911C40.9213 36.3724 36.3299 37.0002 31.6152 37.0035C26.8842 37.0051 22.2779 36.3659 18.0855 33.7733C18.0855 34.6532 18.1479 35.4648 18.0707 36.2618C17.9492 37.5142 18.5437 38.3486 19.501 39.0269C20.9231 40.0353 22.5374 40.6062 24.2124 41.021C25.0844 41.2373 25.9777 41.3674 26.8579 41.5496C27.5049 41.6846 27.9007 42.1302 27.922 42.7125C27.9417 43.259 27.5969 43.786 27.0665 43.9048C26.7774 43.9698 26.4539 43.9487 26.1583 43.8999C23.3305 43.4461 20.6078 42.6995 18.0839 41.0535ZM16.2446 12.6758C19.1611 12.6482 21.8017 12.3847 24.3881 11.6999C26.1353 11.2364 27.8284 10.6395 29.2702 9.50741C30.7252 8.3656 30.7547 7.18151 29.2472 6.09988C28.3802 5.47856 27.4179 4.90928 26.4129 4.56283C20.1448 2.40609 13.8126 2.40446 7.46731 4.2294C6.08789 4.62627 4.78402 5.21994 3.65258 6.12591C2.2666 7.23356 2.25017 8.39488 3.67064 9.46512C4.31601 9.95145 5.02706 10.3841 5.76767 10.7094C9.17843 12.2107 12.806 12.6059 16.2446 12.6758ZM46.9595 2.92169C44.1564 2.94771 41.634 3.18844 39.1626 3.80976C37.2725 4.2847 35.4316 4.90277 33.8798 6.13729C32.5118 7.22542 32.4675 8.41115 33.8798 9.42771C34.7944 10.0864 35.8208 10.6411 36.8701 11.0591C39.4385 12.0805 42.1546 12.4758 44.9036 12.614C48.9038 12.8141 52.8483 12.4709 56.6187 11.0461C57.691 10.6411 58.7289 10.0458 59.6468 9.36265C60.954 8.38838 60.9359 7.26121 59.6665 6.24301C59.0064 5.71277 58.2609 5.25085 57.4858 4.90603C54.0602 3.38199 50.4097 2.98838 46.9595 2.92169ZM30.8303 24.821C29.8975 24.9072 28.2242 25.0243 26.5623 25.2325C25.6131 25.3512 24.6705 25.5773 23.7477 25.831C22.0267 26.3043 20.3467 26.8964 18.992 28.1163C17.762 29.2239 17.7341 30.3202 19.0478 31.3302C19.9231 32.0036 20.9281 32.5566 21.9528 32.9811C24.4308 34.0091 27.0664 34.3848 29.7333 34.5263C33.3773 34.7199 36.9703 34.4255 40.4582 33.2934C41.9033 32.8234 43.2959 32.2297 44.3961 31.1416C45.3749 30.1738 45.4143 29.1963 44.383 28.3017C43.6572 27.6706 42.8164 27.1111 41.9378 26.7175C38.6502 25.2439 35.136 24.8909 30.8303 24.821ZM30.3639 11.804C26.0253 14.4097 21.3173 15.088 16.4795 15.0847C11.6302 15.0814 6.90897 14.3951 2.59503 11.8008C2.59503 12.7555 2.64429 13.6452 2.58189 14.5284C2.50964 15.5336 2.95794 16.233 3.70841 16.8186C4.90226 17.7489 6.27017 18.3345 7.71035 18.7476C13.2625 20.3464 18.8491 20.3725 24.4439 18.9867C26.1764 18.5573 27.8695 17.9652 29.2522 16.7958C29.7235 16.3973 30.2309 15.8069 30.3146 15.2441C30.4805 14.143 30.3639 12.9979 30.3639 11.804ZM32.8337 11.7975C32.8337 12.7637 32.8813 13.6566 32.8206 14.5414C32.7516 15.5483 33.2048 16.2411 33.9569 16.8251C35.1524 17.7522 36.5203 18.3361 37.9605 18.7508C43.5143 20.3481 49.1009 20.3708 54.6941 18.9851C56.4266 18.5557 58.1196 17.9604 59.499 16.7893C59.9687 16.3908 60.4679 15.7971 60.5533 15.2327C60.7192 14.1316 60.6026 12.9898 60.6026 11.8057C56.3018 14.3983 51.597 15.0847 46.7658 15.0847C41.9132 15.0863 37.1854 14.4097 32.8337 11.7975ZM30.3524 19.1168C26.0401 21.7127 21.3156 22.3942 16.4614 22.3893C11.6138 22.3845 6.89584 21.6948 2.59339 19.1071C2.59339 19.9691 2.66236 20.7645 2.57861 21.5436C2.43245 22.8757 3.0614 23.7491 4.11238 24.4241C4.47201 24.6551 4.83657 24.8844 5.22248 25.0698C8.47066 26.6427 11.9635 27.0981 15.5204 27.2721C16.128 27.3014 16.5977 27.2119 16.9885 26.6752C17.2677 26.2913 17.6864 25.9904 18.0855 25.7123C20.6128 23.9508 23.5177 23.2254 26.5114 22.7813C27.7775 22.5943 29.06 22.5064 30.3524 22.3714C30.3524 21.298 30.3524 20.2472 30.3524 19.1168ZM60.6026 19.1119C56.287 21.7111 51.5641 22.3958 46.7116 22.391C41.8639 22.3861 37.1427 21.6981 32.8633 19.1282C32.8633 20.244 32.8633 21.3093 32.8633 22.4024C33.1309 22.4268 33.3707 22.4544 33.6121 22.4674C36.1328 22.6138 38.619 22.9716 41.0248 23.7556C43.1432 24.4452 45.1499 25.3284 46.6196 27.0981C46.7132 27.2103 46.9382 27.2705 47.1008 27.2672C50.1847 27.2168 53.2375 26.898 56.1408 25.818C57.3133 25.3821 58.4415 24.7705 59.4876 24.0842C59.9835 23.7589 60.4679 23.1083 60.5517 22.5455C60.7208 21.4427 60.6026 20.2977 60.6026 19.1119ZM2.59503 26.3954C2.59503 27.3811 2.64265 28.2887 2.58189 29.1881C2.51785 30.1478 2.9366 30.8358 3.65586 31.379C4.1091 31.7222 4.59025 32.041 5.09439 32.3013C7.77767 33.6789 10.6892 34.1896 13.6582 34.458C14.2987 34.5149 14.944 34.5345 15.5927 34.5719C15.5927 32.908 15.5927 31.3335 15.5927 29.7249C11.0456 29.4858 6.61667 28.8791 2.59503 26.3954ZM15.5894 37.0279C11.0357 36.7953 6.61174 36.1756 2.59503 33.7033C2.59503 34.5702 2.67221 35.364 2.57861 36.1382C2.41111 37.5093 3.09096 38.3746 4.15015 39.0627C4.4753 39.2741 4.80701 39.4758 5.15351 39.6498C7.18157 40.6761 9.35907 41.2129 11.5973 41.5203C12.9078 41.6992 14.2297 41.7952 15.5894 41.9334C15.5894 40.2516 15.5894 38.6772 15.5894 37.0279ZM47.6148 41.8489C47.7396 41.8586 47.82 41.8733 47.8972 41.87C50.5641 41.7529 53.1964 41.4146 55.7451 40.5932C57.1721 40.1329 58.5696 39.5815 59.683 38.5552C60.0804 38.1892 60.5024 37.6557 60.5599 37.1564C60.6913 36.0455 60.6009 34.9069 60.6009 33.7098C56.5875 36.1854 52.1602 36.7969 47.6131 37.0279C47.6148 38.6414 47.6148 40.2158 47.6148 41.8489ZM47.618 34.5491C47.7478 34.5556 47.8479 34.5751 47.9432 34.5621C49.9483 34.3035 51.9681 34.1197 53.9551 33.7554C55.9142 33.3959 57.7994 32.7355 59.3907 31.4896C59.8537 31.1286 60.4187 30.6048 60.4876 30.0974C60.6486 28.9035 60.5385 27.6722 60.5385 26.4377C56.5612 28.897 52.1241 29.4874 47.618 29.7265C47.618 31.3709 47.618 32.9454 47.618 34.5491Z" fill="white"/>
</svg>
