<svg width="39" height="39" fill="none" xmlns="http://www.w3.org/2000/svg"><path d="M38.323 18.021v2.244c-.06.492-.11.985-.18 1.476-.662 4.524-2.642 8.366-5.999 11.476-2.755 2.553-5.997 4.145-9.702 4.78-.709.12-1.426.195-2.139.292H18.06c-.714-.097-1.432-.167-2.14-.294-5.122-.914-9.276-3.456-12.265-7.696-3.926-5.568-4.671-11.647-2.323-18.037C3.92 5.218 10.888.259 18.376.012c4.075-.134 7.86.846 11.26 3.107 4.597 3.056 7.4 7.327 8.393 12.767.13.706.198 1.423.294 2.136ZM24.284 29.145c.803 0 1.573-.155 2.311-.492.92-.42 1.586-1.149 2.282-1.842.516-.513.515-.921-.002-1.44-1.089-1.096-2.18-2.19-3.273-3.28-.542-.542-.95-.537-1.498.016-.587.594-1.167 1.193-1.758 1.783-.729.727-1.596.796-2.427.202a25.209 25.209 0 0 1-5.583-5.467c-.672-.901-.616-1.738.179-2.539.622-.627 1.255-1.247 1.874-1.878.449-.457.454-.883.004-1.337a531.329 531.329 0 0 0-3.408-3.409c-.436-.432-.865-.428-1.31-.002-.368.353-.73.715-1.08 1.085-1.145 1.21-1.668 2.637-1.435 4.303.163 1.175.65 2.247 1.196 3.28 2.326 4.396 5.724 7.71 10.195 9.892 1.171.57 2.398 1.036 3.733 1.125Z" fill="#5E7AAA"/></svg>