<svg width="37" height="37" viewBox="0 0 37 37" fill="none" xmlns="http://www.w3.org/2000/svg">
<path d="M13.0713 25.9201L26.5063 12.4851C26.8815 12.1099 27.3903 11.8992 27.9208 11.8992C28.4514 11.8992 28.9602 12.1099 29.3353 12.4851C29.7105 12.8602 29.9212 13.369 29.9212 13.8996C29.9212 14.4301 29.7105 14.9389 29.3353 15.3141L15.9003 28.7491L13.0703 25.9201H13.0713Z" fill="white"/>
<path d="M15.1917 28.0419L7.41368 20.2629C7.03866 19.8878 6.82803 19.379 6.82813 18.8486C6.82822 18.3181 7.03903 17.8094 7.41418 17.4344C7.78933 17.0594 8.29808 16.8488 8.82853 16.8489C9.35898 16.849 9.86766 17.0598 10.2427 17.4349L18.0207 25.2129L15.1917 28.0419Z" fill="white"/>
</svg>
