<svg width="56" height="43" viewBox="0 0 56 43" fill="none" xmlns="http://www.w3.org/2000/svg">
<path d="M0.289062 5.91052C0.382153 5.58838 0.46665 5.26337 0.569766 4.9441C1.3417 2.57119 3.48135 0.979185 5.9862 0.963365C9.38185 0.943232 12.7775 0.957613 16.1717 0.957613C27.1979 0.957613 38.2227 0.956175 49.2489 0.959051C52.1161 0.960489 54.3803 2.69199 55.0205 5.38848C55.1351 5.87169 55.1795 6.38223 55.1795 6.87982C55.1881 16.7152 55.1895 26.5505 55.1838 36.3859C55.1809 39.8316 52.699 42.3066 49.2503 42.3081C34.9359 42.3124 20.6229 42.2894 6.30843 42.3239C2.97866 42.3325 0.700093 39.9452 0.370696 37.4875C0.364967 37.4415 0.317706 37.3998 0.289062 37.3566C0.289062 26.8741 0.289062 16.393 0.289062 5.91052ZM27.7379 40.0215C34.8858 40.0215 42.0323 40.0243 49.1802 40.02C51.4587 40.0186 52.9052 38.5718 52.9067 36.291C52.9109 26.529 52.9095 16.7655 52.9067 7.0035C52.9067 4.68524 51.4688 3.24855 49.153 3.24855C34.8757 3.24711 20.5985 3.24711 6.32132 3.24855C4.00552 3.24855 2.56906 4.68524 2.56763 7.0035C2.56477 16.7655 2.56477 26.529 2.57336 36.291C2.57336 36.6994 2.61489 37.1208 2.72374 37.5119C3.16055 39.0924 4.49245 40.0186 6.29555 40.02C13.442 40.0229 20.5899 40.0215 27.7379 40.0215Z" fill="white"/>
<path d="M17.4436 23.9822C19.1937 23.9822 20.951 23.8729 22.6911 24.0066C25.448 24.2194 27.6263 26.6312 27.7251 29.4025C27.7552 30.2265 27.7437 31.0534 27.7337 31.8775C27.7251 32.608 27.2468 33.1157 26.598 33.1186C25.9507 33.1214 25.4766 32.6167 25.4623 31.8832C25.4494 31.1843 25.468 30.4839 25.4566 29.785C25.4193 27.6839 23.9886 26.2486 21.8919 26.24C18.9274 26.2271 15.9614 26.2271 12.9968 26.24C10.8801 26.2486 9.45362 27.7011 9.4307 29.8382C9.42354 30.5199 9.4393 31.2015 9.42498 31.8832C9.41065 32.6167 8.93661 33.12 8.2907 33.1186C7.6405 33.1171 7.15786 32.6095 7.155 31.8789C7.15214 30.911 7.08053 29.9288 7.21085 28.9768C7.62475 25.9553 9.94055 23.9635 12.9954 23.9232C14.4776 23.9045 15.9599 23.9203 17.4436 23.9203C17.4436 23.9419 17.4436 23.962 17.4436 23.9822Z" fill="white"/>
<path d="M23.1497 15.8681C23.1612 19.0421 20.6062 21.6278 17.4526 21.6307C14.299 21.635 11.7354 19.0565 11.7383 15.884C11.7426 12.7316 14.2632 10.1789 17.4096 10.1415C20.5403 10.1041 23.1369 12.6956 23.1497 15.8681ZM17.4182 12.4569C15.5163 12.4684 13.9982 14.0173 14.014 15.9285C14.0312 17.7967 15.5822 19.3398 17.4411 19.3398C19.3244 19.3398 20.8783 17.7722 20.8726 15.8768C20.8683 13.9741 19.3244 12.4454 17.4182 12.4569Z" fill="white"/>
<path d="M40.2767 33.1284C38.17 33.1284 36.0633 33.1284 33.9566 33.1284C33.8134 33.1284 33.6701 33.1342 33.5284 33.1256C32.7879 33.081 32.321 32.6251 32.3282 31.9549C32.3354 31.3078 32.7908 30.8648 33.5054 30.8159C33.63 30.8073 33.7546 30.8116 33.8807 30.8116C38.1657 30.8116 42.4507 30.8116 46.7343 30.8116C47.7784 30.8116 48.3312 31.2215 48.3197 31.9837C48.3097 32.7301 47.7698 33.1256 46.7587 33.127C44.5975 33.1299 42.4364 33.1284 40.2767 33.1284Z" fill="white"/>
<path d="M40.2983 12.454C42.5654 12.454 44.8325 12.4454 47.0996 12.4583C48.0062 12.4641 48.5547 13.2392 48.231 14.0144C48.0105 14.5436 47.588 14.7449 47.0352 14.7421C45.5357 14.7363 44.0362 14.7406 42.5368 14.7406C39.5736 14.7406 36.6105 14.742 33.6474 14.7392C32.9857 14.7392 32.5389 14.4573 32.3756 13.9597C32.1207 13.1802 32.6635 12.4626 33.55 12.4583C35.7999 12.4454 38.0498 12.454 40.2983 12.454Z" fill="white"/>
<path d="M40.3376 21.6337C42.586 21.6337 44.836 21.625 47.0845 21.638C48.0268 21.6423 48.5968 22.5052 48.1944 23.2904C47.9566 23.7549 47.5542 23.9261 47.0458 23.9246C45.5105 23.9174 43.9752 23.9217 42.44 23.9217C39.5126 23.9217 36.5853 23.9246 33.658 23.9203C32.8559 23.9189 32.3876 23.5464 32.3332 22.8964C32.2716 22.1557 32.7743 21.6394 33.5906 21.6366C35.8391 21.6294 38.0891 21.6337 40.3376 21.6337Z" fill="white"/>
</svg>
