<svg width="48" height="64" viewBox="0 0 48 64" fill="none" xmlns="http://www.w3.org/2000/svg">
<path d="M4.20258 63.5079C4.07191 63.4619 3.94288 63.4078 3.80731 63.3733C1.46674 62.7645 0.0245102 60.6476 0.277677 58.1893C0.50961 55.9444 2.47614 54.1524 4.80854 54.0703C5.15318 54.0589 5.49781 54.0687 5.93391 54.0687C5.93391 53.7536 5.93391 53.4763 5.93391 53.199C5.93881 50.8687 5.82448 48.527 6.39941 46.2361C7.92494 40.1627 11.564 35.9206 17.3329 33.5296C17.4456 33.4837 17.5616 33.4459 17.6759 33.4C18.3668 33.1227 18.7539 32.6468 18.7245 32.0461C18.6902 31.3503 18.2835 30.9499 17.6498 30.7103C13.3966 29.1038 10.1773 26.2894 8.01641 22.2738C7.02008 20.4228 6.38798 18.4437 6.12011 16.353C6.03518 15.6917 6.30468 15.2388 6.84531 15.1387C7.36798 15.0418 7.76814 15.393 7.92168 16.0527C8.16831 17.1062 8.44598 18.1516 8.67464 19.2068C8.79224 19.7467 9.06991 19.8911 9.60891 19.8894C16.0263 19.8697 22.4453 19.8763 28.8626 19.8763C29.8606 19.8763 30.282 20.1586 30.2657 20.815C30.251 21.4435 29.8279 21.7192 28.8741 21.7192C22.803 21.7192 16.7302 21.7192 10.6591 21.7192C10.4174 21.7192 10.174 21.7192 9.72324 21.7192C10.406 22.6628 10.9515 23.5177 11.5967 24.2874C13.1532 26.145 15.0446 27.5825 17.2627 28.5606C17.7592 28.7789 18.2933 28.938 18.8258 29.0398C21.4342 29.5354 23.0463 31.7901 22.6347 34.4338C22.411 35.8681 22.1692 37.2991 21.9226 38.73C21.5241 41.0324 19.6768 42.5438 17.2578 42.6094C16.0214 42.6422 14.749 42.5864 13.5583 42.8572C10.2459 43.6121 7.97231 46.4215 7.79264 49.8447C7.71914 51.2264 7.78121 52.6164 7.78121 54.0654C8.07848 54.0654 8.31858 54.0654 8.55704 54.0654C15.6277 54.0654 22.6968 54.0654 29.7675 54.0687C30.0092 54.0687 30.264 54.0654 30.4911 54.1343C30.9353 54.2689 31.1509 54.6037 31.1117 55.0697C31.0725 55.5374 30.7981 55.8164 30.3424 55.8886C30.1236 55.9231 29.8949 55.9067 29.6711 55.9067C21.48 55.9067 13.2904 55.905 5.09928 55.9099C3.18174 55.9116 1.87181 57.3606 2.10538 59.1953C2.27034 60.4999 3.36794 61.5452 4.69094 61.6552C4.83304 61.6667 4.97678 61.665 5.11888 61.665C17.5469 61.665 29.9766 61.6667 42.4046 61.6634C44.3597 61.6634 45.6745 60.2078 45.4214 58.3469C45.2286 56.9323 44.0281 55.9149 42.5026 55.9099C39.9562 55.9001 37.4082 55.9067 34.8619 55.9067C34.6789 55.9067 34.4944 55.9116 34.3114 55.9034C33.7022 55.8771 33.302 55.5079 33.3069 54.9828C33.3118 54.4527 33.7055 54.0753 34.3245 54.0687C35.8925 54.0556 37.4621 54.0638 39.0318 54.0638C39.2506 54.0638 39.4695 54.0638 39.7635 54.0638C39.6753 51.3331 40.198 48.5877 38.5744 46.1475C37.0767 43.8976 34.9925 42.6964 32.2926 42.6045C31.378 42.5733 30.4535 42.634 29.547 42.5257C27.4808 42.2779 25.9586 40.7764 25.6074 38.735C25.3624 37.304 25.119 35.873 24.8953 34.4388C24.4788 31.7737 26.1252 29.4911 28.7581 29.0283C29.2122 28.9479 29.6695 28.8182 30.0909 28.6344C33.1746 27.297 35.5903 25.1752 37.3674 22.3149C37.4621 22.1606 37.5454 21.9998 37.6696 21.7782C37.4719 21.7553 37.3249 21.7224 37.1779 21.7224C36.0166 21.7175 34.8553 21.7224 33.694 21.7192C32.8839 21.7175 32.4445 21.3795 32.4527 20.7772C32.4609 20.2012 32.8839 19.8812 33.6614 19.8796C35.1281 19.8763 36.5965 19.8599 38.0616 19.8894C38.4911 19.8976 38.7067 19.7565 38.7933 19.3544C39.0873 17.9793 39.5218 16.6172 39.6459 15.2273C39.7945 13.5469 39.6818 11.8418 39.6818 10.1023C29.0897 10.1023 18.4681 10.1023 7.76814 10.1023C7.76814 10.6997 7.77631 11.2855 7.76651 11.873C7.75508 12.5573 7.42024 12.9364 6.85184 12.9315C6.29488 12.9266 5.95188 12.536 5.93718 11.8566C5.92411 11.2872 5.93391 10.7161 5.93391 10.1089C5.31651 10.0613 4.72851 10.0564 4.15521 9.9645C1.76401 9.58378 0.0898435 7.44881 0.253177 5.02501C0.418143 2.57496 2.38468 0.656601 4.82488 0.623781C7.16708 0.592601 9.51091 0.615576 11.8547 0.615576C22.0418 0.615576 32.2289 0.613935 42.416 0.617217C44.688 0.617217 46.5222 1.95465 47.1102 4.01742C47.9612 7.00573 45.8068 9.95137 42.6888 10.0548C42.3474 10.0662 42.0061 10.0564 41.5945 10.0564C41.5945 11.2757 41.5961 12.4359 41.5945 13.5961C41.5912 15.7606 41.2874 17.8775 40.5344 19.914C38.6561 24.9881 35.2147 28.5426 30.2232 30.5823C30.0909 30.6365 29.957 30.6841 29.823 30.7317C29.2056 30.9532 28.8365 31.3782 28.8038 32.0445C28.7761 32.6468 29.1681 33.1276 29.8524 33.3983C36.1522 35.8894 39.9693 40.4827 41.2972 47.1387C41.5161 48.2332 41.5373 49.3737 41.5847 50.4962C41.6337 51.6203 41.601 52.7477 41.6059 53.8734C41.6059 53.9112 41.6304 53.9473 41.6549 54.0195C42.2021 54.0589 42.7705 54.0589 43.3242 54.1475C45.5863 54.5069 47.1837 56.3251 47.285 58.6193C47.3814 60.8363 45.8999 62.8104 43.7211 63.3733C43.5871 63.4078 43.4581 63.4619 43.3274 63.5079C30.2853 63.5079 17.2431 63.5079 4.20258 63.5079ZM23.796 2.45845C20.8005 2.45845 17.8066 2.45845 14.8111 2.45845C11.5313 2.45845 8.25161 2.45024 4.97024 2.46173C3.46921 2.46665 2.27198 3.52347 2.10048 4.94952C1.87671 6.80224 3.20298 8.21352 5.18094 8.21352C17.5681 8.21517 29.9553 8.21517 42.3409 8.21517C42.4634 8.21517 42.5859 8.22009 42.7068 8.21024C43.8044 8.11999 44.6455 7.61455 45.1502 6.62009C46.1368 4.67547 44.7305 2.46501 42.4944 2.46173C36.2633 2.45188 30.0305 2.45845 23.796 2.45845ZM26.9974 32.5319C26.9222 32.5352 26.8455 32.5401 26.7703 32.5434C26.7507 33.0964 26.6527 33.6593 26.7262 34.2008C26.9222 35.6383 27.1787 37.066 27.4335 38.4937C27.6442 39.6654 28.4984 40.5073 29.6809 40.6943C30.1399 40.7665 30.6136 40.7649 31.0807 40.7567C32.5131 40.7288 33.9407 40.7616 35.2898 41.2999C36.1048 41.6248 36.8774 42.0564 37.6712 42.4404C37.6712 42.4076 37.6826 42.3649 37.6696 42.3337C37.6271 42.2418 37.5748 42.1532 37.5226 42.0646C35.6312 38.9122 33.0097 36.6016 29.5829 35.2806C28.255 34.767 27.2783 34.0137 26.9974 32.5319ZM20.7678 32.5549C20.6894 32.545 20.6127 32.5368 20.5343 32.527C20.2452 34.0351 19.2423 34.7735 17.8964 35.2987C14.5236 36.6148 11.9184 38.8859 10.0466 41.999C9.96171 42.1417 9.90128 42.2993 9.89638 42.3108C11.0217 41.8792 12.1732 41.2687 13.3999 41.0111C14.6559 40.7469 15.9838 40.8109 17.2823 40.7633C18.8176 40.7075 19.8483 39.8509 20.1194 38.3329C20.3628 36.9659 20.6127 35.599 20.8005 34.2238C20.8724 33.6806 20.7825 33.1128 20.7678 32.5549Z" fill="white"/>
</svg>
