<svg width="61" height="61" viewBox="0 0 61 61" fill="none" xmlns="http://www.w3.org/2000/svg">
<path d="M0.550781 55.586C0.816496 54.2453 1.66025 53.2907 2.59259 52.358C19.1725 35.7616 35.7416 19.1543 52.3076 2.54385C53.0643 1.78395 53.8894 1.19066 54.9709 0.99446C56.7222 0.676796 58.5169 1.47096 59.4601 3.01412C60.4002 4.55105 60.3023 6.51933 59.2037 7.93324C58.9908 8.20731 58.7453 8.46113 58.4998 8.70716C50.6744 16.5507 42.8475 24.3942 35.0206 32.2361C34.8559 32.4012 34.699 32.5787 34.5078 32.7079C34.1427 32.9555 33.762 32.9275 33.4434 32.6254C33.1062 32.3062 33.0565 31.9122 33.3144 31.5183C33.4403 31.3267 33.6206 31.1694 33.7837 31.0044C41.637 23.1329 49.4873 15.2598 57.3484 7.39602C58.1502 6.59407 58.5697 5.70337 58.2496 4.56507C57.74 2.75407 55.5334 2.06736 54.0868 3.26638C53.9236 3.40186 53.7744 3.55757 53.6237 3.70862C36.8588 20.5075 20.0986 37.3078 3.32913 54.0989C2.53043 54.8993 2.08602 55.7775 2.39835 56.9205C2.89559 58.7424 5.07725 59.4509 6.54411 58.2659C6.78497 58.0712 6.9994 57.8439 7.2185 57.6243C15.0174 49.8104 22.8164 41.9934 30.6153 34.1795C31.268 33.5255 31.7217 33.4258 32.1552 33.8385C32.5965 34.2589 32.4971 34.7681 31.8414 35.4252C23.974 43.3092 16.1021 51.1901 8.24562 59.0834C7.478 59.8542 6.58762 60.3385 5.55274 60.5985C5.12697 60.5985 4.69965 60.5985 4.27389 60.5985C3.20948 60.326 2.19168 59.9149 1.55925 58.9791C1.12883 58.3406 0.880205 57.5776 0.550781 56.8691C0.550781 56.4409 0.550781 56.0142 0.550781 55.586Z" fill="white"/>
<path d="M0.552335 14.5574C0.737247 13.6481 0.867774 12.7215 1.1164 11.8308C2.9966 5.10538 9.14532 0.661197 16.1596 0.932146C22.9003 1.19219 28.7258 6.24991 30.0591 13.0003C31.7404 21.5102 25.6305 29.7929 17.0282 30.6633C8.85008 31.4902 1.61364 25.7022 0.656445 17.5706C0.639353 17.4195 0.586521 17.2716 0.550781 17.1221C0.552335 16.2672 0.552335 15.4123 0.552335 14.5574ZM15.4199 2.6684C8.18502 2.67774 2.29424 8.5919 2.29735 15.8437C2.2989 23.0923 8.19745 29.0049 15.4308 29.0096C22.689 29.0143 28.6 23.0799 28.5829 15.8032C28.5658 8.55453 22.6595 2.65906 15.4199 2.6684Z" fill="white"/>
<path d="M43.9379 60.5986C42.7538 60.3277 41.5402 60.1502 40.3919 59.7702C34.0878 57.6867 29.8271 51.2462 30.3569 44.6812C30.9179 37.719 35.9975 32.0836 42.7041 30.9811C51.0314 29.6123 58.7557 35.2509 59.9631 43.5802C61.1642 51.8535 55.2222 59.5366 46.8841 60.4974C46.7535 60.513 46.6261 60.5644 46.4971 60.5986C45.6441 60.5986 44.791 60.5986 43.9379 60.5986ZM45.1903 32.5087C37.957 32.5212 32.0693 38.44 32.0755 45.6918C32.0817 52.9404 37.9834 58.8499 45.2167 58.8499C52.4749 58.8499 58.3828 52.9124 58.361 45.6357C58.3393 38.3855 52.4299 32.4947 45.1903 32.5087Z" fill="white"/>
<path d="M15.4576 7.91309C19.8132 7.92088 23.356 11.4868 23.3483 15.8578C23.3405 20.221 19.779 23.7714 15.4203 23.7652C11.0679 23.7574 7.52349 20.1899 7.53126 15.8189C7.53748 11.4557 11.0974 7.90687 15.4576 7.91309ZM15.4405 9.66336C12.0469 9.66336 9.27006 12.4507 9.27783 15.8516C9.28405 19.2275 12.0437 21.9993 15.411 22.0149C18.8062 22.0289 21.597 19.2525 21.6032 15.8531C21.6095 12.4507 18.8358 9.66336 15.4405 9.66336Z" fill="white"/>
<path d="M37.3086 45.6945C37.3024 41.3235 40.8452 37.7592 45.2008 37.7529C49.5625 37.7467 53.1209 41.2971 53.1256 45.6618C53.1318 50.0313 49.5858 53.5988 45.2319 53.605C40.8748 53.6097 37.3148 50.0562 37.3086 45.6945ZM45.2567 39.5032C41.8599 39.4845 39.066 42.2563 39.0552 45.6541C39.0443 49.0331 41.7853 51.822 45.1495 51.8547C48.5479 51.8874 51.3557 49.1281 51.3806 45.7319C51.4054 42.3248 48.6473 39.5203 45.2567 39.5032Z" fill="white"/>
</svg>
