<svg width="84" height="102" viewBox="0 0 84 102" fill="none" xmlns="http://www.w3.org/2000/svg">
<path d="M74.4423 0.0619084C75.0435 0.217305 75.65 0.346363 76.2406 0.528097C80.7234 1.90559 83.4553 5.59296 83.4658 10.3365C83.4816 17.8271 83.4711 25.3204 83.4711 32.811C83.4711 48.8115 83.4262 64.8147 83.4922 80.8152C83.5212 87.3155 78.511 91.0661 73.253 91.1952C73.0315 91.2004 72.8074 91.1715 72.4804 91.1504C72.4804 90.6921 72.4804 90.2733 72.4804 89.8545C72.4804 66.7874 72.483 43.723 72.4778 20.6558C72.4778 15.7754 69.9252 11.9063 65.5717 10.4655C64.2269 10.0204 62.7317 9.85977 61.3025 9.85713C45.0512 9.81763 28.7972 9.83079 12.5459 9.83079C12.1214 9.83079 11.6942 9.83079 10.998 9.83079C11.2301 8.71668 11.3171 7.67632 11.6678 6.73341C13.0047 3.13823 15.7023 1.09437 19.394 0.256812C19.6102 0.20677 19.8185 0.12512 20.0321 0.0566406C38.1715 0.0619083 56.3056 0.0619084 74.4423 0.0619084Z" fill="#5E7AAA"/>
<path d="M65.9483 58.8228C65.9483 71.3757 65.8982 83.9285 65.9853 96.4814C66.0063 99.4708 64.0155 101.062 61.4445 101.054C42.4877 100.991 23.5282 101.019 4.57145 101.019C1.62338 101.019 0.130884 99.5419 0.130884 96.5973C0.128247 71.3256 0.128247 46.0566 0.130884 20.785C0.130884 17.8193 1.59174 16.3628 4.55827 16.3628C23.5493 16.3602 42.5404 16.3602 61.5315 16.3628C64.527 16.3628 65.951 17.7851 65.951 20.7692C65.9483 33.4538 65.9483 46.1383 65.9483 58.8228ZM33.6224 37.5204C28.5437 37.5204 23.4676 37.4835 18.3889 37.5573C17.5662 37.5704 16.638 37.9155 15.955 38.3896C14.8713 39.1428 14.5944 40.6231 15.0426 41.8636C15.541 43.2411 16.7118 44.0286 18.3546 44.0286C28.5094 44.0365 38.6641 44.0365 48.8216 44.0286C50.9258 44.026 52.413 42.6695 52.4262 40.7837C52.4394 38.8663 50.9337 37.5204 48.7556 37.5178C43.7112 37.5178 38.6668 37.5204 33.6224 37.5204ZM33.596 70.0693C38.6404 70.0693 43.6848 70.0719 48.7293 70.064C49.1538 70.064 49.5942 70.0561 50.0003 69.9481C51.5824 69.532 52.6108 67.9912 52.3893 66.4399C52.1414 64.6989 50.8151 63.5664 48.9455 63.5664C38.7564 63.5585 28.57 63.5585 18.381 63.5664C16.2741 63.569 14.8475 64.9254 14.8633 66.8639C14.8792 68.7866 16.3136 70.0667 18.4601 70.0693C23.5072 70.0719 28.5516 70.0693 33.596 70.0693ZM33.5828 57.0476C38.7591 57.0476 43.9353 57.0608 49.1116 57.0424C50.9759 57.0345 52.4078 55.6069 52.4262 53.8212C52.4447 52.046 51.0128 50.5552 49.1591 50.5526C38.8065 50.5342 28.454 50.5394 18.0988 50.55C16.8463 50.55 15.8812 51.132 15.2642 52.2225C14.0116 54.4401 15.6069 57.0345 18.2491 57.045C23.3595 57.0608 28.4698 57.0476 33.5828 57.0476Z" fill="#5E7AAA"/>
</svg>
