<svg width="46" height="64" viewBox="0 0 46 64" fill="none" xmlns="http://www.w3.org/2000/svg">
<path d="M20.3087 63.3498C20.0228 63.1237 19.7107 62.924 19.4542 62.6666C17.7156 60.9272 15.9885 59.1796 14.2614 57.4287C13.727 56.8874 13.6404 56.2207 14.0097 55.7075C14.4836 55.049 15.3169 55.0193 15.9689 55.6712C17.361 57.0607 18.7417 58.4617 20.1208 59.8628C20.2777 60.0212 20.397 60.2176 20.5065 60.3628C22.0882 58.7637 23.5849 57.2521 25.031 55.7916C19.3218 50.029 13.5636 44.2168 7.84306 38.441C6.42149 39.8767 4.91168 41.4015 3.37083 42.9577C4.7973 44.3934 6.25482 45.8605 7.70907 47.3259C7.85286 47.4711 8.00482 47.6114 8.13227 47.7715C8.56038 48.3094 8.5277 48.9893 8.06364 49.4481C7.6192 49.8887 6.8692 49.9382 6.40188 49.4729C4.48358 47.5668 2.58162 45.6459 0.694362 43.7085C0.210702 43.2118 0.223774 42.5418 0.71397 42.0401C2.80547 39.9014 4.90841 37.7743 7.02443 35.6619C7.60286 35.0844 8.16985 35.1619 9.00645 35.855C10.58 34.5002 11.8659 32.9093 12.3333 30.8449C12.6846 29.292 12.8071 27.6797 12.9509 26.0856C13.2254 23.0524 13.4411 20.0143 13.6878 16.9795C13.781 15.8326 14.361 15.0042 15.397 14.5421C16.4395 14.0767 17.4329 14.2384 18.3284 14.9365C20.4264 16.5686 21.5506 18.7568 21.8953 21.384C21.946 21.7669 22.0179 22.1464 22.0996 22.6498C22.3365 22.4253 22.5097 22.2702 22.6715 22.1068C26.8953 17.8426 31.1208 13.5784 35.3414 9.31081C36.4901 8.14904 37.8643 7.64902 39.4591 7.94936C41.1159 8.26291 42.2581 9.27781 42.7761 10.8917C43.2908 12.4974 43.0065 14.014 41.8414 15.2517C40.3398 16.8475 38.7744 18.3839 37.2303 19.94C37.0718 20.0985 36.8806 20.2239 36.6225 20.4285C39.1437 21.653 40.0538 23.5574 39.4525 26.1763C42.5816 27.1615 43.6568 30.3597 42.1437 33.0166C42.3953 33.1404 42.6519 33.2509 42.8937 33.3879C45.3316 34.7609 45.9705 38.1357 44.0326 40.1622C40.8627 43.4792 37.6633 46.778 34.3038 49.8953C32.7352 51.3525 30.763 52.3657 28.9754 53.582C28.5065 53.9005 28.0424 54.2256 27.5767 54.5474C28.3839 55.7289 28.3512 56.0524 27.3839 57.031C25.6682 58.7637 23.9574 60.4998 22.2368 62.2276C21.8512 62.6154 21.4395 62.9752 21.0408 63.3481C20.7989 63.3498 20.5538 63.3498 20.3087 63.3498ZM25.8218 52.7568C26.6159 52.2288 27.397 51.7122 28.1748 51.1875C29.6453 50.194 31.2728 49.3705 32.5506 48.1675C35.8561 45.0518 39.013 41.7745 42.2123 38.5449C42.7058 38.0466 42.8186 37.3898 42.6143 36.7049C42.1682 35.2081 40.4542 34.8302 39.2859 35.9672C38.4934 36.7396 37.8431 36.8402 37.2695 36.2775C36.7025 35.7214 36.8153 34.9738 37.5816 34.1965C38.2728 33.4968 38.9689 32.8021 39.6551 32.0991C40.5636 31.1683 40.6176 29.9554 39.794 29.1451C38.9917 28.3547 37.8087 28.4223 36.9133 29.3184C36.1453 30.0858 35.3839 30.8597 34.6208 31.632C34.1944 32.0628 33.7074 32.2525 33.1274 31.9819C32.312 31.6007 32.1682 30.6353 32.8529 29.9273C34.0489 28.6913 35.2924 27.4998 36.4656 26.2423C36.7957 25.8892 37.062 25.3941 37.16 24.9238C37.3267 24.1267 36.8578 23.3445 36.1584 22.9798C35.4133 22.592 34.5342 22.6993 33.8986 23.3231C32.6731 24.5294 31.4738 25.7638 30.2597 26.9816C29.5685 27.6764 28.8136 27.7573 28.2826 27.2028C27.7499 26.6467 27.83 25.9469 28.5114 25.2538C29.3872 24.3627 30.2679 23.4782 31.147 22.5903C34.0293 19.6793 36.9084 16.765 39.7973 13.8622C40.2842 13.3721 40.6094 12.8308 40.544 12.1179C40.4705 11.334 40.0816 10.7515 39.3447 10.4759C38.5228 10.1673 37.7744 10.3538 37.1535 10.9743C35.8202 12.306 34.4999 13.6493 33.1731 14.9877C29.5424 18.6545 25.91 22.3214 22.281 25.9915C21.8953 26.381 21.4721 26.6169 20.9133 26.4321C20.3659 26.2522 20.1192 25.8463 20.0391 25.2852C19.897 24.3083 19.6976 23.3412 19.5751 22.3626C19.3349 20.4384 18.8055 18.6529 17.3136 17.3129C17.0604 17.0851 16.7058 16.9696 16.3986 16.8013C16.2842 17.1313 16.0931 17.4531 16.0653 17.7914C15.7581 21.4401 15.4542 25.0905 15.1927 28.7425C14.9672 31.8928 13.7793 34.5827 11.562 36.8089C11.2924 37.0795 10.995 37.3221 10.7532 37.5383C15.8496 42.6821 20.8447 47.7285 25.8218 52.7568Z" fill="#5E7AAA"/>
<path d="M20.9217 3.32039C20.9217 2.68504 20.9103 2.04805 20.925 1.4127C20.943 0.633788 21.4707 0.0925073 22.1701 0.10901C22.8466 0.123862 23.3515 0.651941 23.3613 1.40445C23.3776 2.67679 23.3776 3.94913 23.3613 5.22147C23.3515 6.00369 22.8188 6.54002 22.1162 6.52352C21.4364 6.50867 20.943 5.98554 20.925 5.22807C20.9103 4.59273 20.9234 3.95573 20.9217 3.32039Z" fill="#5E7AAA"/>
<path d="M13.5079 4.13562C13.9491 4.39306 14.3036 4.52178 14.552 4.76106C15.436 5.60764 16.2922 6.48557 17.1435 7.3668C17.735 7.97904 17.7497 8.7002 17.217 9.22003C16.7056 9.72005 16.0112 9.69365 15.4262 9.11606C14.5259 8.22658 13.637 7.3239 12.7563 6.41461C12.3837 6.0301 12.2138 5.53008 12.5079 5.06801C12.7383 4.70991 13.1435 4.46567 13.5079 4.13562Z" fill="#5E7AAA"/>
<path d="M27.7681 9.67554C27.4642 9.41976 27.072 9.19532 26.8335 8.85867C26.5508 8.46096 26.6178 7.95434 26.9527 7.60118C27.9364 6.56483 28.9331 5.53838 29.9723 4.56143C30.4413 4.12081 31.1325 4.23798 31.5655 4.7017C31.9805 5.14727 32.0639 5.81562 31.639 6.27109C30.6652 7.31569 29.6472 8.32069 28.621 9.31579C28.4495 9.48412 28.1505 9.52042 27.7681 9.67554Z" fill="#5E7AAA"/>
<path d="M11.0782 51.2617C11.7204 51.2452 12.3021 51.798 12.3298 52.4532C12.3576 53.1067 11.8217 53.6909 11.1648 53.7189C10.4622 53.7486 9.90501 53.2173 9.89847 52.511C9.89357 51.836 10.4197 51.2799 11.0782 51.2617Z" fill="#5E7AAA"/>
</svg>
