<svg width="60" height="66" viewBox="0 0 60 66" fill="none" xmlns="http://www.w3.org/2000/svg">
<path d="M27.9556 65.6106C26.8694 65.1703 25.6797 64.8904 24.7175 64.2589C22.5672 62.8509 21.5812 60.7226 21.4844 58.1488C21.4115 56.2168 21.4437 54.2609 21.1365 52.3647C20.5544 48.7635 18.7775 45.7358 16.3472 43.034C11.4154 37.5554 9.86252 31.1774 12.1231 24.1439C14.3718 17.148 19.2561 12.702 26.3942 11.0772C37.2474 8.60585 47.98 16.2042 49.3886 27.2502C50.1659 33.3483 48.4671 38.7143 44.2837 43.2166C41.8958 45.7853 40.1902 48.7072 39.603 52.1753C39.306 53.923 39.289 55.7287 39.2653 57.5105C39.2415 59.2582 38.9564 60.9001 37.9517 62.3525C36.7603 64.0746 35.1361 65.1413 33.0673 65.4963C32.9689 65.5134 32.8773 65.5714 32.7822 65.6089C31.175 65.6106 29.5645 65.6106 27.9556 65.6106ZM33.5765 50.757C34.6491 50.757 35.6198 50.7723 36.5872 50.7399C36.723 50.7348 36.9283 50.5129 36.969 50.3576C37.894 46.7206 39.8117 43.6945 42.3354 40.9501C45.7788 37.2055 47.1739 32.6861 46.4458 27.6376C45.1034 18.3206 36.5431 12.1951 27.365 13.8711C17.688 15.6393 11.6869 26.1442 15.0489 35.4305C15.8568 37.6629 17.0991 39.6137 18.7266 41.3341C21.123 43.8635 22.7641 46.8247 23.6602 50.204C23.7145 50.4088 23.9096 50.728 24.0505 50.7348C25.0586 50.7809 26.0701 50.7587 27.163 50.7587C26.3247 45.2664 25.4982 39.8561 24.6649 34.4082C24.1286 34.4082 23.6653 34.4184 23.2036 34.4065C22.1735 34.3792 21.4997 33.7818 21.4997 32.9063C21.4997 32.0324 22.1769 31.4146 23.207 31.4112C27.9912 31.4009 32.7754 31.4009 37.5579 31.4129C38.5813 31.4146 39.2568 32.0563 39.2398 32.9319C39.2245 33.7852 38.566 34.3741 37.5749 34.4065C37.0929 34.4219 36.6093 34.4099 36.0747 34.4099C35.2414 39.8544 34.4183 45.2476 33.5765 50.757ZM27.7095 34.444C27.7095 34.572 27.701 34.6369 27.7112 34.6983C28.5089 39.9107 29.3048 45.1213 30.1143 50.332C30.1381 50.4805 30.2925 50.6068 30.3876 50.7433C30.4707 50.5948 30.6065 50.4549 30.6303 50.2962C31.2718 46.1795 31.9014 42.0595 32.5311 37.9411C32.7076 36.7908 32.8807 35.6405 33.0623 34.444C31.2548 34.444 29.5085 34.444 27.7095 34.444ZM36.2902 53.7591C32.2968 53.7591 28.329 53.7591 24.3407 53.7591C24.3882 54.7422 24.4324 55.6877 24.4782 56.6367C28.4325 56.6367 32.3325 56.6367 36.2919 56.6367C36.2902 55.6655 36.2902 54.7371 36.2902 53.7591ZM24.8057 59.6866C25.1944 61.122 26.5639 62.3901 28.1202 62.53C29.5848 62.6614 31.08 62.6648 32.5463 62.5402C34.0364 62.4139 35.0971 61.4974 35.7963 60.1747C35.8676 60.0382 35.8965 59.8777 35.9576 59.6883C32.212 59.6866 28.536 59.6866 24.8057 59.6866Z" fill="#5E7AAA"/>
<path d="M14.1226 14.8491C14.092 15.6632 13.8222 16.1428 13.2503 16.4107C12.6223 16.706 12.0436 16.5677 11.5599 16.0933C10.6978 15.245 9.85091 14.3814 8.99895 13.5229C7.9077 12.4238 6.80457 11.3366 5.72689 10.2238C5.03446 9.50871 5.0735 8.5683 5.7778 7.97948C6.3684 7.48623 7.15927 7.48111 7.73799 8.05457C9.74399 10.0395 11.7313 12.0432 13.7034 14.0606C13.9376 14.3012 14.0343 14.6767 14.1226 14.8491Z" fill="#5E7AAA"/>
<path d="M48.3486 16.566C47.5085 16.5369 47.0435 16.2502 46.7685 15.6836C46.4885 15.1101 46.5954 14.4991 47.0927 13.9871C48.0685 12.9835 49.0647 11.997 50.0508 11.0054C50.9774 10.0718 51.9006 9.13484 52.8341 8.20809C53.574 7.47419 54.4412 7.43323 55.076 8.0835C55.692 8.71499 55.6564 9.57859 54.9504 10.2937C53.0564 12.2104 51.1607 14.1253 49.2429 16.0181C48.9595 16.2963 48.5488 16.4465 48.3486 16.566Z" fill="#5E7AAA"/>
<path d="M28.8823 4.68715C28.8823 3.75016 28.8705 2.81316 28.8857 1.87787C28.9027 0.87602 29.4865 0.220636 30.3436 0.205275C31.2244 0.188208 31.8455 0.857246 31.854 1.88811C31.8693 3.73991 31.8693 5.59172 31.854 7.44352C31.8455 8.44025 31.2481 9.10246 30.3979 9.12294C29.5306 9.14342 28.9044 8.45903 28.8874 7.43499C28.8705 6.51677 28.8823 5.60196 28.8823 4.68715Z" fill="#5E7AAA"/>
<path d="M55.4597 34.3962C54.4855 34.3962 53.5114 34.4252 52.5406 34.3877C51.7905 34.3587 51.261 33.8944 51.1065 33.2459C50.9691 32.669 51.2033 31.9846 51.7277 31.6928C52.0281 31.5255 52.4048 31.4248 52.7494 31.4197C54.5907 31.3941 56.4321 31.3941 58.2718 31.4129C59.2697 31.4231 59.9197 32.0256 59.935 32.8841C59.9503 33.7613 59.2782 34.3826 58.2531 34.4031C57.3231 34.4218 56.3914 34.4065 55.4597 34.4065C55.4597 34.4031 55.4597 34.3996 55.4597 34.3962Z" fill="#5E7AAA"/>
<path d="M5.28048 34.403C4.30633 34.4013 3.33218 34.4354 2.35972 34.3945C1.20737 34.345 0.528522 33.3841 0.906981 32.3857C1.15476 31.7337 1.67239 31.4231 2.33936 31.4162C4.2656 31.3992 6.19184 31.3889 8.11638 31.4179C9.05998 31.4316 9.67604 32.0801 9.66416 32.9267C9.65228 33.7698 9.03113 34.3689 8.07226 34.3979C7.14393 34.4252 6.2122 34.403 5.28048 34.403Z" fill="#5E7AAA"/>
</svg>
