<svg width="60" height="61" viewBox="0 0 60 61" fill="none" xmlns="http://www.w3.org/2000/svg">
<path d="M0.675781 30.731C0.746008 16.0591 10.9175 3.69921 25.1716 1.11999C29.3074 0.372365 33.4204 0.52804 37.4973 1.55435C38.6513 1.84456 39.3536 2.6902 39.3858 3.77417C39.4162 4.80816 38.7671 5.76336 37.7384 6.01513C37.279 6.1266 36.7514 6.0824 36.2807 5.98246C26.7204 3.93176 18.4716 6.39183 11.7868 13.601C7.09108 18.6671 5.11524 24.8769 5.37717 31.7939C5.85737 44.5151 15.4367 53.6903 26.4129 55.593C39.5491 57.8705 52.6055 48.5031 54.885 35.1841C55.5038 31.5632 55.407 27.9827 54.5567 24.4137C54.2112 22.9607 54.923 21.723 56.2459 21.4232C57.4739 21.1445 58.6355 21.9555 58.9753 23.3278C63.0864 39.9582 52.5106 56.725 35.8669 59.9673C19.9615 63.0655 4.50408 52.5737 1.36286 36.5007C0.99275 34.6056 0.897849 32.6549 0.675781 30.731Z" fill="#5E7AAA"/>
<path d="M30.3897 32.3243C30.6041 32.0264 30.7446 31.7689 30.942 31.5671C39.1927 23.2048 47.449 14.8483 55.6997 6.48599C56.2008 5.9786 56.7304 5.56731 57.4725 5.55002C58.412 5.52695 59.1294 5.92671 59.5717 6.76083C60.0329 7.62569 59.9285 8.47518 59.361 9.25932C59.194 9.48996 58.9776 9.68215 58.7764 9.88587C50.1196 18.6518 41.4627 27.4157 32.8039 36.1797C32.5022 36.4853 32.2175 36.8062 31.9081 37.1041C30.9477 38.0343 29.6039 38.044 28.6663 37.0964C25.4814 33.8791 22.3041 30.6542 19.1325 27.4215C18.138 26.4086 18.1114 25.0229 19.0319 24.0812C19.9449 23.1471 21.338 23.1625 22.3288 24.1619C24.967 26.8142 27.5882 29.4837 30.3897 32.3243Z" fill="#5E7AAA"/>
</svg>
