<svg width="77" height="66" viewBox="0 0 77 66" fill="none" xmlns="http://www.w3.org/2000/svg">
<path d="M76.8106 40.6685C76.6699 41.7896 76.5479 42.9137 76.3822 44.0348C75.175 52.234 71.6004 59.2655 65.7959 65.1822C64.9077 66.0884 63.8068 66.1102 62.9061 65.2258C61.0172 63.3698 59.1439 61.5014 57.2799 59.6236C56.4574 58.7953 56.4199 57.6525 57.1423 56.9113C57.8867 56.1484 59.0594 56.1826 59.9257 57.0328C61.3706 58.4528 62.7936 59.8883 64.2822 61.3768C69.6051 55.3605 72.4979 48.438 73.0108 40.4163C72.6856 40.4007 72.426 40.382 72.1664 40.382C70.3807 40.3789 68.598 40.3882 66.8123 40.3758C65.6426 40.3696 64.7982 39.5942 64.7857 38.5541C64.7763 37.5327 65.6364 36.7012 66.781 36.6888C68.5668 36.6701 70.3494 36.6825 72.1351 36.6825C72.401 36.6825 72.6668 36.6825 73.0108 36.6825C72.4917 28.6608 69.5894 21.7445 64.2728 15.7189C62.8342 17.1513 61.4488 18.5526 60.0352 19.929C59.7443 20.2124 59.3847 20.4864 59.0063 20.6172C58.1931 20.8944 57.3487 20.5581 56.9171 19.8917C56.4574 19.1817 56.5294 18.2381 57.1705 17.5779C58.4465 16.2669 59.7568 14.9871 61.0516 13.6947C61.2392 13.5079 61.4175 13.3117 61.6302 13.0906C55.6005 7.82789 48.6639 4.93806 40.6421 4.40556C40.6265 4.69206 40.5952 4.95363 40.5952 5.2121C40.5921 6.9653 40.6046 8.7185 40.5889 10.4686C40.5795 11.6114 39.9916 12.3837 39.069 12.5394C37.8524 12.7481 36.8955 11.9135 36.8736 10.5589C36.8423 8.8057 36.8642 7.05561 36.8642 5.30241C36.8642 5.0346 36.8642 4.76679 36.8642 4.5021C30.9846 4.50521 22.3248 7.17705 15.629 13.3086C15.9261 13.4736 16.2639 13.5795 16.4891 13.7975C17.7182 14.9839 18.9253 16.1891 20.1263 17.4035C21.0176 18.3035 21.0645 19.4588 20.2639 20.2186C19.5039 20.9411 18.3499 20.8601 17.4805 20.0007C16.0575 18.5962 14.647 17.1825 13.2303 15.7687C8.15452 21.0096 4.6612 29.4175 4.51109 36.6825C5.09904 36.6825 5.687 36.6825 6.27182 36.6825C7.73545 36.6825 9.19595 36.6701 10.6596 36.6888C11.8105 36.7043 12.6705 37.514 12.6705 38.5385C12.6705 39.5755 11.8199 40.3696 10.6596 40.3758C8.62989 40.3882 6.60333 40.3789 4.58927 40.3789C3.63541 45.0686 8.7675 57.503 13.2241 61.3177C14.5094 60.0347 15.801 58.7455 17.0927 57.4594C17.321 57.2321 17.543 56.9954 17.7932 56.7961C18.5563 56.1857 19.6384 56.2356 20.3014 56.902C20.955 57.559 21.0144 58.6552 20.3796 59.3901C19.9105 59.9319 19.3819 60.4177 18.8722 60.9253C17.4711 62.3235 16.07 63.7217 14.6658 65.1137C13.6306 66.1382 12.5829 66.132 11.5697 65.0888C5.52124 58.8732 1.86842 51.4991 0.94271 42.8764C-0.298873 31.3264 3.0631 21.2151 10.9629 12.6858C16.9957 6.18368 24.4953 2.23508 33.2958 1.05486C45.2394 -0.548866 55.7882 2.71153 64.6606 10.8703C71.4878 17.1482 75.4064 24.9831 76.526 34.1851C76.6136 34.9169 76.7168 35.6456 76.8106 36.3743C76.8106 37.8067 76.8106 39.236 76.8106 40.6685Z" fill="#5E7AAA"/>
<path d="M43.0312 32.8741C45.8396 35.2315 46.3181 39.1894 44.8451 41.827C42.8811 45.3521 38.5434 46.4358 34.9344 44.449C32.7577 43.2501 31.4066 39.8496 31.8945 37.2525C32.3855 34.646 34.5466 32.3572 37.1548 31.8091C37.6114 31.7126 38.1024 31.588 38.5465 31.6565C39.3784 31.7873 39.6442 31.3545 39.9038 30.6912C41.4863 26.6772 43.0906 22.6725 44.7325 18.6835C44.9452 18.1665 45.3267 17.6465 45.774 17.3164C46.3682 16.8773 47.1 16.9334 47.713 17.4005C48.3072 17.852 48.573 18.4748 48.4416 19.2222C48.3916 19.5087 48.2728 19.789 48.1633 20.063C46.5402 24.1143 44.9108 28.1626 43.2845 32.2108C43.1939 32.435 43.1125 32.6624 43.0312 32.8741ZM38.6435 41.7429C40.498 41.7585 41.9616 40.3945 41.9147 38.5635C41.8616 36.4117 40.8733 35.4557 38.8561 35.3436C36.9859 35.2377 35.491 36.6982 35.5473 38.551C35.6099 40.653 36.6075 41.609 38.6435 41.7429Z" fill="#5E7AAA"/>
</svg>
