<svg width="52" height="66" viewBox="0 0 52 66" fill="none" xmlns="http://www.w3.org/2000/svg">
<path d="M5.76839 65.1007C4.85506 64.7483 3.8499 64.5264 3.04677 64.0183C1.42549 62.991 0.707512 61.4272 0.707512 59.6022C0.699164 44.5133 0.695824 29.4244 0.709182 14.3355C0.710852 11.4691 2.67944 9.47739 5.65819 8.89529C8.1711 8.40287 10.6339 7.67289 13.1118 7.02787C20.7407 5.04244 28.3662 3.04444 35.9968 1.05901C39.9072 0.041132 43.3401 2.51426 43.3618 6.3498C43.3669 7.14429 43.3618 7.9372 43.3618 8.82765C44.2652 8.82765 45.1434 8.81978 46.0217 8.82922C47.9569 8.85282 49.5598 9.52773 50.7486 10.9956C51.5918 12.037 51.8957 13.2358 51.8957 14.5243C51.894 21.9752 51.894 29.4244 51.894 36.8753C51.894 44.389 51.8957 51.9012 51.894 59.415C51.894 61.7308 50.8772 63.496 48.6515 64.55C48.0871 64.8159 47.4393 64.9229 46.8298 65.1022C33.1432 65.1007 19.455 65.1007 5.76839 65.1007ZM49.0605 37.0279C49.0605 29.555 49.0589 22.0821 49.0622 14.6093C49.0622 13.6984 48.8719 12.8677 48.1205 12.2195C47.4326 11.6249 46.6011 11.4959 45.7111 11.4959C37.6247 11.499 29.5383 11.4974 21.4503 11.4974C16.563 11.4974 11.6758 11.5021 6.78691 11.4943C5.65318 11.4927 4.60795 11.757 4.05193 12.7324C3.723 13.3098 3.5577 14.0398 3.55603 14.7021C3.52765 25.8799 3.536 37.0578 3.536 48.2356C3.536 51.9406 3.53934 55.6455 3.53433 59.3505C3.53266 60.3401 3.78979 61.2101 4.6547 61.8519C5.32425 62.3491 6.104 62.4325 6.91882 62.4325C17.094 62.4293 27.2692 62.4309 37.4444 62.4309C40.2445 62.4309 43.0429 62.4277 45.843 62.4325C46.8181 62.434 47.6814 62.2075 48.3509 61.4869C48.9487 60.8419 49.0622 60.0726 49.0622 59.2608C49.0606 51.8477 49.0605 44.4378 49.0605 37.0279ZM40.5283 8.80247C40.5283 7.93877 40.5384 7.14743 40.5267 6.35609C40.495 4.24953 38.8854 3.10107 36.7314 3.65957C31.9461 4.89928 27.164 6.14685 22.3803 7.39286C20.6822 7.83494 18.9841 8.27859 17.286 8.72067C17.2927 8.74898 17.2977 8.77573 17.3044 8.80405C25.0151 8.80247 32.7275 8.80247 40.5283 8.80247Z" fill="white"/>
<path d="M26.2977 46.3445C17.6921 46.3445 10.6476 39.6913 10.671 31.5876C10.6943 23.4508 17.7321 16.8353 26.3311 16.8668C34.9335 16.8967 41.9028 23.476 41.9245 31.5891C41.9479 39.6929 34.9017 46.3461 26.2977 46.3445ZM30.3952 30.233C30.4303 30.1559 30.4637 30.1166 30.462 30.0788C30.3568 27.4327 29.9277 24.84 28.8507 22.381C28.5418 21.6746 28.1127 20.9997 27.6385 20.3751C26.8204 19.2959 25.8302 19.2943 24.977 20.3326C24.6548 20.726 24.3759 21.1602 24.1321 21.6022C23.1921 23.3092 22.7212 25.153 22.4391 27.0409C22.2821 28.0855 22.1953 29.1412 22.0734 30.233C24.9353 30.233 27.6736 30.233 30.3952 30.233ZM22.035 32.9437C22.2253 34.3942 22.3322 35.7535 22.5977 37.086C23.0051 39.1249 23.5694 41.1292 24.9403 42.8267C25.8169 43.9123 26.8137 43.9343 27.6402 42.8205C28.1561 42.1251 28.6203 41.3684 28.9526 40.5817C29.9778 38.1527 30.3752 35.6009 30.4737 32.9437C30.2015 32.9437 29.9828 32.9437 29.7657 32.9437C27.2361 32.9437 24.7082 32.9437 22.035 32.9437ZM38.909 30.2409C38.3898 25.3749 34.5377 21.596 31.3019 20.6158C31.7594 22.1167 32.3321 23.6726 32.6944 25.2695C33.0617 26.893 33.2203 28.5575 33.4741 30.2409C35.254 30.2409 37.0623 30.2409 38.909 30.2409ZM21.3254 20.5136C16.9574 22.4313 14.3927 25.6455 13.6531 30.2236C15.5448 30.2236 17.3682 30.2236 19.1264 30.2236C19.3818 28.5371 19.5371 26.8883 19.9011 25.2805C20.2618 23.6821 20.8345 22.1246 21.3254 20.5136ZM38.9491 32.9893C37.0557 32.9893 35.224 32.9893 33.3756 32.9893C33.1452 36.3482 32.6326 39.6079 31.0497 42.789C35.6414 40.7926 38.1894 37.5627 38.9491 32.9893ZM19.2148 32.9799C17.3448 32.9799 15.5164 32.9799 13.6464 32.9799C14.4011 37.5596 16.9507 40.7941 21.5558 42.7874C19.9462 39.5969 19.457 36.3246 19.2148 32.9799Z" fill="white"/>
<path d="M25.9788 49.104C30.532 49.104 35.087 49.104 39.6403 49.104C40.9193 49.104 41.5872 49.5492 41.6089 50.4113C41.6323 51.2939 40.9293 51.7801 39.6286 51.7801C30.5204 51.7801 21.4138 51.7801 12.3055 51.7738C11.9549 51.7738 11.5892 51.7486 11.2569 51.6542C10.6759 51.489 10.2935 50.888 10.3503 50.3358C10.4104 49.7427 10.8479 49.255 11.4556 49.1543C11.7595 49.104 12.0751 49.1008 12.384 49.1008C16.9156 49.0977 21.4472 49.0993 25.9788 49.0993C25.9788 49.1008 25.9788 49.1024 25.9788 49.104Z" fill="white"/>
<path d="M26.0349 54.4437C28.6763 54.4437 31.3178 54.4405 33.9593 54.4484C34.2665 54.45 34.5821 54.4736 34.8793 54.5428C35.5205 54.6922 35.9229 55.2271 35.9028 55.8407C35.8828 56.4275 35.467 56.9325 34.8543 57.0584C34.5537 57.1213 34.2398 57.1418 33.9309 57.1418C28.6263 57.1465 23.3199 57.1449 18.0153 57.1449C17.8817 57.1449 17.7481 57.1496 17.6162 57.1418C16.6361 57.0851 16.0233 56.5565 16.0333 55.7825C16.0433 55.0085 16.6678 54.4641 17.6429 54.45C19.1523 54.4279 20.6618 54.4437 22.1712 54.4437C23.4602 54.4437 24.7475 54.4437 26.0349 54.4437Z" fill="white"/>
</svg>
