<svg width="70" height="69" viewBox="0 0 70 69" fill="none" xmlns="http://www.w3.org/2000/svg">
<path d="M13.8669 23.7124C13.562 23.9412 13.3411 24.1181 13.1111 24.2807C12.2933 24.8598 11.1415 24.7579 10.5737 24.0627C9.96221 23.3156 10.1137 22.3613 10.9881 21.6643C19.6554 14.7657 28.3263 7.87074 36.9991 0.979329C37.8479 0.305558 38.7917 0.332366 39.677 1.03652C47.2709 7.07007 54.8612 13.1072 62.4532 19.1425C63.5156 19.9861 64.5817 20.8243 65.6332 21.6804C66.4765 22.3649 66.6262 23.287 66.0421 24.0323C65.4744 24.7579 64.2878 24.8633 63.4591 24.2593C63.2437 24.102 63.0374 23.9358 62.7417 23.7088C62.7417 30.4161 62.7417 37.0162 62.7417 43.5788C63.5686 43.6396 64.3791 43.6056 65.1421 43.7754C67.2615 44.2436 68.7401 45.5072 69.3681 47.5499C69.9759 49.5301 69.3535 51.2316 67.8511 52.6542C60.7683 59.3651 52.6432 64.3585 43.0358 66.8087C40.6901 67.4074 38.2531 67.7488 35.8362 67.9704C32.7987 68.251 29.9072 67.3842 27.1215 66.3029C24.8178 65.4093 22.5706 64.3692 20.3399 63.3076C19.3542 62.8376 18.5346 62.7965 17.5963 63.397C15.6887 64.6158 13.7354 65.765 11.795 66.9374C10.6504 67.629 9.76323 67.4038 9.13162 66.2493C6.33502 61.1433 3.5439 56.0355 0.758251 50.9224C0.146723 49.8 0.424192 48.969 1.58153 48.3792C2.32814 47.9985 3.08206 47.6286 3.83415 47.2551C5.82207 46.2667 7.79904 45.2838 9.58981 43.9416C10.7545 43.0695 12.14 42.4833 13.405 41.7326C13.6277 41.6004 13.8833 41.2948 13.8851 41.066C13.9107 35.4006 13.9052 29.7352 13.9034 24.0698C13.9034 23.9912 13.8869 23.9108 13.8669 23.7124ZM48.6017 51.6158C48.7568 51.5264 48.8353 51.4835 48.9102 51.4389C52.2015 49.4873 55.4855 47.5249 58.7932 45.5983C59.2441 45.3356 59.4175 45.08 59.4157 44.5618C59.3974 36.9805 59.3956 29.3974 59.4175 21.8162C59.4193 21.2443 59.2404 20.8868 58.7895 20.5312C53.169 16.0865 47.5648 11.622 41.957 7.16301C40.7412 6.19614 39.5218 5.23463 38.3189 4.28027C38.2039 4.35354 38.1436 4.38393 38.0907 4.42682C31.2616 9.8563 24.429 15.2822 17.6145 20.7314C17.3809 20.9172 17.2093 21.3193 17.2074 21.6214C17.1837 27.6424 17.1892 33.6635 17.191 39.6845C17.191 39.8811 17.2093 40.0777 17.2239 40.344C21.5155 39.2163 25.652 39.4861 29.6991 41.4092C29.6991 40.7407 29.6917 40.1849 29.7009 39.6291C29.7356 37.0895 29.6041 34.532 29.8469 32.0103C30.3471 26.8275 35.8216 23.4193 40.8891 24.9902C44.5017 26.1108 46.8784 29.3152 46.893 33.1434C46.9095 37.6257 46.893 42.1079 46.9095 46.5902C46.9113 46.8404 47.008 47.1836 47.1888 47.323C48.8298 48.5901 49.1566 49.4908 48.6017 51.6158ZM10.9407 46.9137C10.9607 47.0084 10.9607 47.0549 10.9808 47.0924C13.2334 51.1958 15.4842 55.2992 17.7587 59.3901C17.8518 59.5581 18.1859 59.7046 18.394 59.6885C19.5714 59.5992 20.643 59.878 21.6853 60.3981C23.1055 61.1058 24.544 61.7795 25.9915 62.4354C30.5333 64.4961 35.1699 65.3772 40.1991 64.2083C47.2125 62.5784 53.587 59.7028 59.3317 55.4994C61.5168 53.8998 63.543 52.0858 65.5802 50.304C66.6992 49.3246 66.4291 47.8323 65.0983 47.1389C64.2257 46.6849 63.3495 46.7171 62.4934 47.2193C58.6033 49.4998 54.7242 51.7963 50.8123 54.0428C49.7773 54.6362 48.6856 55.1777 47.5557 55.5601C42.7675 57.1829 37.8187 57.3884 32.8261 56.9363C31.7052 56.8344 30.5972 56.5038 29.5056 56.2035C29.0893 56.0891 28.6677 55.8228 28.3683 55.5154C27.8882 55.024 27.9101 54.2179 28.3062 53.6514C28.7352 53.0384 29.4709 52.8025 30.3179 53.0795C32.419 53.7694 34.573 54.0714 36.7837 53.9463C39.3484 53.8015 41.7799 53.1957 43.965 51.8195C44.6331 51.3978 45.241 50.9045 45.6864 50.0145C44.8321 49.8375 44.0928 49.6392 43.3407 49.5373C40.9274 49.2085 38.4923 48.9958 36.0936 48.5865C33.8209 48.1987 31.7071 47.4177 30.1372 45.5948C29.7264 45.1176 29.1204 44.7655 28.5435 44.4635C25.6776 42.9586 22.6272 42.6084 19.4528 43.1946C16.3111 43.7736 13.5127 45.114 10.9407 46.9137ZM43.5159 46.2989C43.5616 46.197 43.5944 46.1559 43.5944 46.1166C43.5963 41.6594 43.6967 37.1985 43.5616 32.7431C43.4612 29.4171 40.2867 27.1974 37.0757 27.9731C34.6825 28.5521 33.005 30.7629 32.9885 33.424C32.9703 36.4336 32.983 39.4432 32.983 42.4529C32.983 44.131 33.078 44.2669 34.6899 44.8656C34.8596 44.9281 35.0312 44.9925 35.2046 45.0461C37.9027 45.8646 40.692 46.0898 43.5159 46.2989ZM14.9329 61.247C12.5982 57.0632 10.2981 52.9455 7.97611 48.7867C6.73115 49.4122 5.54095 50.0109 4.30877 50.6293C6.65995 54.9292 8.98194 59.1774 11.3185 63.4524C12.5525 62.7 13.7099 61.994 14.9329 61.247Z" fill="white"/>
</svg>
