<svg width="67" height="75" viewBox="0 0 67 75" fill="none" xmlns="http://www.w3.org/2000/svg">
<path d="M30.7664 74.4056C29.5358 73.9067 28.1878 73.5895 27.0975 72.874C24.6612 71.2787 23.544 68.8672 23.4344 65.9511C23.3517 63.7621 23.3883 61.5459 23.0402 59.3975C22.3807 55.3172 20.3674 51.8867 17.6138 48.8255C12.0258 42.6181 10.2664 35.3915 12.8277 27.4224C15.3755 19.4958 20.9096 14.4583 28.9974 12.6173C41.2943 9.81723 53.4548 18.4264 55.0508 30.9419C55.9315 37.8513 54.0066 43.9311 49.2667 49.0324C46.5612 51.9428 44.6286 55.2534 43.9633 59.1829C43.6268 61.163 43.6076 63.209 43.5807 65.2279C43.5537 67.2081 43.2307 69.0684 42.0923 70.714C40.7425 72.6652 38.9022 73.8738 36.5582 74.276C36.4467 74.2954 36.3429 74.3611 36.2352 74.4037C34.4142 74.4056 32.5893 74.4056 30.7664 74.4056ZM37.1351 57.5759C38.3504 57.5759 39.4503 57.5933 40.5463 57.5565C40.7002 57.5507 40.9328 57.2993 40.979 57.1234C42.027 53.0025 44.1998 49.5739 47.0592 46.4644C50.9608 42.2216 52.5414 37.101 51.7165 31.3808C50.1954 20.8243 40.4963 13.884 30.0973 15.783C19.1329 17.7864 12.3335 29.6888 16.1428 40.2105C17.0581 42.7399 18.4656 44.9502 20.3097 46.8995C23.0248 49.7653 24.8843 53.1204 25.8996 56.9493C25.9611 57.1814 26.1822 57.543 26.3418 57.5507C27.484 57.603 28.6301 57.5778 29.8684 57.5778C28.9185 51.3549 27.9821 45.2248 27.0379 39.0522C26.4303 39.0522 25.9053 39.0638 25.3823 39.0502C24.2151 39.0193 23.4517 38.3425 23.4517 37.3504C23.4517 36.3603 24.2189 35.6603 25.3862 35.6564C30.8068 35.6448 36.2275 35.6448 41.6462 35.6584C42.8057 35.6603 43.571 36.3874 43.5518 37.3794C43.5345 38.3463 42.7884 39.0135 41.6654 39.0502C41.1193 39.0676 40.5713 39.0541 39.9656 39.0541C39.0215 45.2229 38.0889 51.3336 37.1351 57.5759ZM30.4876 39.0928C30.4876 39.2378 30.478 39.3113 30.4895 39.3809C31.3933 45.2867 32.2951 51.1905 33.2124 57.0944C33.2393 57.2626 33.4143 57.4057 33.522 57.5604C33.6162 57.3922 33.77 57.2336 33.7969 57.0538C34.5238 52.3895 35.2372 47.7213 35.9506 43.0551C36.1506 41.7517 36.3467 40.4484 36.5525 39.0928C34.5046 39.0928 32.5259 39.0928 30.4876 39.0928ZM40.2098 60.9774C35.6852 60.9774 31.1895 60.9774 26.6707 60.9774C26.7245 62.0913 26.7745 63.1626 26.8264 64.2378C31.3068 64.2378 35.7256 64.2378 40.2117 64.2378C40.2098 63.1374 40.2098 62.0855 40.2098 60.9774ZM27.1975 67.6934C27.6379 69.3197 29.1897 70.7565 30.953 70.9151C32.6124 71.064 34.3065 71.0679 35.9679 70.9267C37.6562 70.7836 38.858 69.7452 39.6502 68.2465C39.731 68.0918 39.7637 67.91 39.8329 67.6954C35.5891 67.6934 31.4241 67.6934 27.1975 67.6934Z" fill="#5E7AAA"/>
<path d="M15.0915 16.8912C15.0569 17.8136 14.7511 18.357 14.1031 18.6606C13.3917 18.9951 12.7359 18.8385 12.1879 18.3009C11.2111 17.3398 10.2516 16.3613 9.28626 15.3886C8.04983 14.1433 6.79994 12.9115 5.5789 11.6506C4.79435 10.8404 4.83858 9.77486 5.63659 9.10771C6.30576 8.54885 7.20183 8.54304 7.85754 9.19279C10.1304 11.4418 12.3821 13.712 14.6165 15.9978C14.8819 16.2704 14.9915 16.6959 15.0915 16.8912Z" fill="#5E7AAA"/>
<path d="M53.8724 18.8363C52.9206 18.8035 52.3937 18.4786 52.0822 17.8366C51.7649 17.1868 51.886 16.4945 52.4495 15.9144C53.5551 14.7773 54.6839 13.6596 55.8011 12.5361C56.851 11.4783 57.897 10.4167 58.9546 9.36661C59.793 8.53508 60.7756 8.48867 61.4948 9.22544C62.1928 9.94094 62.1524 10.9194 61.3525 11.7297C59.2065 13.9013 57.0587 16.071 54.8858 18.2156C54.5646 18.5308 54.0993 18.701 53.8724 18.8363Z" fill="#5E7AAA"/>
<path d="M31.8155 5.3773C31.8155 4.31566 31.8021 3.25401 31.8194 2.1943C31.8386 1.05917 32.5001 0.316594 33.4712 0.29919C34.4691 0.279852 35.1729 1.03789 35.1825 2.2059C35.1998 4.30405 35.1998 6.40221 35.1825 8.50037C35.1729 9.62969 34.4961 10.38 33.5327 10.4032C32.5501 10.4264 31.8405 9.65097 31.8213 8.4907C31.8021 7.45032 31.8155 6.41381 31.8155 5.3773Z" fill="#5E7AAA"/>
<path d="M61.9292 39.0387C60.8254 39.0387 59.7217 39.0715 58.6218 39.029C57.7719 38.9961 57.1719 38.4701 56.9969 37.7353C56.8412 37.0817 57.1065 36.3062 57.7007 35.9756C58.0411 35.786 58.468 35.6719 58.8583 35.6661C60.9447 35.6371 63.031 35.6371 65.1154 35.6584C66.2461 35.67 66.9826 36.3526 66.9999 37.3253C67.0172 38.3193 66.2557 39.0232 65.0943 39.0464C64.0405 39.0677 62.9849 39.0503 61.9292 39.0503C61.9292 39.0464 61.9292 39.0425 61.9292 39.0387Z" fill="#5E7AAA"/>
<path d="M5.07454 39.0465C3.9708 39.0445 2.86705 39.0832 1.76523 39.0368C0.459576 38.9807 -0.309586 37.892 0.119222 36.7607C0.399966 36.022 0.986451 35.6701 1.74215 35.6623C3.92465 35.643 6.10714 35.6314 8.28771 35.6643C9.35685 35.6797 10.0549 36.4146 10.0414 37.3737C10.0279 38.329 9.32416 39.0078 8.23772 39.0407C7.18589 39.0716 6.13022 39.0465 5.07454 39.0465Z" fill="#5E7AAA"/>
</svg>
