<svg width="53" height="75" viewBox="0 0 53 75" fill="none" xmlns="http://www.w3.org/2000/svg">
<path d="M23.6081 74.7627C23.2701 74.4954 22.9011 74.2594 22.5979 73.955C20.5426 71.8988 18.5008 69.8328 16.459 67.7629C15.8273 67.123 15.725 66.3348 16.1615 65.7281C16.7217 64.9497 17.7069 64.9145 18.4776 65.6852C20.1234 67.3278 21.7557 68.9841 23.386 70.6404C23.5714 70.8277 23.7125 71.0599 23.8419 71.2316C25.7117 69.3411 27.4812 67.5541 29.1907 65.8276C22.4414 59.015 15.6342 52.144 8.87136 45.3158C7.1908 47.0131 5.40593 48.8157 3.58435 50.6554C5.27071 52.3527 6.99377 54.0871 8.71296 55.8195C8.88295 55.9911 9.06259 56.157 9.21327 56.3462C9.71937 56.9822 9.68073 57.786 9.13213 58.3283C8.60672 58.8492 7.72008 58.9077 7.16762 58.3576C4.89983 56.1043 2.65135 53.8334 0.420262 51.5431C-0.151515 50.9559 -0.136062 50.1638 0.443442 49.5707C2.91599 47.0423 5.40206 44.5276 7.90359 42.0305C8.5874 41.3477 9.2577 41.4394 10.2467 42.2587C12.1069 40.6571 13.6272 38.7764 14.1796 36.3358C14.5949 34.5 14.7398 32.594 14.9098 30.7094C15.2343 27.1237 15.4893 23.532 15.781 19.9443C15.8911 18.5885 16.5768 17.6091 17.8015 17.0629C19.0339 16.5127 20.2084 16.7039 21.2669 17.5291C23.7472 19.4586 25.0762 22.0455 25.4838 25.1513C25.5437 25.6039 25.6287 26.0526 25.7253 26.6476C26.0054 26.3823 26.2101 26.1989 26.4013 26.0058C31.3947 20.9647 36.3901 15.9235 41.3796 10.8785C42.7376 9.50507 44.3621 8.91394 46.2474 9.26901C48.2061 9.63968 49.5564 10.8395 50.1687 12.7475C50.7772 14.6457 50.4411 16.4386 49.0638 17.9017C47.2886 19.7883 45.438 21.6046 43.6126 23.4443C43.4252 23.6315 43.1992 23.7798 42.894 24.0217C45.8746 25.4693 46.9506 27.7206 46.2397 30.8167C49.9389 31.9814 51.2099 35.7622 49.4212 38.9032C49.7186 39.0495 50.0219 39.1802 50.3078 39.3421C53.1899 40.9653 53.9452 44.9549 51.6542 47.3506C47.9067 51.2719 44.1245 55.1718 40.153 58.857C38.2986 60.5797 35.967 61.7775 33.8538 63.2153C33.2994 63.5918 32.7508 63.9762 32.2002 64.3566C33.1545 65.7534 33.1159 66.1358 31.9723 67.2927C29.944 69.3411 27.9216 71.3935 25.8875 73.4361C25.4316 73.8945 24.9449 74.3198 24.4735 74.7607C24.1876 74.7627 23.8979 74.7627 23.6081 74.7627ZM30.1256 62.2399C31.0644 61.6156 31.9878 61.0049 32.9072 60.3846C34.6458 59.2101 36.5697 58.2366 38.0803 56.8144C41.9881 53.1311 45.7201 49.2566 49.5023 45.4387C50.0857 44.8495 50.219 44.0731 49.9775 43.2635C49.4501 41.494 47.4238 41.0472 46.0427 42.3914C45.1058 43.3044 44.337 43.4234 43.659 42.7582C42.9887 42.1007 43.122 41.217 44.0279 40.2981C44.845 39.4709 45.6679 38.6496 46.4792 37.8185C47.5532 36.7182 47.617 35.2843 46.6434 34.3264C45.695 33.3919 44.2964 33.4719 43.2379 34.5312C42.33 35.4384 41.4298 36.3534 40.5277 37.2664C40.0236 37.7756 39.4479 37.9999 38.7622 37.68C37.7983 37.2293 37.6283 36.088 38.4376 35.2511C39.8516 33.7899 41.3216 32.3813 42.7086 30.8947C43.0988 30.4772 43.4136 29.892 43.5295 29.336C43.7266 28.3937 43.1722 27.469 42.3454 27.0378C41.4646 26.5793 40.4253 26.7062 39.6739 27.4436C38.2252 28.8697 36.8073 30.329 35.3721 31.7687C34.555 32.5901 33.6625 32.6857 33.0347 32.0302C32.405 31.3727 32.4997 30.5455 33.3052 29.7262C34.3405 28.6727 35.3817 27.627 36.421 26.5774C39.8284 23.136 43.2321 19.6907 46.6473 16.2591C47.2229 15.6797 47.6073 15.0398 47.5301 14.197C47.4431 13.2703 46.9834 12.5816 46.1122 12.2558C45.1406 11.891 44.2559 12.1115 43.5218 12.845C41.9456 14.4194 40.3848 16.0074 38.8162 17.5896C34.5241 21.9245 30.2299 26.2594 25.9397 30.5982C25.4838 31.0586 24.9835 31.3376 24.3229 31.1191C23.6757 30.9064 23.3841 30.4265 23.2894 29.7632C23.1214 28.6083 22.8857 27.4651 22.7408 26.3082C22.4569 24.0334 21.831 21.9226 20.0674 20.3384C19.768 20.0692 19.3488 19.9326 18.9856 19.7336C18.8504 20.1238 18.6244 20.5042 18.5916 20.9042C18.2284 25.2176 17.8691 29.533 17.5601 33.8504C17.2935 37.5746 15.8891 40.7546 13.2679 43.3864C12.9491 43.7063 12.5976 43.9931 12.3117 44.2487C18.3366 50.3296 24.2417 56.2955 30.1256 62.2399Z" fill="#5E7AAA"/>
<path d="M24.3331 3.79689C24.3331 3.04579 24.3196 2.29274 24.337 1.54165C24.3582 0.620821 24.9822 -0.0190749 25.8089 0.000434125C26.6087 0.0179922 27.2055 0.64228 27.2171 1.53189C27.2364 3.03604 27.2364 4.54018 27.2171 6.04432C27.2055 6.96905 26.5758 7.60309 25.7452 7.58359C24.9416 7.56603 24.3582 6.94759 24.337 6.05213C24.3196 5.30103 24.3351 4.54798 24.3331 3.79689Z" fill="#5E7AAA"/>
<path d="M15.5679 4.7605C16.0895 5.06484 16.5086 5.21701 16.8022 5.49989C17.8473 6.5007 18.8595 7.53858 19.8659 8.58036C20.5652 9.30415 20.5825 10.1567 19.9528 10.7712C19.3482 11.3623 18.5272 11.3311 17.8357 10.6483C16.7713 9.59678 15.7205 8.52964 14.6793 7.45469C14.2389 7.00013 14.038 6.40901 14.3857 5.86276C14.6581 5.43941 15.1371 5.15068 15.5679 4.7605Z" fill="#5E7AAA"/>
<path d="M32.4257 11.3099C32.0665 11.0075 31.6028 10.7421 31.3208 10.3442C30.9866 9.874 31.0658 9.27507 31.4618 8.85758C32.6247 7.63241 33.803 6.41895 35.0316 5.26402C35.586 4.74313 36.4031 4.88164 36.915 5.42985C37.4056 5.95659 37.5041 6.7467 37.0019 7.28515C35.8506 8.52007 34.6472 9.70817 33.4341 10.8846C33.2313 11.0836 32.8778 11.1265 32.4257 11.3099Z" fill="#5E7AAA"/>
<path d="M12.6974 60.4723C13.4566 60.4528 14.1443 61.1064 14.1771 61.8809C14.21 62.6535 13.5764 63.3441 12.7998 63.3772C11.9692 63.4124 11.3105 62.7842 11.3028 61.9492C11.297 61.1513 11.919 60.4938 12.6974 60.4723Z" fill="#5E7AAA"/>
</svg>
