<svg width="39" height="39" viewBox="0 0 39 39" fill="none" xmlns="http://www.w3.org/2000/svg">
<path d="M38.3232 18.0215C38.3232 18.7697 38.3232 19.5169 38.3232 20.2651C38.2633 20.7567 38.2136 21.2501 38.1425 21.7408C37.4814 26.2654 35.5009 30.1074 32.144 33.2171C29.3892 35.7697 26.1474 37.3625 22.4421 37.9964C21.7333 38.1172 21.016 38.1921 20.3034 38.2886C19.5553 38.2886 18.808 38.2886 18.0599 38.2886C17.3463 38.1921 16.6281 38.1219 15.9193 37.9955C10.7982 37.0806 6.64442 34.5393 3.65455 30.2994C-0.270765 24.7307 -1.01613 18.6517 1.33232 12.2618C3.92049 5.21833 10.8881 0.259247 18.3764 0.0120419C22.4515 -0.121861 26.2364 0.857596 29.6364 3.11896C34.2331 6.17532 37.0357 10.4462 38.0292 15.8856C38.1584 16.5916 38.2268 17.3089 38.3232 18.0215ZM24.284 29.1448C25.0865 29.1448 25.8571 28.9903 26.595 28.6532C27.5155 28.2328 28.1812 27.5043 28.877 26.8113C29.3929 26.2982 29.392 25.8899 28.8751 25.3702C27.7861 24.2747 26.6943 23.1819 25.6015 22.0901C25.0603 21.5489 24.6511 21.5545 24.1042 22.1069C23.5171 22.7006 22.9366 23.2999 22.3457 23.8898C21.6172 24.6174 20.7501 24.6857 19.9195 24.0921C17.7743 22.5592 15.9127 20.7379 14.3359 18.6245C13.6636 17.7237 13.7197 16.8866 14.5147 16.086C15.1374 15.4586 15.7695 14.8387 16.3894 14.2076C16.8379 13.7507 16.8426 13.3246 16.3931 12.8714C15.262 11.7299 14.1261 10.5932 12.9847 9.46202C12.5493 9.03035 12.1204 9.03409 11.6756 9.46015C11.3067 9.81316 10.9452 10.1746 10.5941 10.5454C9.44983 11.7552 8.92733 13.1823 9.15955 14.8481C9.32342 16.0233 9.81034 17.0954 10.3562 18.1273C12.6822 22.5236 16.0804 25.8375 20.5506 28.0202C21.7221 28.5905 22.9487 29.0558 24.284 29.1448Z" fill="#5E7AAA"/>
</svg>
