<svg width="41" height="30" viewBox="0 0 41 30" fill="none" xmlns="http://www.w3.org/2000/svg">
<path d="M38.4765 0H1.89229C0.847205 0 0 0.847205 0 1.89229V2.9362C0 3.98128 0.847205 4.82848 1.89229 4.82848H38.4765C39.5216 4.82848 40.3688 3.98128 40.3688 2.9362V1.89229C40.3688 0.847205 39.5216 0 38.4765 0Z" fill="white"/>
<path d="M38.4765 12.8765H1.89229C0.847205 12.8765 0 13.7237 0 14.7688V15.8127C0 16.8577 0.847205 17.7049 1.89229 17.7049H38.4765C39.5216 17.7049 40.3688 16.8577 40.3688 15.8127V14.7688C40.3688 13.7237 39.5216 12.8765 38.4765 12.8765Z" fill="white"/>
<path d="M38.4765 24.9482H1.89229C0.847205 24.9482 0 25.7954 0 26.8405V27.8844C0 28.9295 0.847205 29.7767 1.89229 29.7767H38.4765C39.5216 29.7767 40.3688 28.9295 40.3688 27.8844V26.8405C40.3688 25.7954 39.5216 24.9482 38.4765 24.9482Z" fill="white"/>
</svg>
