<svg width="97" height="20" viewBox="0 0 97 20" fill="none" xmlns="http://www.w3.org/2000/svg">
<path fill-rule="evenodd" clip-rule="evenodd" d="M76 9.99969C76 4.47677 80.701 0 86.5 0C92.299 0 97 4.47677 97 9.99969C97 15.5226 92.299 20 86.5 20C80.701 20 76 15.5226 76 9.99969Z" fill="#F62A81"/>
<path fill-rule="evenodd" clip-rule="evenodd" d="M51 9.99969C51 4.47677 55.701 0 61.5 0C67.299 0 72 4.47677 72 9.99969C72 15.5226 67.299 20 61.5 20C55.701 20 51 15.5226 51 9.99969Z" fill="#00B0F0"/>
<path fill-rule="evenodd" clip-rule="evenodd" d="M26 9.99969C26 4.47677 30.701 0 36.5 0C42.299 0 47 4.47677 47 9.99969C47 15.5226 42.299 20 36.5 20C30.701 20 26 15.5226 26 9.99969Z" fill="#92D050"/>
<path fill-rule="evenodd" clip-rule="evenodd" d="M0 10.0003C0 4.47741 4.9246 0 11 0C17.0754 0 22 4.47741 22 10.0003C22 15.5232 17.0748 20 11 20C4.92524 20 0 15.5232 0 10.0003Z" fill="#FF9966"/>
</svg>
