<svg width="93" height="93" viewBox="0 0 93 93" fill="none" xmlns="http://www.w3.org/2000/svg">
<path d="M45.4324 44.9448L45.6499 45.0272L45.853 44.914L70.2063 31.3468L45.2243 49.4932L35.0984 41.0264L45.4324 44.9448Z" fill="#1D1D1B" stroke="#1D1D1B"/>
<path d="M24.1483 12.6634C30.7725 8.2372 38.5605 5.875 46.5274 5.875C51.8172 5.875 57.0552 6.917 61.9424 8.94132C66.8296 10.9657 71.2701 13.9324 75.0106 17.6729C78.7511 21.4133 81.7181 25.8543 83.7425 30.7414C85.7668 35.6286 86.8087 40.8665 86.8087 46.1563C86.8087 54.1232 84.4463 61.9109 80.0201 68.5352C75.5939 75.1594 69.3028 80.3224 61.9424 83.3712C54.5819 86.42 46.4827 87.218 38.6689 85.6637C30.8551 84.1095 23.6777 80.2727 18.0442 74.6392C12.4108 69.0058 8.57437 61.8286 7.02011 54.0148C5.46585 46.201 6.26354 38.1019 9.31234 30.7414C12.3611 23.381 17.5241 17.0895 24.1483 12.6634ZM27.292 74.9443C32.9857 78.7487 39.6797 80.779 46.5274 80.779C55.7099 80.779 64.5164 77.1315 71.0095 70.6385C77.5025 64.1454 81.1502 55.3388 81.1502 46.1563C81.1502 39.3085 79.1197 32.6144 75.3152 26.9207C71.5108 21.227 66.1035 16.7893 59.777 14.1688C53.4505 11.5482 46.489 10.8626 39.7728 12.1985C33.0566 13.5345 26.8875 16.832 22.0454 21.6741C17.2033 26.5162 13.9058 32.6857 12.5698 39.4019C11.2339 46.118 11.9195 53.0795 14.5401 59.406C17.1606 65.7325 21.5983 71.1398 27.292 74.9443Z" fill="#FF9966" stroke="#1D1D1B"/>
<path d="M46.5106 91.0211C71.0931 91.0211 91.0211 71.0931 91.0211 46.5106C91.0211 21.9281 71.0931 2 46.5106 2C21.9281 2 2 21.9281 2 46.5106C2 71.0931 21.9281 91.0211 46.5106 91.0211Z" stroke="#1D1D1B" stroke-width="3" stroke-miterlimit="10"/>
<path d="M48.7204 9.23032C48.7204 10.9507 47.3257 12.3454 45.6053 12.3454C43.8849 12.3454 42.4902 10.9507 42.4902 9.23032C42.4902 7.50991 43.8849 6.11523 45.6053 6.11523C47.3257 6.11523 48.7204 7.50991 48.7204 9.23032Z" fill="white" stroke="#1D1D1B"/>
<path d="M48.7204 83.7918C48.7204 85.5123 47.3257 86.9069 45.6053 86.9069C43.8849 86.9069 42.4902 85.5123 42.4902 83.7918C42.4902 82.0714 43.8849 80.6768 45.6053 80.6768C47.3257 80.6768 48.7204 82.0714 48.7204 83.7918Z" fill="white" stroke="#1D1D1B"/>
<path d="M12.3454 46.5106C12.3454 48.231 10.9507 49.6257 9.23032 49.6257C7.50991 49.6257 6.11523 48.231 6.11523 46.5106C6.11523 44.7902 7.50991 43.3955 9.23032 43.3955C10.9507 43.3955 12.3454 44.7902 12.3454 46.5106Z" fill="white" stroke="#1D1D1B"/>
<path d="M86.906 46.5106C86.906 48.231 85.5113 49.6257 83.7909 49.6257C82.0705 49.6257 80.6758 48.231 80.6758 46.5106C80.6758 44.7902 82.0705 43.3955 83.7909 43.3955C85.5113 43.3955 86.906 44.7902 86.906 46.5106Z" fill="white" stroke="#1D1D1B"/>
<path d="M44.882 50.5076L45.1811 50.7576L45.4965 50.5285L65.9563 35.6673L45.6462 52.7073L38.6702 45.3151L44.882 50.5076Z" fill="#FF9933" stroke="#1D1D1B"/>
</svg>
