<svg width="108" height="98" viewBox="0 0 108 98" fill="none" xmlns="http://www.w3.org/2000/svg">
<path d="M91.8159 56.3216L52.6395 95.5223L13.463 56.3216C-18.4123 24.4266 20.7653 -14.7751 52.6395 17.1209C89.2524 -19.5135 128.429 19.6894 91.8159 56.3216Z" stroke="#1D1D1B" stroke-width="3" stroke-miterlimit="10"/>
<path d="M2.03125 64.4801H44.375L49.0221 33.3569L52.6373 74.8146L58.8338 45.8832L63.9974 64.4844H106.341" stroke="#1D1D1B" stroke-width="3" stroke-linecap="round" stroke-linejoin="round"/>
<path d="M84.9871 55.9406C85.168 55.6121 85.3543 55.268 85.5443 54.9097C87.2107 51.7669 89.1747 47.5101 90.3391 43.0855C91.5003 38.6726 91.8861 34.0187 90.3064 30.1293C88.7096 26.1979 85.1503 23.1538 78.6692 21.8976C66.6656 19.571 60.9911 18.7981 58.3389 18.6353C59.1033 18.1057 60.0924 17.4475 61.2623 16.7271C64.1804 14.9302 68.2127 12.7538 72.6846 11.2196C77.1605 9.68407 82.0423 8.80389 86.6751 9.56067C91.2802 10.3129 95.671 12.6867 99.2036 17.7216L99.2077 17.7297C99.2201 17.755 99.2393 17.7951 99.2641 17.8499C99.3136 17.9597 99.3853 18.1283 99.4688 18.355C99.6358 18.8083 99.8503 19.4935 100.03 20.4027C100.391 22.2201 100.615 24.9376 100.043 28.4936C99.0044 34.9622 95.3278 44.2411 84.9871 55.9406Z" fill="#F62A81" stroke="#1D1D1B"/>
<path d="M52.4806 82.6128L52.6989 82.7536L52.9396 82.6559L59.3295 80.0628L52.7154 87.7972L36.6165 72.381L52.4806 82.6128Z" fill="#F62A81" stroke="#1D1D1B"/>
</svg>
