<svg width="121" height="103" viewBox="0 0 121 103" fill="none" xmlns="http://www.w3.org/2000/svg">
<path d="M78.8996 89.75C96.7481 93.5524 114.137 83.4017 117.89 66.891C121.643 50.3804 110.362 33.7256 92.648 29.4138C90.593 16.9398 80.5167 6.10417 66.5474 2.92312C48.5229 -1.17952 30.8464 9.00795 27.0533 25.6707C26.7264 27.1123 26.5104 28.5768 26.4073 30.0514C14.6969 32.6371 5.14674 41.1583 2.47767 52.8889C-1.30743 69.5556 10.2299 86.3925 28.2544 90.4912C33.1038 91.6081 38.1334 91.696 43.0188 90.7487" stroke="#1B1B1D" stroke-width="3" stroke-linecap="round" stroke-linejoin="round"/>
<path d="M89.8564 63.8342C90.1087 63.7919 90.3675 63.8104 90.6113 63.888C90.8551 63.9656 91.0769 64.1004 91.2584 64.2808C91.4399 64.4612 91.5758 64.6823 91.6549 64.9257C91.734 65.1692 91.7542 65.4279 91.7135 65.6806C90.4015 73.7208 86.0524 82.2502 78.9632 89.3878L78.9001 89.4498C74.5294 93.8872 69.3343 97.4272 63.6067 99.8706C63.0054 100.122 62.3793 100.31 61.7387 100.43L61.6496 100.448C61.5836 100.46 61.5146 100.472 61.4496 100.481C61.3056 100.505 61.1627 100.519 61.0157 100.534H61.0097C60.8847 100.543 60.7526 100.552 60.6216 100.552L60.4456 100.558C60.3886 100.558 60.3316 100.558 60.2716 100.552C60.1406 100.552 60.0086 100.543 59.8836 100.534H59.8776C59.7306 100.519 59.5876 100.505 59.4446 100.481C59.3786 100.472 59.3096 100.46 59.2446 100.448L59.1556 100.43C58.5151 100.31 57.8889 100.122 57.2875 99.8706C51.9992 97.6216 47.1634 94.4293 43.0162 90.4495C42.6515 90.1026 42.2899 89.7487 41.9312 89.3878C34.842 82.2502 30.4939 73.7218 29.1818 65.6806C29.141 65.4279 29.1608 65.1692 29.2398 64.9257C29.3188 64.6823 29.4546 64.4613 29.6361 64.2808C29.8175 64.1003 30.0393 63.9656 30.2831 63.888C30.5268 63.8104 30.7856 63.7918 31.0378 63.8342C37.6645 65.0757 43.9008 67.8777 49.2313 72.0079C49.4562 72.1791 49.7221 72.288 50.0023 72.3241C50.2826 72.3602 50.5675 72.3222 50.8284 72.2136C51.0893 72.105 51.3171 71.9294 51.4891 71.705C51.661 71.4807 51.7712 71.2153 51.8084 70.935C52.6497 64.1322 55.1174 57.6325 59.0026 51.9868C59.1517 51.7785 59.3483 51.6089 59.5761 51.4918C59.8038 51.3748 60.0561 51.314 60.3122 51.314C60.5682 51.314 60.8205 51.3748 61.0483 51.4918C61.276 51.6089 61.4725 51.7785 61.6216 51.9868C65.5393 57.6842 68.0157 64.2486 68.8379 71.1153C68.8739 71.3973 68.9837 71.6648 69.1561 71.8907C69.3286 72.1166 69.5578 72.2924 69.8202 72.4013C70.0827 72.5101 70.3691 72.5477 70.6507 72.5102C70.9323 72.4727 71.1991 72.3615 71.4239 72.1877C76.8078 67.9614 83.1306 65.0958 89.8564 63.8342V63.8342Z" stroke="#1B1B1D" stroke-width="3" stroke-miterlimit="10"/>
<path d="M30.6315 86.4223C30.6315 86.4223 8.16992 74.2483 8.16992 56.4548C8.16992 38.6614 30.6315 36.7493 30.6315 36.7493C30.6315 36.7493 32.5035 8.69556 55.9012 8.69556C60.2421 8.65639 64.5403 9.55543 68.5017 11.332C72.4631 13.1086 75.9944 15.7205 78.8538 18.9888C80.8725 21.3104 82.5892 23.8786 83.9629 26.6319C84.4319 27.5665 86.7499 33.6061 87.721 33.9804C99.8873 38.6624 99.3953 38.5305 100.821 39.5992C105.533 42.8512 108.867 47.7405 110.176 53.3161C111.549 59.3223 110.53 65.6275 107.336 70.8953C102.985 78.1656 95.9307 83.4126 87.719 85.4857" stroke="#00B0F0" stroke-width="4" stroke-miterlimit="10"/>
<path d="M34.3789 71.4404C37.357 77.9383 41.3722 83.9079 46.2672 89.1149C49.51 92.4702 53.9113 94.4592 58.5711 94.6751C63.2308 94.891 67.797 93.3178 71.3358 90.2768C77.6201 84.7121 83.186 78.3843 87.9042 71.4404C87.9042 71.4404 79.26 78.4122 71.2308 83.8537C67.8667 86.1307 63.8921 87.3342 59.8308 87.3056C55.7694 87.277 51.812 86.0176 48.4802 83.6934C43.3607 80.1186 38.634 76.0113 34.3789 71.4404Z" fill="#92D050"/>
</svg>
