<svg width="100" height="83" viewBox="0 0 100 83" fill="none" xmlns="http://www.w3.org/2000/svg">
<path d="M84.9964 59.6246L42.1913 23.1531C39.2072 20.6105 34.7282 20.9699 32.1872 23.9559L31.9999 24.176C29.4589 27.1619 29.8181 31.6437 32.8022 34.1863L75.6073 70.6578C78.5914 73.2004 83.0705 72.841 85.6115 69.855L85.7987 69.6349C88.3398 66.649 87.9806 62.1672 84.9964 59.6246Z" stroke="black" stroke-width="2.99854" stroke-miterlimit="10"/>
<path d="M94.2849 74.7472L87.0605 68.5918L84.7944 71.2547L92.0188 77.4102L94.2849 74.7472Z" stroke="black" stroke-width="2.99854" stroke-miterlimit="10"/>
<path d="M95.1217 73.7715L91.1902 78.3927C90.5765 79.114 90.6634 80.1965 91.3843 80.8105L91.4368 80.8552C92.1576 81.4692 93.2394 81.3823 93.8531 80.661L97.7846 76.0398C98.3982 75.3185 98.3113 74.2361 97.5905 73.6221L97.5379 73.5773C96.8171 72.9633 95.7353 73.0503 95.1217 73.7715Z" stroke="black" stroke-width="3" stroke-miterlimit="10"/>
<path d="M31.0431 23.3687L5.98145 2.021" stroke="black" stroke-width="3" stroke-miterlimit="10" stroke-linecap="round"/>
<path d="M8.63501 77.4127L15.8594 71.2573L13.5933 68.5944L6.3689 74.7498L8.63501 77.4127Z" stroke="black" stroke-width="2.99854" stroke-miterlimit="10"/>
<path d="M2.86855 76.0396L6.80007 80.6608C7.41369 81.3821 8.49548 81.469 9.21631 80.855L9.26885 80.8103C9.98968 80.1963 10.0766 79.1138 9.46296 78.3926L5.53144 73.7713C4.91782 73.0501 3.83603 72.9631 3.1152 73.5771L3.06266 73.6219C2.34183 74.2359 2.25493 75.3183 2.86855 76.0396Z" stroke="black" stroke-width="3" stroke-miterlimit="10"/>
<path d="M69.6104 23.3687L94.672 2.021" stroke="black" stroke-width="3" stroke-miterlimit="10" stroke-linecap="round"/>
<path d="M82.6085 66.9274C83.8948 65.4159 74.2552 55.0889 61.078 43.8614C47.9008 32.634 36.1758 24.7576 34.8895 26.2691C33.6033 27.7806 43.2428 38.1075 56.42 49.335C69.5973 60.5625 81.3223 68.4389 82.6085 66.9274Z" fill="#00B0F0"/>
<path d="M25.0475 69.6627L67.8526 33.1912C70.8367 30.6486 71.196 26.1668 68.6549 23.1808L68.4677 22.9608C65.9266 19.9748 61.4476 19.6153 58.4635 22.1579L15.6584 58.6295C12.6743 61.172 12.3151 65.6538 14.8561 68.6398L15.0434 68.8599C17.5844 71.8458 22.0634 72.2053 25.0475 69.6627Z" stroke="black" stroke-width="2.99854" stroke-miterlimit="10"/>
<path d="M44.2313 49.3441C57.4086 38.1166 67.0481 27.7896 65.7618 26.2782C64.4756 24.7667 52.7506 32.643 39.5734 43.8705C26.3961 55.098 16.7566 65.425 18.0428 66.9365C19.3291 68.448 31.0541 60.5716 44.2313 49.3441Z" fill="#00B0F0"/>
</svg>
