<svg width="96" height="96" viewBox="0 0 96 96" fill="none" xmlns="http://www.w3.org/2000/svg">
<path d="M7.54587 51.4925V46.1876C7.53073 46.0705 7.54173 45.9514 7.57808 45.8391C7.61444 45.7267 7.67524 45.6237 7.75612 45.5377C7.83699 45.4516 7.93594 45.3845 8.04584 45.3412C8.15574 45.298 8.27386 45.2796 8.39172 45.2874H10.8301C12.4335 45.2874 13.3013 45.935 13.3013 47.0994C13.3013 47.9013 12.8508 48.3842 12.0269 48.6148C13.0815 48.8567 13.5647 49.5154 13.5647 50.3737C13.5647 51.7464 12.6973 52.3944 10.6982 52.3944H8.39172C8.27371 52.4022 8.15543 52.3838 8.0454 52.3404C7.93537 52.2971 7.83633 52.2298 7.75542 52.1436C7.67451 52.0573 7.61375 51.9542 7.57751 51.8416C7.54127 51.729 7.53047 51.6098 7.54587 51.4925ZM10.4456 48.2743C11.1923 48.2743 11.632 47.9341 11.632 47.3628C11.632 46.7804 11.2363 46.4954 10.4456 46.4954H9.14962V48.2743H10.4456ZM10.5335 51.1851C11.5001 51.1851 11.9062 50.8993 11.9062 50.2186C11.9062 49.5922 11.4665 49.3072 10.5443 49.3072H9.14962V51.1859L10.5335 51.1851Z" fill="#1d1d1b"/>
<path d="M14.2992 49.8233V49.593C14.2965 49.5106 14.3115 49.4286 14.3432 49.3525C14.3748 49.2764 14.4224 49.208 14.4828 49.1518C14.5431 49.0957 14.6148 49.0531 14.6929 49.0269C14.7711 49.0008 14.854 48.9917 14.9359 49.0002H17.5714C17.6534 48.9916 17.7364 49.0007 17.8146 49.0268C17.8928 49.0529 17.9646 49.0955 18.025 49.1517C18.0854 49.2078 18.1331 49.2763 18.1648 49.3524C18.1966 49.4285 18.2116 49.5106 18.209 49.593V49.8241C18.2117 49.9065 18.1967 49.9885 18.165 50.0646C18.1333 50.1407 18.0857 50.2092 18.0254 50.2654C17.9651 50.3216 17.8934 50.3642 17.8153 50.3904C17.7371 50.4166 17.6542 50.4258 17.5722 50.4173H14.9359C14.8539 50.4258 14.7709 50.4166 14.6927 50.3904C14.6145 50.3641 14.5428 50.3214 14.4824 50.2651C14.4221 50.2088 14.3745 50.1403 14.3429 50.0641C14.3113 49.9879 14.2964 49.9058 14.2992 49.8233Z" fill="#1d1d1b"/>
<path d="M18.0985 46.0006V45.9567C18.0985 45.517 18.3619 45.2871 18.8452 45.2871H23.6669C24.1609 45.2871 24.414 45.5178 24.414 45.9567V46.0006C24.414 46.4619 24.1609 46.7038 23.6669 46.7038H22.0743V51.7005C22.088 51.7984 22.0791 51.8982 22.0484 51.9922C22.0177 52.0861 21.9659 52.1719 21.8971 52.2428C21.8282 52.3138 21.7441 52.3681 21.6511 52.4017C21.5581 52.4352 21.4587 52.4471 21.3604 52.4364H21.1289C20.6784 52.4364 20.459 52.1838 20.459 51.7005V46.7038H18.8444C18.7467 46.7187 18.6469 46.7112 18.5526 46.6818C18.4583 46.6524 18.3719 46.6019 18.3 46.5341C18.2281 46.4664 18.1725 46.3831 18.1376 46.2906C18.1027 46.1982 18.0893 46.099 18.0985 46.0006Z" fill="#1d1d1b"/>
<path d="M26.685 51.8315L25.0156 45.7554C24.9937 45.6787 25.3354 45.2506 26.0042 45.2506C26.3668 45.2506 26.7729 45.4504 26.9048 46.14L27.8042 50.3832L28.8807 46.682C28.9357 46.4751 29.0641 46.2952 29.2419 46.176C29.4198 46.0568 29.635 46.0063 29.8473 46.0341C30.0547 46.0122 30.2631 46.0656 30.4344 46.1846C30.6057 46.3035 30.7286 46.4801 30.7807 46.682L31.846 50.3724L32.7578 46.1216C32.8777 45.4844 33.2407 45.2422 33.6472 45.2422C33.8366 45.225 34.0267 45.2649 34.1932 45.3568C34.3596 45.4487 34.4947 45.5884 34.581 45.7578L32.9445 51.8339C32.8345 52.306 32.516 52.4599 31.9451 52.4599C31.3963 52.4599 31.0885 52.306 30.9458 51.8339L29.8265 47.99L28.6621 51.8339C28.5421 52.2952 28.2224 52.4599 27.6735 52.4599C27.1031 52.4591 26.8049 52.3164 26.685 51.8315Z" fill="#1d1d1b"/>
<path d="M35.7451 51.7009V45.9786C35.7451 45.4842 35.985 45.2431 36.4371 45.2431H36.6565C36.7552 45.2303 36.8555 45.2407 36.9495 45.2735C37.0435 45.3062 37.1286 45.3605 37.1979 45.4319C37.2672 45.5033 37.3189 45.5899 37.3489 45.6849C37.3788 45.7798 37.3862 45.8804 37.3704 45.9786V51.7009C37.3851 51.799 37.3769 51.8992 37.3465 51.9936C37.3162 52.088 37.2645 52.1742 37.1954 52.2454C37.1264 52.3166 37.0418 52.3709 36.9483 52.4041C36.8549 52.4373 36.755 52.4485 36.6565 52.4368H36.4391C35.9866 52.4368 35.7451 52.1842 35.7451 51.7009Z" fill="#1d1d1b"/>
<path d="M38.7324 51.7011V46.0448C38.7324 45.5284 38.9963 45.2453 39.4356 45.2453H39.6334C39.8002 45.2367 39.966 45.2753 40.1117 45.3569C40.2574 45.4384 40.3771 45.5596 40.4569 45.7062L43.5325 49.9351V45.9809C43.5325 45.498 43.7631 45.2453 44.2244 45.2453H44.3779C44.8284 45.2453 45.0575 45.498 45.0575 45.9809V51.6356C45.0575 52.1624 44.7941 52.437 44.366 52.437H44.234C44.0797 52.4534 43.924 52.4247 43.7856 52.3544C43.6472 52.2842 43.5321 52.1755 43.4541 52.0413L40.2582 47.6486V51.7011C40.2582 52.1844 40.0276 52.437 39.5551 52.437H39.4012C38.9635 52.437 38.7324 52.1844 38.7324 51.7011Z" fill="#1d1d1b"/>
<path d="M47.8457 51.1077C47.8675 50.9301 47.9358 50.7614 48.0438 50.6187C48.1517 50.476 48.2955 50.3643 48.4605 50.2951C48.7258 50.5969 49.0514 50.8399 49.4163 51.0083C49.7812 51.1767 50.1773 51.2668 50.5791 51.2728C51.425 51.2728 51.8755 50.953 51.8755 50.405C51.8755 49.7678 51.1615 49.6691 50.3269 49.4828C49.1844 49.2294 48.0204 48.7905 48.0204 47.3406C48.0204 46.0215 49.0857 45.144 50.799 45.144C52.5123 45.144 53.3473 45.836 53.3473 46.44C53.3235 46.6257 53.251 46.8018 53.1371 46.9503C53.0233 47.0989 52.8721 47.2147 52.6989 47.2858C52.4637 47.0147 52.1738 46.7962 51.8484 46.6446C51.5229 46.4931 51.1691 46.4119 50.8102 46.4064C50.0303 46.4064 49.5798 46.7362 49.5798 47.2519C49.5798 47.8671 50.217 47.9222 51.0956 48.1201C52.3803 48.4051 53.5008 48.9436 53.5008 50.2835C53.5008 51.7002 52.4683 52.5348 50.5903 52.5348C48.7023 52.5356 47.8457 51.7561 47.8457 51.1077Z" fill="#1d1d1b"/>
<path d="M56.4215 51.7013V49.5376L53.9391 45.8692C53.8844 45.7812 54.1698 45.2436 54.9717 45.2436C55.1392 45.2559 55.3 45.3148 55.4358 45.4137C55.5717 45.5126 55.6772 45.6475 55.7404 45.8032L57.2342 48.2524L58.7496 45.814C58.8149 45.6566 58.9222 45.5202 59.0597 45.4195C59.1972 45.3189 59.3597 45.2579 59.5295 45.2432C60.2546 45.2432 60.5732 45.792 60.518 45.8688L58.0469 49.5372V51.7009C58.0615 51.799 58.0533 51.8992 58.023 51.9936C57.9926 52.0881 57.9409 52.1742 57.8718 52.2454C57.8028 52.3166 57.7182 52.3709 57.6247 52.4041C57.5313 52.4373 57.4314 52.4485 57.3329 52.4369H57.1135C56.663 52.4373 56.4215 52.1846 56.4215 51.7013Z" fill="#1d1d1b"/>
<path d="M60.9346 51.1077C60.9563 50.9301 61.0247 50.7614 61.1326 50.6187C61.2406 50.476 61.3844 50.3643 61.5494 50.2951C61.8147 50.5969 62.1403 50.8399 62.5052 51.0083C62.87 51.1767 63.2662 51.2668 63.668 51.2728C64.5138 51.2728 64.9643 50.953 64.9643 50.405C64.9643 49.7678 64.2504 49.6691 63.4158 49.4828C62.2733 49.2294 61.1093 48.7905 61.1093 47.3406C61.1093 46.0215 62.1746 45.144 63.8878 45.144C65.6011 45.144 66.4362 45.836 66.4362 46.44C66.4124 46.6257 66.3399 46.8018 66.226 46.9503C66.1121 47.0989 65.9609 47.2147 65.7878 47.2858C65.5525 47.0147 65.2627 46.7962 64.9372 46.6446C64.6118 46.4931 64.258 46.4119 63.899 46.4064C63.1191 46.4064 62.6686 46.7362 62.6686 47.2519C62.6686 47.8671 63.3058 47.9222 64.1845 48.1201C65.4692 48.4051 66.5897 48.9436 66.5897 50.2835C66.5897 51.7002 65.5572 52.5348 63.6792 52.5348C61.7912 52.5356 60.9346 51.7561 60.9346 51.1077Z" fill="#1d1d1b"/>
<path d="M67.0614 46.0006V45.9567C67.0614 45.517 67.3252 45.2871 67.8081 45.2871H72.6301C73.1242 45.2871 73.3768 45.5178 73.3768 45.9567V46.0006C73.3768 46.4619 73.1242 46.7038 72.6301 46.7038H71.0372V51.7005C71.0508 51.7984 71.0419 51.8982 71.0112 51.9922C70.9805 52.0861 70.9288 52.1719 70.8599 52.2428C70.7911 52.3138 70.707 52.3681 70.614 52.4017C70.521 52.4352 70.4215 52.4471 70.3232 52.4364H70.093C69.6425 52.4364 69.423 52.1838 69.423 51.7005V46.7038H67.8081C67.7104 46.7188 67.6105 46.7113 67.5161 46.6819C67.4217 46.6526 67.3352 46.6021 67.2632 46.5343C67.1912 46.4665 67.1357 46.3833 67.1007 46.2908C67.0657 46.1983 67.0523 46.0991 67.0614 46.0006Z" fill="#1d1d1b"/>
<path d="M74.1775 51.5037V46.1871C74.1624 46.07 74.1734 45.951 74.2097 45.8386C74.2461 45.7262 74.3069 45.6233 74.3877 45.5372C74.4686 45.4511 74.5676 45.384 74.6775 45.3407C74.7874 45.2975 74.9055 45.2791 75.0233 45.2869H78.9884C79.4932 45.2869 79.7351 45.5395 79.7351 45.9665V46.0212C79.7351 46.4717 79.4932 46.7008 78.9884 46.7008H75.8032V48.1063H78.1317C78.659 48.1063 78.8788 48.3369 78.8788 48.7327V48.7766C78.8788 49.2052 78.6478 49.4358 78.1317 49.4358H75.8036V50.984H79.0415C79.5468 50.984 79.7882 51.2039 79.7882 51.6212V51.6871C79.7973 51.7856 79.7839 51.8848 79.7489 51.9772C79.7139 52.0697 79.6583 52.153 79.5864 52.2207C79.5144 52.2885 79.4279 52.3389 79.3335 52.3682C79.2391 52.3975 79.1392 52.4049 79.0415 52.3899H75.0233C74.9065 52.3986 74.7892 52.3813 74.6799 52.3393C74.5705 52.2972 74.4718 52.2314 74.391 52.1467C74.3101 52.0619 74.249 51.9603 74.2121 51.8491C74.1752 51.7379 74.1633 51.62 74.1775 51.5037Z" fill="#1d1d1b"/>
<path d="M80.7656 51.7013V46.0562C80.753 45.9474 80.7649 45.8371 80.8006 45.7334C80.8362 45.6298 80.8947 45.5355 80.9717 45.4575C81.0486 45.3795 81.1421 45.3198 81.2453 45.2828C81.3484 45.2457 81.4585 45.2323 81.5675 45.2435H82.018C82.2047 45.2168 82.3946 45.2604 82.5509 45.3659C82.7071 45.4714 82.8186 45.6312 82.8635 45.8144L84.3025 49.1866L85.7524 45.8144C85.9499 45.3746 86.1258 45.2435 86.5763 45.2435H87.0056C87.116 45.23 87.2281 45.2416 87.3335 45.2775C87.4388 45.3133 87.5347 45.3726 87.6139 45.4507C87.6932 45.5289 87.7537 45.6239 87.791 45.7288C87.8283 45.8336 87.8415 45.9456 87.8294 46.0562V51.7013C87.8294 52.1846 87.654 52.4372 87.1927 52.4372H86.94C86.5003 52.4372 86.3028 52.1846 86.3028 51.7013V47.4745L85.1168 50.3526C84.9969 50.6272 84.9297 50.8575 84.2929 50.8575C83.645 50.8575 83.601 50.6376 83.4799 50.3526L82.2938 47.5296V51.7033C82.2938 52.1866 82.1292 52.4392 81.6571 52.4392H81.404C80.9523 52.4372 80.7656 52.1846 80.7656 51.7013Z" fill="#1d1d1b"/>
<path d="M48 95C73.9574 95 95 73.9574 95 48C95 22.0426 73.9574 1 48 1C22.0426 1 1 22.0426 1 48C1 73.9574 22.0426 95 48 95Z" stroke="#1d1d1b" stroke-miterlimit="10"/>
</svg>
