<svg width="130" height="131" viewBox="0 0 130 131" fill="none" xmlns="http://www.w3.org/2000/svg">
<path opacity="0.3" d="M130 65.5014C130.007 68.3953 129.815 71.2863 129.425 74.1535C128.451 81.7975 126.105 89.1992 122.502 95.9971C116.325 107.839 106.696 117.489 94.9109 123.648C83.1262 129.808 69.7516 132.181 56.5878 130.449C43.4239 128.716 31.1028 122.961 21.283 113.958C11.4633 104.956 4.61627 93.1372 1.66399 80.0943C0.598911 75.5822 0.0512149 70.9618 0.0315202 66.3239C0.00633731 66.0505 -0.00378516 65.7759 0.00125847 65.5014C-0.0042229 60.8086 0.502697 56.1294 1.51287 51.5483C2.55997 46.553 4.2045 41.704 6.41047 37.1078C11.2924 26.8748 18.7309 18.097 27.996 11.6358C37.261 5.17467 48.034 1.25233 59.2576 0.25375C70.4812 -0.744831 81.7695 1.21475 92.0147 5.94004C102.26 10.6653 111.11 17.9939 117.695 27.2066H117.726C124.701 36.9126 128.875 48.3738 129.788 60.3223C129.939 62.0283 130 63.7649 130 65.5014Z" fill="#1D1D1B"/>
<path d="M129.194 65.5898C129.189 81.1922 123.443 96.2478 113.051 107.89C102.659 119.532 88.3466 126.947 72.8388 128.724C57.331 130.501 41.711 126.515 28.9532 117.525C16.1954 108.535 7.19095 95.1689 3.65416 79.9722C0.11737 64.7756 2.2953 48.8096 9.77345 35.1142C17.2516 21.4189 29.5076 10.9507 44.2077 5.70319C58.9077 0.455657 75.0251 0.795213 89.4909 6.65715C103.957 12.5191 115.76 23.494 122.655 37.4921C126.959 46.2338 129.196 55.8469 129.194 65.5898Z" fill="#E1D2C7"/>
<path d="M122.655 37.508H8.49805C13.7453 26.8519 21.8733 17.8777 31.9613 11.602C42.0493 5.3263 53.6941 2 65.5763 2C77.4586 2 89.1033 5.3263 99.1913 11.602C109.279 17.8777 117.407 26.8519 122.655 37.508Z" fill="#DEC2B5"/>
</svg>
