<svg width="128" height="128" viewBox="0 0 128 128" fill="none" xmlns="http://www.w3.org/2000/svg">
<path d="M62.1386 48.3228C63.7728 48.3228 65.0976 46.9986 65.0976 45.3651C65.0976 43.7317 63.7728 42.4075 62.1386 42.4075C60.5045 42.4075 59.1797 43.7317 59.1797 45.3651C59.1797 46.9986 60.5045 48.3228 62.1386 48.3228Z" fill="#C1B1A5"/>
<path d="M63.6177 127.179C98.7527 127.179 127.235 98.7089 127.235 63.5894C127.235 28.47 98.7527 0 63.6177 0C28.4826 0 0 28.47 0 63.5894C0 98.7089 28.4826 127.179 63.6177 127.179Z" fill="url(#paint0_linear_420_73)"/>
<path d="M106.523 42.4075C109.792 42.4075 112.441 39.7591 112.441 36.4922C112.441 33.2253 109.792 30.5769 106.523 30.5769C103.255 30.5769 100.605 33.2253 100.605 36.4922C100.605 39.7591 103.255 42.4075 106.523 42.4075Z" fill="#C2A597"/>
<path d="M76.9325 30.5765C81.8351 30.5765 85.8094 26.6039 85.8094 21.7035C85.8094 16.8031 81.8351 12.8306 76.9325 12.8306C72.03 12.8306 68.0557 16.8031 68.0557 21.7035C68.0557 26.6039 72.03 30.5765 76.9325 30.5765Z" fill="#C4A89D"/>
<path d="M41.4257 36.4925C46.3283 36.4925 50.3026 32.5199 50.3026 27.6195C50.3026 22.7191 46.3283 18.7466 41.4257 18.7466C36.5231 18.7466 32.5488 22.7191 32.5488 27.6195C32.5488 32.5199 36.5231 36.4925 41.4257 36.4925Z" fill="#A18A74"/>
<path d="M62.1376 48.3225C65.406 48.3225 68.0556 45.6742 68.0556 42.4072C68.0556 39.1403 65.406 36.4919 62.1376 36.4919C58.8693 36.4919 56.2197 39.1403 56.2197 42.4072C56.2197 45.6742 58.8693 48.3225 62.1376 48.3225Z" fill="#C1B1A5"/>
<path d="M82.8505 83.8145C89.3872 83.8145 94.6863 78.5178 94.6863 71.9839C94.6863 65.4501 89.3872 60.1533 82.8505 60.1533C76.3137 60.1533 71.0146 65.4501 71.0146 71.9839C71.0146 78.5178 76.3137 83.8145 82.8505 83.8145Z" fill="#A99590"/>
<path d="M82.8505 119.306C89.3872 119.306 94.6863 114.009 94.6863 107.476C94.6863 100.942 89.3872 95.645 82.8505 95.645C76.3137 95.645 71.0146 100.942 71.0146 107.476C71.0146 114.009 76.3137 119.306 82.8505 119.306Z" fill="#C4B1A7"/>
<path d="M41.4257 80.857C46.3283 80.857 50.3026 76.8844 50.3026 71.984C50.3026 67.0836 46.3283 63.1111 41.4257 63.1111C36.5231 63.1111 32.5488 67.0836 32.5488 71.984C32.5488 76.8844 36.5231 80.857 41.4257 80.857Z" fill="#8B7869"/>
<path d="M25.1523 60.1535C27.6036 60.1535 29.5907 58.1672 29.5907 55.717C29.5907 53.2668 27.6036 51.2805 25.1523 51.2805C22.701 51.2805 20.7139 53.2668 20.7139 55.717C20.7139 58.1672 22.701 60.1535 25.1523 60.1535Z" fill="#A98774"/>
<path d="M44.3847 98.6026C47.6531 98.6026 50.3026 95.9542 50.3026 92.6873C50.3026 89.4203 47.6531 86.772 44.3847 86.772C41.1163 86.772 38.4668 89.4203 38.4668 92.6873C38.4668 95.9542 41.1163 98.6026 44.3847 98.6026Z" fill="#A98774"/>
<path d="M62.1376 98.6026C65.406 98.6026 68.0556 95.9542 68.0556 92.6873C68.0556 89.4203 65.406 86.772 62.1376 86.772C58.8693 86.772 56.2197 89.4203 56.2197 92.6873C56.2197 95.9542 58.8693 98.6026 62.1376 98.6026Z" fill="#A78B7B"/>
<path d="M48.8222 110.433C51.2735 110.433 53.2607 108.447 53.2607 105.997C53.2607 103.547 51.2735 101.56 48.8222 101.56C46.3709 101.56 44.3838 103.547 44.3838 105.997C44.3838 108.447 46.3709 110.433 48.8222 110.433Z" fill="#B19689"/>
<defs>
<linearGradient id="paint0_linear_420_73" x1="120.492" y1="14.3712" x2="0.172999" y2="118.584" gradientUnits="userSpaceOnUse">
<stop stop-color="#B79585"/>
<stop offset="0.144" stop-color="#B89686"/>
<stop offset="0.2" stop-color="#BD9D8D"/>
<stop offset="0.241" stop-color="#C5A89A"/>
<stop offset="0.273" stop-color="#D0B7AA"/>
<stop offset="0.379" stop-color="#D1B9AD"/>
<stop offset="0.462" stop-color="#D8C2B6"/>
<stop offset="0.528" stop-color="#E1D0C5"/>
<stop offset="0.675" stop-color="#D7B9AB"/>
<stop offset="1" stop-color="#B99A8C"/>
</linearGradient>
</defs>
</svg>
