<svg width="128" height="128" viewBox="0 0 128 128" fill="none" xmlns="http://www.w3.org/2000/svg">
<path d="M127.411 64.1804C127.419 66.9899 127.231 69.7966 126.849 72.5801C125.896 80.0011 123.6 87.1869 120.073 93.7865C114.027 105.283 104.603 114.651 93.0683 120.631C81.534 126.611 68.4438 128.915 55.5597 127.233C42.6757 125.551 30.6164 119.964 21.0054 111.224C11.3944 102.484 4.69295 91.01 1.80343 78.3475C0.760986 73.9671 0.224931 69.4815 0.205655 64.9789C0.181007 64.7135 0.1711 64.4469 0.176036 64.1804C0.170672 59.6245 0.666817 55.0818 1.65552 50.6344C2.68036 45.7848 4.28994 41.0772 6.44902 36.6151C11.2272 26.6807 18.5076 18.1589 27.5757 11.8862C36.6438 5.61355 47.1878 1.80564 58.1729 0.836192C69.1579 -0.133259 80.2063 1.76915 90.2336 6.3566C100.261 10.944 108.923 18.0588 115.368 27.0027H115.398C122.225 36.4256 126.311 47.5524 127.204 59.1524C127.352 60.8086 127.411 62.4945 127.411 64.1804Z" fill="#E1D2C7"/>
<path d="M127.411 64.1808C127.419 66.9903 127.231 69.797 126.849 72.5805C125.896 80.0015 123.6 87.1873 120.073 93.7869C114.027 105.283 104.603 114.651 93.0683 120.631C81.534 126.611 68.4438 128.915 55.5597 127.233C42.6757 125.552 30.6164 119.964 21.0054 111.224C11.3944 102.484 4.69295 91.0105 1.80343 78.348C0.760986 73.9675 0.224931 69.4819 0.205655 64.9793C0.181007 64.7139 0.1711 64.4473 0.176036 64.1808C0.170672 59.6249 0.666817 55.0822 1.65552 50.6348C2.68036 45.7852 4.28994 41.0776 6.44902 36.6155C26.8703 39.8527 47.7493 38.6624 67.6699 33.1255C83.1931 28.8076 99.2573 26.7457 115.368 27.0031H115.398C122.225 36.426 126.311 47.5528 127.204 59.1528C127.352 60.809 127.411 62.4949 127.411 64.1808Z" fill="#A99590"/>
<path d="M127.411 64.1808C127.419 66.9903 127.231 69.7969 126.849 72.5805C125.896 80.0014 123.6 87.1872 120.073 93.7868C114.027 105.283 104.603 114.651 93.0683 120.631C81.534 126.611 68.4438 128.915 55.5597 127.233C42.6757 125.552 30.6164 119.964 21.0054 111.224C11.3944 102.484 4.69295 91.0104 1.80343 78.3479C0.760986 73.9675 0.224931 69.4819 0.205655 64.9793C0.181007 64.7139 0.1711 64.4473 0.176036 64.1808C0.170672 59.6248 0.666817 55.0822 1.65552 50.6348C27.7535 51.0488 62.6693 52.9713 83.0269 59.7443C97.3606 64.7673 113.01 64.5577 127.204 59.1527C127.352 60.809 127.411 62.4949 127.411 64.1808Z" fill="#927770"/>
<path d="M126.85 72.5804C125.896 80.0013 123.6 87.1871 120.074 93.7867C114.028 105.283 104.603 114.651 93.0687 120.631C81.5344 126.611 68.4442 128.915 55.5601 127.233C42.6761 125.551 30.6168 119.964 21.0058 111.224C11.3948 102.484 4.69335 91.0103 1.80383 78.3478C0.761385 73.9674 0.225331 69.4818 0.206055 64.9792C14.2344 64.2427 28.2969 65.4672 41.9866 68.6171C72.9669 74.8578 108.504 73.793 126.85 72.5804Z" fill="#B79585"/>
<path d="M120.073 93.7866C114.027 105.283 104.603 114.651 93.0686 120.631C81.5343 126.611 68.4441 128.915 55.56 127.233C42.676 125.551 30.6167 119.964 21.0057 111.224C11.3947 102.484 4.69323 91.0102 1.80371 78.3477C11.8346 75.3013 29.0558 74.1774 53.4376 86.3629C83.0864 101.181 108.208 97.2471 120.073 93.7866Z" fill="#DEC2B5"/>
</svg>
