<?xml version="1.0" encoding="UTF-8" standalone="no"?>
<svg
   width="79"
   height="56"
   viewBox="0 0 79 56"
   fill="none"
   version="1.1"
   id="svg1942"
   sodipodi:docname="yt-black.svg"
   inkscape:version="1.2.1 (9c6d41e410, 2022-07-14)"
   xmlns:inkscape="http://www.inkscape.org/namespaces/inkscape"
   xmlns:sodipodi="http://sodipodi.sourceforge.net/DTD/sodipodi-0.dtd"
   xmlns="http://www.w3.org/2000/svg"
   xmlns:svg="http://www.w3.org/2000/svg">
  <defs
     id="defs1946" />
  <sodipodi:namedview
     id="namedview1944"
     pagecolor="#ffffff"
     bordercolor="#000000"
     borderopacity="0.25"
     inkscape:showpageshadow="2"
     inkscape:pageopacity="0.0"
     inkscape:pagecheckerboard="0"
     inkscape:deskcolor="#d1d1d1"
     showgrid="false"
     inkscape:zoom="14.857143"
     inkscape:cx="39.274038"
     inkscape:cy="28"
     inkscape:window-width="1920"
     inkscape:window-height="1014"
     inkscape:window-x="1912"
     inkscape:window-y="-8"
     inkscape:window-maximized="1"
     inkscape:current-layer="svg1942" />
  <path
     d="M75.3794 0H3.56609C1.59659 0 0 1.62431 0 3.628V52.372C0 54.3757 1.59659 56 3.56609 56H75.3794C77.3489 56 78.9455 54.3757 78.9455 52.372V3.628C78.9455 1.62431 77.3489 0 75.3794 0Z"
     fill="white"
     id="path1938"
     style="fill:#1d1d1b;fill-opacity:1" />
  <path
     d="M52.351 24.1211L36.2505 14.6641C35.7084 14.3458 35.0935 14.1785 34.4675 14.1787C33.8416 14.1789 33.2268 14.3465 32.6848 14.665C32.1428 14.9836 31.6926 15.4416 31.3798 15.9932C31.0669 16.5447 30.9023 17.1708 30.9023 17.8076V36.7217C30.9021 37.3585 31.0668 37.9836 31.3797 38.5352C31.6925 39.0867 32.1426 39.5448 32.6846 39.8633C33.2267 40.1817 33.8417 40.3496 34.4676 40.3496C35.0936 40.3496 35.7085 40.1818 36.2505 39.8633L52.351 30.4062C52.8934 30.0879 53.3438 29.6298 53.657 29.0781C53.9701 28.5265 54.135 27.9007 54.135 27.2637C54.135 26.6266 53.9701 26.0009 53.657 25.4492C53.3438 24.8976 52.8934 24.4394 52.351 24.1211Z"
     fill="#1D1D1B"
     id="path1940"
     style="fill:#ffffff;fill-opacity:1" />
</svg>
