<svg width="42" height="62" viewBox="0 0 42 62" fill="none" xmlns="http://www.w3.org/2000/svg">
<path d="M4.43379 49.5767C4.43379 48.1029 4.45848 46.7004 4.42885 45.3002C4.37451 42.7773 5.35747 40.7955 7.38265 39.2604C10.902 36.5939 14.3819 33.8783 17.8778 31.1811C18.0408 31.0547 18.1964 30.9185 18.4026 30.748C16.8306 29.4951 15.3006 28.2741 13.7681 27.0568C11.5466 25.2923 9.33744 23.5142 7.09739 21.7729C5.15248 20.2611 4.2288 18.299 4.26708 15.8595C4.28684 14.5894 4.27078 13.3182 4.27078 12.0162C3.84476 11.9732 3.46442 11.9622 3.09396 11.8923C1.75413 11.6395 0.787225 10.5719 0.766232 9.23066C0.732891 7.1274 0.732891 5.02292 0.764998 2.91966C0.78599 1.55021 1.78376 0.460535 3.14088 0.234748C3.43478 0.185664 3.73609 0.16603 4.03369 0.16603C15.2833 0.162348 26.533 0.162349 37.7814 0.163576C39.4978 0.163576 40.8315 0.90843 40.9377 2.34783C41.1192 4.81431 41.1007 7.31024 40.9451 9.78041C40.8636 11.0762 39.6003 11.8959 38.2383 11.9622C38.0296 11.972 37.8196 11.9634 37.5418 11.9634C37.5418 13.3856 37.5356 14.7416 37.543 16.0988C37.5542 17.9689 36.9528 19.6022 35.6438 20.9557C35.3042 21.3066 34.9177 21.6146 34.5349 21.9189C31.0464 24.6947 27.5542 27.4642 24.0645 30.2375C23.8694 30.3933 23.6817 30.559 23.4433 30.7602C25.0005 31.937 26.5095 33.0782 28.0185 34.2195C30.3154 35.9558 32.6122 37.6922 34.9078 39.4297C36.77 40.8397 37.6801 42.7258 37.706 45.0364C37.7221 46.5224 37.7085 48.0097 37.7085 49.6061C37.9419 49.6061 38.1444 49.5963 38.3469 49.6074C39.8572 49.6933 41.0525 50.8799 41.0723 52.3819C41.0995 54.4422 41.0982 56.5049 41.0735 58.5652C41.0562 60.1053 39.8559 61.2943 38.3111 61.3606C38.1407 61.368 37.9691 61.3655 37.7974 61.3655C26.5478 61.3655 15.2981 61.3397 4.04974 61.39C2.08507 61.3986 0.629162 60.1004 0.731656 58.0744C0.819332 56.3368 0.74771 54.5906 0.750179 52.8482C0.752649 50.7253 1.82575 49.6442 3.97071 49.5976C4.09667 49.5976 4.22016 49.5877 4.43379 49.5767ZM34.63 49.5742C34.63 48.0575 34.6213 46.6157 34.6325 45.1751C34.6436 43.7308 34.0595 42.6116 32.895 41.7392C29.0558 38.8628 25.2302 35.9681 21.4132 33.0611C21.0366 32.7739 20.8032 32.7862 20.4364 33.0709C16.6985 35.9742 12.9531 38.8702 9.19173 41.7428C8.05195 42.6129 7.48885 43.7111 7.51108 45.1358C7.53207 46.4316 7.51354 47.7274 7.51725 49.0233C7.51725 49.2061 7.54565 49.3877 7.5617 49.5742C16.5935 49.5742 25.5685 49.5742 34.63 49.5742ZM7.39129 11.9966C7.37771 12.1904 7.35425 12.3733 7.35425 12.5573C7.35054 13.7256 7.35548 14.895 7.35178 16.0632C7.34807 17.4044 7.87042 18.4745 8.93982 19.3126C11.5232 21.3398 14.0867 23.3915 16.6577 25.4334C18.0717 26.5562 19.4868 27.6802 20.8773 28.7858C20.9761 28.7417 21.0205 28.7318 21.0526 28.7061C25.0771 25.5107 29.12 22.3374 33.1025 19.0905C33.6717 18.6254 34.2361 17.8364 34.3064 17.1467C34.4793 15.4545 34.3633 13.7341 34.3633 11.9953C25.4179 11.9966 16.4639 11.9966 7.39129 11.9966ZM3.8781 3.26325C3.8781 5.1444 3.8781 6.99733 3.8781 8.86499C15.2673 8.86499 26.6095 8.86499 37.9728 8.86499C37.9728 6.98261 37.9728 5.14195 37.9728 3.26325C26.6009 3.26325 15.2574 3.26325 3.8781 3.26325ZM37.9789 52.6985C26.5688 52.6985 15.229 52.6985 3.87069 52.6985C3.87069 54.5722 3.87069 56.4068 3.87069 58.2536C15.2636 58.2536 26.6169 58.2536 37.9789 58.2536C37.9789 56.381 37.9789 54.56 37.9789 52.6985Z" fill="#5E7AAA"/>
</svg>
